<svg xmlns="http://www.w3.org/2000/svg" width="235.767" height="235.767"><linearGradient id="a" x1="34.528" x2="201.24" y1="34.528" y2="201.24" gradientUnits="userSpaceOnUse"><stop offset="0" stop-color="#00b1bf"/><stop offset="1" stop-color="#00537f"/></linearGradient><circle cx="117.883" cy="117.884" r="117.883" fill="url(#a)" fill-rule="evenodd" clip-rule="evenodd"/><path d="M96.051 158.248l40.283-89.713 97.092 72.449s-2.625 19.688-17.988 43.22c-13.445 20.595-37.166 34.862-37.166 34.862l-82.221-60.818z" opacity=".3"/><path fill="none" stroke="#000" stroke-miterlimit="10" d="M10.676 104.922v28" opacity=".3"/><text font-family="'SourceSansPro-ExtraLight'" font-size="21" letter-spacing="-1" opacity=".5" transform="matrix(1 0 0 .75 14.176 115.089)">Software</text><text font-family="'SourceSansPro-ExtraLight'" font-size="21" letter-spacing="-1" opacity=".5" transform="matrix(1 0 0 .75 12.842 129.255)">Engineer</text><path fill="none" stroke="#F2F2F2" stroke-miterlimit="10" d="M156.676 145.922v28" opacity=".3"/><text fill="#FFF" font-family="'SourceSansPro-ExtraLight'" font-size="21" letter-spacing="-1" opacity=".5" transform="matrix(1 0 0 .75 160.176 156.089)">Frontend</text><text fill="#F2F2F2" font-family="'SourceSansPro-ExtraLight'" font-size="21" letter-spacing="-1" opacity=".5" transform="matrix(1 0 0 .75 158.842 170.255)">Backend</text><path fill="none" stroke="#F2F2F2" stroke-miterlimit="10" d="M85.176 174.255l.009 56.913M199.176 90.422l33.378.044"/><path fill-rule="evenodd" d="M162.176 137.208c0 21.934-17.78 39.714-39.714 39.714h-7.572c-21.934 0-39.714-17.78-39.714-39.714V93.636c0-21.934 17.78-39.714 39.714-39.714h7.572c21.934 0 39.714 17.78 39.714 39.714v43.572z" clip-rule="evenodd" opacity=".3"/><g><linearGradient id="b" x1="85.176" x2="151.176" y1="114.922" y2="114.922" gradientUnits="userSpaceOnUse"><stop offset="0" stop-color="#fff"/><stop offset="1" stop-color="#e6e6e6"/></linearGradient><path fill="url(#b)" fill-rule="evenodd" d="M120.904 63.922h-5.457c-16.719 0-30.271 14.785-30.271 33.023v35.953c0 18.238 13.553 33.023 30.271 33.023h5.457c16.719 0 30.271-14.785 30.271-33.023V96.945c.001-18.238-13.552-33.023-30.271-33.023zm4.147 15.187c0 3.199-2.835 5.813-5.768 5.813h-.382c-2.933 0-5.726-2.593-5.726-5.792v-.416c0-3.199 2.793-5.792 5.726-5.792h.382c2.933 0 5.643 2.363 5.643 5.563l.125.624z" clip-rule="evenodd"/></g><g fill="#FFF" fill-rule="evenodd" clip-rule="evenodd"><path d="M140.176 34.922a3 3 0 0 1-3 3h-20a3 3 0 1 1 0-6h20a3 3 0 0 1 3 3zM114.869 25.92a3.149 3.149 0 0 0-.912-2.359l-9.221-9.22a3.16 3.16 0 0 0-4.467 4.467l7.115 7.114-7.115 7.114a3.16 3.16 0 0 0 0 4.466 3.161 3.161 0 0 0 4.467.001l9.221-9.22a3.15 3.15 0 0 0 .912-2.363z"/></g></svg>