<?xml version="1.0" encoding="utf-8"?>
<!-- Generator: Adobe Illustrator 16.0.0, SVG Export Plug-In . SVG Version: 6.00 Build 0)  -->
<!DOCTYPE svg PUBLIC "-//W3C//DTD SVG 1.1//EN" "http://www.w3.org/Graphics/SVG/1.1/DTD/svg11.dtd">
<svg version="1.1" id="Calque_1" xmlns="http://www.w3.org/2000/svg" xmlns:xlink="http://www.w3.org/1999/xlink" x="0px" y="0px"
	 width="446px" height="446px" viewBox="0 0 446 446" enable-background="new 0 0 446 446" xml:space="preserve">
<path stroke="#000000" stroke-width="14" stroke-miterlimit="10" d="M390.238,200.673h-40.547H315.72v47.02h74.519
	C378.73,329.98,308.262,393.03,223,393.03c-1.186,0-2.354-0.03-3.534-0.053l84.906-316.645
	c31.444,17.325,56.76,44.405,71.922,77.319h49.166C396.16,70.189,316.608,9.865,222.998,9.865
	c-118.479,0-214.526,95.874-214.526,214.354c0,7.999,0.476,16.426,1.326,23.475h45.965h23.655h43.515v112.847
	c-22.336-16.819-41.098-38.787-53.192-65.824h-49.2C49.835,378.176,129.39,438.5,223.001,438.5
	c118.479,0,214.524-95.874,214.524-214.354c0-7.995-0.474-16.421-1.329-23.474H390.238L390.238,200.673z M171.129,384.783V247.831
	v-3.38v-43.779H55.765C67.271,118.385,137.739,55.333,223,55.333c12.683,0,25.021,1.407,36.906,4.055l-87.124,326.054
	C172.143,385.246,171.129,384.988,171.129,384.783z"/>
</svg>
