<?xml version="1.0" encoding="utf-8"?>
<!-- Generator: Adobe Illustrator 16.0.0, SVG Export Plug-In . SVG Version: 6.00 Build 0)  -->
<!DOCTYPE svg PUBLIC "-//W3C//DTD SVG 1.1//EN" "http://www.w3.org/Graphics/SVG/1.1/DTD/svg11.dtd">
<svg version="1.1" id="Calque_1" xmlns="http://www.w3.org/2000/svg" xmlns:xlink="http://www.w3.org/1999/xlink" x="0px" y="0px"
	 width="445.999px" height="446px" viewBox="98.313 19 445.999 446" enable-background="new 98.313 19 445.999 446"
	 xml:space="preserve">
<linearGradient id="SVGID_1_" gradientUnits="userSpaceOnUse" x1="98.3135" y1="242.0002" x2="544.3125" y2="242.0002">
	<stop  offset="0" style="stop-color:#1EAD98"/>
	<stop  offset="1" style="stop-color:#0060A9"/>
</linearGradient>
<circle fill="url(#SVGID_1_)" cx="321.313" cy="242" r="223"/>
<circle display="none" fill="#0E6E77" cx="321.313" cy="242" r="223"/>
<path fill="#FFFFFF" d="M427.163,227.119H401.5h-21.502v29.762h47.165c-7.283,52.082-51.885,91.99-105.851,91.99
	c-0.75,0-1.491-0.02-2.236-0.034l53.74-200.418c19.902,10.965,35.925,28.106,45.521,48.939h31.12
	c-18.543-52.827-68.897-91.009-128.146-91.009c-74.991,0-135.783,60.683-135.783,135.673c0,5.063,0.301,10.396,0.839,14.859h29.093
	h14.973h27.542v71.426c-14.137-10.646-26.013-24.552-33.667-41.665h-31.141c18.541,52.827,68.895,91.009,128.146,91.009
	c74.99,0,135.781-60.682,135.781-135.673c0-5.062-0.299-10.395-0.84-14.859L427.163,227.119L427.163,227.119z M288.481,343.651
	v-86.683v-2.139v-27.71h-73.019c7.283-52.083,51.885-91.991,105.85-91.991c8.027,0,15.837,0.891,23.36,2.567l-55.145,206.373
	C289.123,343.944,288.481,343.782,288.481,343.651z"/>
</svg>
