<?xml version="1.0" encoding="utf-8"?>
<!-- Generator: Adobe Illustrator 16.0.0, SVG Export Plug-In . SVG Version: 6.00 Build 0)  -->
<!DOCTYPE svg PUBLIC "-//W3C//DTD SVG 1.1//EN" "http://www.w3.org/Graphics/SVG/1.1/DTD/svg11.dtd">
<svg version="1.1" id="Calque_1" xmlns="http://www.w3.org/2000/svg" xmlns:xlink="http://www.w3.org/1999/xlink" x="0px" y="0px"
	 width="640px" height="480px" viewBox="0 0 640 480" enable-background="new 0 0 640 480" xml:space="preserve">
<linearGradient id="SVGID_1_" gradientUnits="userSpaceOnUse" x1="504.2275" y1="228.7791" x2="632.7295" y2="228.7791">
	<stop  offset="0" style="stop-color:#0060A9"/>
	<stop  offset="1" style="stop-color:#1EAD98"/>
</linearGradient>
<path fill="url(#SVGID_1_)" d="M632.729,235.953L504.228,107.451c19.232,26.521,32.83,57.371,39.075,90.828l38.335,38.335
	l-36.921,36.922c-4.08,27.45-13.12,53.271-26.14,76.57L632.729,235.953z"/>
<linearGradient id="SVGID_2_" gradientUnits="userSpaceOnUse" x1="7.604" y1="252.9827" x2="144.127" y2="252.9827">
	<stop  offset="0" style="stop-color:#1EAD98"/>
	<stop  offset="1" style="stop-color:#0060A9"/>
</linearGradient>
<path fill="url(#SVGID_2_)" d="M99.367,284.063L58.696,243.39l39.198-39.197c4.517-28.383,14.33-54.983,28.372-78.803L7.604,244.053
	l136.523,136.522C122.14,352.928,106.477,320.043,99.367,284.063z"/>
<radialGradient id="SVGID_3_" cx="321.126" cy="239.9998" r="182.4065" gradientUnits="userSpaceOnUse">
	<stop  offset="0" style="stop-color:#1EAD98"/>
	<stop  offset="1" style="stop-color:#0060A9"/>
</radialGradient>
<path fill="url(#SVGID_3_)" d="M463.391,220h-34.491H400v40h63.391c-9.788,70-69.733,123.638-142.265,123.638
	c-1.008,0-2.004-0.026-3.006-0.046l72.228-269.367C417.097,128.962,438.632,152,451.53,180h41.826
	c-24.923-71-92.601-122.318-172.23-122.318c-100.79,0-182.495,81.559-182.495,182.348c0,6.804,0.404,13.972,1.128,19.972h39.101
	h20.123H236v95.997C217,341.69,201.038,323,190.75,300h-41.854c24.919,71,92.597,122.317,172.231,122.317
	c100.79,0,182.494-81.558,182.494-182.348c0-6.803-0.401-13.971-1.128-19.971L463.391,220L463.391,220z M277,376.62V260.117v-2.874
	V220h-98.139c9.789-70,69.735-123.639,142.265-123.639c10.788,0,21.285,1.197,31.396,3.451l-74.114,277.37
	C277.862,377.015,277,376.798,277,376.62z"/>
</svg>
