<svg xmlns="http://www.w3.org/2000/svg" width="235.262" height="235.767"><linearGradient id="a" x1="34.527" x2="201.24" y1="34.527" y2="201.24" gradientUnits="userSpaceOnUse"><stop offset="0" stop-color="#ff9c54"/><stop offset="1" stop-color="#ff2a8f"/></linearGradient><circle cx="117.883" cy="117.884" r="117.883" fill="url(#a)" fill-rule="evenodd" clip-rule="evenodd"/><path d="M94.072 159.922l40.283-89.713 97.092 72.449s-2.625 19.688-17.988 43.22c-13.445 20.595-37.166 34.862-37.166 34.862l-82.221-60.818z" opacity=".3"/><path fill="none" stroke="#000" stroke-miterlimit="10" d="M8.697 92.596v28" opacity=".3"/><text font-family="'SourceSansPro-ExtraLight'" font-size="21" letter-spacing="-1" opacity=".5" transform="matrix(1 0 0 .75 10.863 103.929)">NPM</text><path fill="none" stroke="#F2F2F2" stroke-miterlimit="10" d="M159.697 169.596v28" opacity=".3"/><text fill="#FFF" font-family="'SourceSansPro-ExtraLight'" font-size="21" letter-spacing="-1" opacity=".5" transform="matrix(1 0 0 .75 163.197 179.763)">GitHub</text><circle cx="117.884" cy="117.883" r="62" fill-rule="evenodd" clip-rule="evenodd" opacity=".3"/><path fill="none" stroke="#F2F2F2" stroke-miterlimit="10" d="M83.197 175.929l.009 56.913M197.197 92.096l33.378.044"/><g><linearGradient id="b" x1="82.02" x2="153.75" y1="82.019" y2="153.748" gradientUnits="userSpaceOnUse"><stop offset="0" stop-color="#fff"/><stop offset="1" stop-color="#e6e6e6"/></linearGradient><path fill="url(#b)" fill-rule="evenodd" d="M117.884 67.163c-28.012 0-50.72 22.708-50.72 50.72s22.708 50.72 50.72 50.72 50.72-22.708 50.72-50.72-22.708-50.72-50.72-50.72zm27.407 31.37a4.97 4.97 0 1 1 0-9.939 4.97 4.97 0 0 1 0 9.939z" clip-rule="evenodd"/></g><g><circle cx="106.228" cy="27.266" r="5.372" fill="#FFF" fill-rule="evenodd" clip-rule="evenodd"/><circle cx="129.667" cy="16.718" r="5.372" fill="#FFF" fill-rule="evenodd" clip-rule="evenodd"/><circle cx="129.667" cy="36.642" r="5.372" fill="#FFF" fill-rule="evenodd" clip-rule="evenodd"/><path fill="none" stroke="#FFF" stroke-miterlimit="10" stroke-width="3" d="M106.228 27.266l23.439-10.548M129.667 36.642l-23.438-9.376"/></g></svg>