<?xml version="1.0" encoding="utf-8"?>
<!-- Generator: Adobe Illustrator 16.0.0, SVG Export Plug-In . SVG Version: 6.00 Build 0)  -->
<!DOCTYPE svg PUBLIC "-//W3C//DTD SVG 1.1//EN" "http://www.w3.org/Graphics/SVG/1.1/DTD/svg11.dtd">
<svg version="1.1" id="Calque_1" xmlns="http://www.w3.org/2000/svg" xmlns:xlink="http://www.w3.org/1999/xlink" x="0px" y="0px"
	 width="640px" height="480px" viewBox="0 0 640 480" enable-background="new 0 0 640 480" xml:space="preserve">
<radialGradient id="SVGID_1_" cx="320" cy="240.0002" r="282.8427" gradientUnits="userSpaceOnUse">
	<stop  offset="0" style="stop-color:#1EAD98"/>
	<stop  offset="1" style="stop-color:#0060A9"/>
</radialGradient>
<rect y="0" fill="url(#SVGID_1_)" width="640" height="480"/>
<path fill="#FFFFFF" d="M577.729,238.953L449.228,110.451c19.232,26.521,32.83,57.371,39.075,90.828l38.335,38.335l-36.921,36.922
	c-4.08,27.45-13.12,53.271-26.14,76.57L577.729,238.953z"/>
<path fill="#FFFFFF" d="M156.367,279.063l-40.671-40.673l39.198-39.197c4.517-28.383,14.33-54.983,28.372-78.803L64.604,239.053
	l136.523,136.522C179.14,347.928,163.477,315.043,156.367,279.063z"/>
<path fill="#FFFFFF" d="M463.391,220h-34.491H400v40h63.391c-9.788,70-69.733,123.638-142.265,123.638
	c-1.008,0-2.004-0.026-3.006-0.046l72.228-269.367C417.097,128.962,438.632,152,451.53,180h41.826
	c-24.923-71-92.601-122.318-172.23-122.318c-100.79,0-182.495,81.559-182.495,182.348c0,6.804,0.404,13.972,1.128,19.972h39.101
	h20.123H236v95.997C217,341.69,201.038,323,190.75,300h-41.854c24.919,71,92.597,122.317,172.231,122.317
	c100.79,0,182.494-81.558,182.494-182.348c0-6.803-0.401-13.971-1.128-19.971L463.391,220L463.391,220z M277,376.62V260.117v-2.874
	V220h-98.139c9.789-70,69.735-123.639,142.265-123.639c10.788,0,21.285,1.197,31.396,3.451l-74.114,277.37
	C277.862,377.015,277,376.798,277,376.62z"/>
</svg>
