<?xml version="1.0" encoding="utf-8"?>
<!-- Generator: Adobe Illustrator 16.0.0, SVG Export Plug-In . SVG Version: 6.00 Build 0)  -->
<!DOCTYPE svg PUBLIC "-//W3C//DTD SVG 1.1//EN" "http://www.w3.org/Graphics/SVG/1.1/DTD/svg11.dtd">
<svg version="1.1" id="Calque_1" xmlns="http://www.w3.org/2000/svg" xmlns:xlink="http://www.w3.org/1999/xlink" x="0px" y="0px"
	 width="640px" height="480px" viewBox="0 0 640 480" enable-background="new 0 0 640 480" xml:space="preserve">
<g>
	<path fill="#FFFFFF" d="M632.729,235.953L504.227,107.451c19.233,26.522,32.831,57.372,39.076,90.829l38.335,38.335l-36.921,36.921
		c-4.08,27.451-13.12,53.271-26.14,76.571L632.729,235.953z"/>
	<path fill="#FFFFFF" d="M99.367,284.063l-40.671-40.673l39.198-39.197c4.517-28.383,14.33-54.984,28.372-78.803L7.604,244.053
		l136.523,136.523C122.14,352.928,106.477,320.043,99.367,284.063z"/>
</g>
<path fill="#FFFFFF" d="M463.391,220h-34.492H400v40h63.391c-9.789,70-69.734,123.638-142.265,123.638
	c-1.008,0-2.004-0.026-3.006-0.046l72.228-269.367C417.097,128.962,438.632,152,451.53,180h41.826
	c-24.922-71-92.6-122.318-172.23-122.318c-100.79,0-182.495,81.559-182.495,182.348c0,6.803,0.404,13.971,1.128,19.971h39.101
	h20.123H236v95.998C217,341.69,201.038,323,190.75,300h-41.854c24.919,71,92.597,122.318,172.231,122.318
	c100.79,0,182.494-81.558,182.494-182.348c0-6.803-0.401-13.971-1.128-19.971H463.391z M277,376.621V260.117v-2.874V220h-98.139
	c9.789-70,69.735-123.638,142.265-123.638c10.788,0,21.285,1.197,31.395,3.451l-74.114,277.37
	C277.862,377.015,277,376.798,277,376.621z"/>
</svg>
