<svg xmlns="http://www.w3.org/2000/svg" width="235.767" height="235.062"><linearGradient id="c" x1="34.528" x2="201.239" y1="34.528" y2="201.239" gradientUnits="userSpaceOnUse"><stop offset="0" stop-color="#e16ad6"/><stop offset="1" stop-color="#200054"/></linearGradient><circle cx="117.884" cy="117.883" r="117.884" fill="url(#c)" fill-rule="evenodd" clip-rule="evenodd"/><path d="M117.882 178.254l30.869-104.971 85.773 61.736s-2.35 23.402-19.088 49.184c-15.836 24.395-42.813 38.107-42.813 38.107l-54.741-44.056z" opacity=".3"/><path fill="none" stroke="#000" stroke-miterlimit="10" d="M10.275 104.516v28" opacity=".3"/><text font-family="'SourceSansPro-ExtraLight'" font-size="21" letter-spacing="-1" opacity=".5" transform="matrix(1 0 0 .75 14.176 115.088)">User</text><text font-family="'SourceSansPro-ExtraLight'" font-size="21" letter-spacing="-1" opacity=".5" transform="matrix(1 0 0 .75 12.842 129.254)">Expérience</text><path fill="none" stroke="#F2F2F2" stroke-miterlimit="10" d="M156.275 145.516v28" opacity=".3"/><text fill="#FFF" font-family="'SourceSansPro-ExtraLight'" font-size="21" letter-spacing="-1" opacity=".5" transform="matrix(1 0 0 .75 160.175 156.088)">Design</text><text fill="#F2F2F2" font-family="'SourceSansPro-ExtraLight'" font-size="21" letter-spacing="-1" opacity=".5" transform="matrix(1 0 0 .75 158.842 170.254)">System</text><path d="M117.876 45.51c-28.313 0-51.346 20.795-51.346 46.352 0 9.975 3.464 19.479 10.016 27.482 6.824 8.34 11.081 18.156 12.308 28.395.566 4.73 4.154 8.51 8.906 9.936v10.41c0 7.307 4.84 13.582 11.746 16.461 0 .047-.016.088-.016.135 0 4.184 3.758 7.574 8.393 7.574 4.636 0 8.395-3.391 8.395-7.574 0-.047-.016-.088-.016-.135 6.91-2.879 11.744-9.154 11.744-16.461v-10.41c4.754-1.428 8.34-5.209 8.908-9.941 1.225-10.234 5.48-20.055 12.305-28.391 6.553-8.004 10.018-17.506 10.018-27.48-.001-25.558-23.04-46.353-51.361-46.353z" opacity=".3"/><g fill="#FFF"><circle cx="96.051" cy="23.547" r="4.625" opacity=".5"/><circle cx="117.55" cy="23.547" r="4.625" opacity=".8"/><circle cx="139.05" cy="23.547" r="4.625"/></g><path fill="none" stroke="#F2F2F2" stroke-miterlimit="10" d="M85.176 174.254l.009 56.914M199.175 90.422l33.379.043"/><g><linearGradient id="d" x1="83.108" x2="152.659" y1="76.513" y2="146.064" gradientUnits="userSpaceOnUse"><stop offset="0" stop-color="#fff"/><stop offset="1" stop-color="#e6e6e6"/></linearGradient><path fill="url(#d)" d="M117.878 57.51c-21.028 0-38.135 17.109-38.135 38.139 0 8.207 2.573 16.027 7.438 22.613 5.068 6.863 8.23 14.939 9.141 23.363.421 3.893 3.085 7.002 6.614 8.176v8.564c0 6.014 3.595 11.176 8.725 13.547 0 .037-.012.07-.012.109a6.231 6.231 0 0 0 6.232 6.232 6.232 6.232 0 0 0 6.234-6.232c0-.039-.012-.072-.012-.109 5.133-2.371 8.723-7.533 8.723-13.547v-8.564c3.531-1.176 6.195-4.287 6.617-8.18.908-8.422 4.07-16.502 9.139-23.361 4.867-6.586 7.439-14.404 7.439-22.611.002-21.029-17.109-38.139-38.143-38.139zm.297 105.412a5 5 0 1 1 0-10 5 5 0 0 1 0 10z"/></g></svg>