<?xml version="1.0" standalone="no"?>
<!DOCTYPE svg PUBLIC "-//W3C//DTD SVG 20010904//EN"
 "http://www.w3.org/TR/2001/REC-SVG-20010904/DTD/svg10.dtd">
<svg version="1.0" xmlns="http://www.w3.org/2000/svg"
 width="700.000000pt" height="700.000000pt" viewBox="0 0 700.000000 700.000000"
 preserveAspectRatio="xMidYMid meet">
<metadata>
Created by potrace 1.11, written by Peter Selinger 2001-2013
</metadata>
<g transform="translate(0.000000,700.000000) scale(0.100000,-0.100000)"
fill="#000000" stroke="none">
<path d="M3417 6954 c-1 -1 -58 -4 -127 -7 -217 -11 -429 -43 -661 -102 -376
-96 -812 -295 -1109 -508 -101 -72 -192 -140 -216 -162 -12 -11 -47 -40 -78
-65 -151 -123 -435 -438 -578 -640 -351 -500 -571 -1118 -615 -1730 -9 -118
-9 -410 0 -510 12 -143 18 -205 22 -216 2 -7 266 -10 875 -10 480 1 876 -2
881 -5 5 -3 8 -296 7 -715 l-3 -709 -95 95 c-218 217 -355 407 -488 675 -35
72 -66 132 -69 135 -7 7 -984 6 -989 -2 -2 -3 10 -44 27 -90 157 -423 308
-709 528 -998 165 -217 400 -459 596 -614 33 -26 69 -55 80 -64 44 -36 266
-182 355 -235 156 -90 406 -209 550 -259 72 -25 265 -86 293 -93 12 -3 60 -14
107 -25 118 -27 191 -41 350 -65 189 -28 689 -27 890 1 35 5 237 40 275 48 11
2 76 18 145 36 591 149 1150 468 1580 900 175 175 305 329 405 480 28 41 52
77 55 80 3 3 37 56 74 119 126 211 231 438 310 673 46 135 110 376 121 458 4
25 10 63 15 85 4 22 11 67 15 100 4 32 9 68 11 80 28 141 21 688 -12 843 l-4
22 -228 0 c-1248 1 -1855 -1 -1860 -4 -6 -3 -8 -921 -3 -947 0 -3 253 -5 562
-5 308 1 566 -2 571 -6 8 -4 8 -22 -1 -60 -186 -860 -821 -1572 -1656 -1858
-185 -63 -406 -111 -575 -125 -41 -3 -94 -8 -118 -11 -42 -5 -42 -4 -36 23 6
25 42 160 136 513 17 63 41 153 53 200 13 47 51 189 85 315 34 127 84 311 110
410 27 99 52 191 56 205 21 79 148 553 175 655 55 209 76 285 137 515 34 124
70 261 82 305 12 44 37 136 55 205 127 471 207 767 210 780 2 8 14 56 28 105
13 50 45 171 72 270 26 99 49 182 51 183 5 7 158 -100 249 -173 288 -233 534
-544 691 -872 46 -97 51 -103 79 -103 172 -3 958 0 961 3 6 6 -88 261 -143
387 -248 574 -687 1107 -1206 1465 -65 45 -69 48 -204 130 -360 222 -829 390
-1253 450 -135 19 -173 23 -275 31 -77 5 -323 12 -328 8z m248 -938 c104 -7
162 -13 230 -25 48 -8 48 -6 7 -161 -17 -63 -47 -173 -66 -245 -18 -71 -44
-166 -56 -210 -32 -121 -152 -569 -220 -825 -15 -58 -40 -150 -55 -205 -14
-55 -28 -107 -30 -115 -3 -8 -34 -125 -70 -260 -36 -135 -68 -252 -70 -260 -5
-22 -218 -821 -260 -975 -19 -71 -71 -265 -115 -430 -44 -165 -97 -362 -117
-437 -20 -76 -39 -138 -42 -138 -3 0 -6 500 -6 1111 0 611 -3 1113 -7 1115 -4
3 -406 5 -893 5 -761 -1 -885 1 -885 13 0 22 28 140 55 231 157 534 489 1000
955 1342 131 96 353 219 515 286 106 44 307 105 430 131 164 34 264 46 435 53
80 3 147 7 149 9 2 2 7 2 10 0 3 -2 51 -6 106 -10z"/>
</g>
</svg>
