<?xml version="1.0" encoding="utf-8"?>
<!-- Generator: Adobe Illustrator 16.0.0, SVG Export Plug-In . SVG Version: 6.00 Build 0)  -->
<!DOCTYPE svg PUBLIC "-//W3C//DTD SVG 1.1//EN" "http://www.w3.org/Graphics/SVG/1.1/DTD/svg11.dtd">
<svg version="1.1" id="Calque_1" xmlns="http://www.w3.org/2000/svg" xmlns:xlink="http://www.w3.org/1999/xlink" x="0px" y="0px"
	 width="512px" height="512px" viewBox="0 0 512 512" enable-background="new 0 0 512 512" xml:space="preserve">
<g>
	<path d="M255.752,5.25L19.682,88.328l37.306,309.288L256.003,507l200.039-110.864l37.292-309.278L255.752,5.25z M255.197,480.865
		l-177.06-98.204l-31.965-276.61l209.024-74.505V480.865z M435.034,381.34L255.2,480.865V31.555l214.587,73.178L435.034,381.34z"/>
	<g>
		<polygon points="254.892,255.158 257.179,255.158 254.78,255.077 211.728,255.077 255.172,152.026 
			255.171,152.022 254.78,47.919 108.826,372.615 163.262,371.605 192.527,298.408 254.783,298.408 254.921,298.344 254.78,298.344 
					"/>
		<polygon points="254.787,47.927 254.782,47.917 254.78,47.913 254.78,47.919 255.171,152.022 255.172,152.026 
			304.471,255.158 257.179,255.158 254.892,255.158 254.78,298.344 254.921,298.344 323.335,298.408 355.377,372.627 
			407.46,373.592 		"/>
	</g>
</g>
</svg>
