<?xml version="1.0" encoding="utf-8"?>
<!-- Generator: Adobe Illustrator 16.0.0, SVG Export Plug-In . SVG Version: 6.00 Build 0)  -->
<!DOCTYPE svg PUBLIC "-//W3C//DTD SVG 1.1//EN" "http://www.w3.org/Graphics/SVG/1.1/DTD/svg11.dtd">
<svg version="1.1" id="Calque_1" xmlns="http://www.w3.org/2000/svg" xmlns:xlink="http://www.w3.org/1999/xlink" x="0px" y="0px"
	 width="244.909px" height="205.703px" viewBox="0 0 244.909 205.703" enable-background="new 0 0 244.909 205.703"
	 xml:space="preserve">
<g>
	<g opacity="0.67">
		<polygon fill="#201F45" points="122.457,205.703 0,135.002 122.453,64.305 244.909,135.004 		"/>
	</g>
	<g opacity="0.67">
		<polygon fill="#201F45" points="122.456,194.738 18.991,135.002 122.453,75.269 225.917,135.004 		"/>
	</g>
	<g opacity="0.9">
		<polygon fill="#1C1D3D" points="122.456,181.999 41.057,135.003 122.453,88.009 203.852,135.004 		"/>
	</g>
</g>
<g>
	<g>
		<polygon opacity="0.5" fill="#6DC4CA" points="135.303,6.543 127.093,1.803 127.093,0 135.303,4.741 		"/>
		<polygon opacity="0.5" fill="#6DC4CA" points="139.514,8.975 136.558,7.268 136.558,5.465 139.514,7.171 		"/>
		<polygon opacity="0.5" fill="#6DC4CA" points="142.777,10.859 140.768,9.699 140.768,7.896 142.777,9.056 		"/>
		<polygon opacity="0.5" fill="#6DC4CA" points="131.567,8.505 127.093,5.922 127.093,4.119 131.567,6.702 		"/>
		<polygon opacity="0.5" fill="#6DC4CA" points="138.303,12.395 132.821,9.229 132.821,7.426 138.303,10.591 		"/>
		<polygon opacity="0.5" fill="#6DC4CA" points="141.567,14.279 139.558,13.119 139.558,11.316 141.567,12.476 		"/>
		<polygon opacity="0.5" fill="#6DC4CA" points="144.672,16.072 142.664,14.912 142.664,13.109 144.672,14.269 		"/>
		<polygon fill="#6DC4CA" points="130.33,11.91 127.093,10.041 127.093,8.238 130.33,10.107 		"/>
		<polygon fill="#6DC4CA" points="132.69,13.273 131.583,12.634 131.583,10.831 132.69,11.47 		"/>
		<polygon opacity="0.5" fill="#6DC4CA" points="135.954,15.157 133.945,13.997 133.945,12.194 135.954,13.354 		"/>
		<polygon opacity="0.5" fill="#6DC4CA" points="139.041,21.058 127.093,14.16 127.093,12.357 139.041,19.255 		"/>
		<polygon opacity="0.5" fill="#6DC4CA" points="143.251,23.489 140.294,21.782 140.294,19.979 143.251,21.686 		"/>
		<polygon opacity="0.5" fill="#6DC4CA" points="130.33,20.148 127.093,18.279 127.093,16.476 130.33,18.345 		"/>
		<polygon opacity="0.5" fill="#6DC4CA" points="137.926,24.534 131.583,20.872 131.583,19.069 137.926,22.731 		"/>
		<polygon opacity="0.5" fill="#6DC4CA" points="141.189,26.418 139.181,25.258 139.181,23.455 141.189,24.615 		"/>
		<polygon opacity="0.5" fill="#6DC4CA" points="133.716,26.222 127.093,22.398 127.093,20.595 133.716,24.418 		"/>
		<polygon fill="#6DC4CA" points="139.759,29.711 134.97,26.946 134.97,25.143 139.759,27.908 		"/>
		<polygon opacity="0.5" fill="#6DC4CA" points="144.251,32.304 141.014,30.436 141.014,28.632 144.251,30.501 		"/>
		<polygon opacity="0.5" fill="#6DC4CA" points="129.33,27.809 127.093,26.517 127.093,24.714 129.33,26.005 		"/>
		<polygon opacity="0.5" fill="#6DC4CA" points="133.541,30.24 130.583,28.533 130.583,26.729 133.541,28.437 		"/>
		<polygon opacity="0.5" fill="#6DC4CA" points="139.558,33.714 134.794,30.964 134.794,29.161 139.558,31.911 		"/>
		<polygon opacity="0.5" fill="#6DC4CA" points="133.945,34.592 127.093,30.636 127.093,28.833 133.945,32.789 		"/>
		<polygon opacity="0.5" fill="#6DC4CA" points="141.62,39.023 135.199,35.316 135.199,33.513 141.62,37.22 		"/>
		<polygon fill="#6DC4CA" points="144.882,40.907 142.874,39.747 142.874,37.944 144.882,39.104 		"/>
		<polygon opacity="0.5" fill="#6DC4CA" points="148.014,42.715 146.005,41.555 146.005,39.752 148.014,40.912 		"/>
		<polygon opacity="0.5" fill="#6DC4CA" points="131.198,37.125 127.093,34.755 127.093,32.952 131.198,35.322 		"/>
		<polygon fill="#6DC4CA" points="148.368,14.086 154.06,17.373 154.06,15.57 148.368,12.283 		"/>
		<polygon opacity="0.5" fill="#6DC4CA" points="149.586,18.909 154.06,21.492 154.06,19.689 149.586,17.106 		"/>
		<polygon opacity="0.5" fill="#6DC4CA" points="150.824,23.742 154.06,25.611 154.06,23.808 150.824,21.939 		"/>
		<polygon opacity="0.5" fill="#6DC4CA" points="149.352,27.012 154.06,29.73 154.06,27.927 149.352,25.208 		"/>
		<polygon opacity="0.5" fill="#6DC4CA" points="150.824,31.98 154.06,33.849 154.06,32.046 150.824,30.177 		"/>
		<polygon opacity="0.5" fill="#6DC4CA" points="149.956,35.598 154.06,37.968 154.06,36.165 149.956,33.794 		"/>
		<polygon opacity="0.5" fill="#6DC4CA" points="151.824,40.795 154.06,42.087 154.06,40.284 151.824,38.992 		"/>
		<polygon opacity="0.5" fill="#6DC4CA" points="149.726,43.704 154.06,46.206 154.06,44.403 149.726,41.9 		"/>
		<polygon opacity="0.5" fill="#6DC4CA" points="149.956,47.955 154.06,50.325 154.06,48.522 149.956,46.151 		"/>
		<polygon opacity="0.5" fill="#6DC4CA" points="134.198,38.857 132.453,37.85 132.453,36.046 134.198,37.054 		"/>
		<polygon opacity="0.5" fill="#6DC4CA" points="139.382,41.851 135.453,39.582 135.453,37.778 139.382,40.047 		"/>
		<polygon opacity="0.5" fill="#6DC4CA" points="167.143,24.855 158.932,20.115 158.932,18.312 167.143,23.052 		"/>
		<polygon opacity="0.5" fill="#6DC4CA" points="171.353,27.287 168.397,25.58 168.397,23.777 171.353,25.483 		"/>
		<polygon fill="#6DC4CA" points="174.617,29.17 172.608,28.011 172.608,26.208 174.617,27.368 		"/>
		<polygon opacity="0.5" fill="#6DC4CA" points="163.406,26.817 158.932,24.234 158.932,22.431 163.406,25.014 		"/>
		<polygon opacity="0.5" fill="#6DC4CA" points="170.143,30.707 164.661,27.541 164.661,25.738 170.143,28.903 		"/>
		<polygon fill="#6DC4CA" points="173.406,32.59 171.397,31.431 171.397,29.627 173.406,30.788 		"/>
		<polygon opacity="0.5" fill="#6DC4CA" points="176.511,34.383 174.502,33.224 174.502,31.42 176.511,32.581 		"/>
		<polygon opacity="0.5" fill="#6DC4CA" points="162.169,30.222 158.932,28.353 158.932,26.55 162.169,28.418 		"/>
		<polygon opacity="0.5" fill="#6DC4CA" points="164.53,31.584 163.423,30.946 163.423,29.143 164.53,29.782 		"/>
		<polygon opacity="0.5" fill="#6DC4CA" points="167.793,33.469 165.785,32.309 165.785,30.506 167.793,31.666 		"/>
		<polygon opacity="0.5" fill="#6DC4CA" points="170.879,39.37 158.932,32.472 158.932,30.669 170.879,37.567 		"/>
		<polygon opacity="0.5" fill="#6DC4CA" points="175.09,41.801 172.134,40.094 172.134,38.291 175.09,39.998 		"/>
		<polygon opacity="0.5" fill="#6DC4CA" points="162.169,38.459 158.932,36.591 158.932,34.788 162.169,36.657 		"/>
		<polygon opacity="0.5" fill="#6DC4CA" points="169.766,42.846 163.423,39.184 163.423,37.381 169.766,41.042 		"/>
		<polygon opacity="0.5" fill="#6DC4CA" points="173.029,44.73 171.02,43.57 171.02,41.767 173.029,42.927 		"/>
		<polygon fill="#6DC4CA" points="165.555,44.534 158.932,40.71 158.932,38.907 165.555,42.73 		"/>
		<polygon opacity="0.5" fill="#6DC4CA" points="171.599,48.023 166.81,45.258 166.81,43.455 171.599,46.22 		"/>
		<polygon opacity="0.5" fill="#6DC4CA" points="176.09,50.616 172.853,48.748 172.853,46.944 176.09,48.813 		"/>
		<polygon opacity="0.5" fill="#6DC4CA" points="161.169,46.121 158.932,44.829 158.932,43.026 161.169,44.317 		"/>
		<polygon opacity="0.5" fill="#6DC4CA" points="165.379,48.551 162.423,46.845 162.423,45.042 165.379,46.748 		"/>
		<polygon fill="#6DC4CA" points="171.397,52.026 166.634,49.276 166.634,47.473 171.397,50.223 		"/>
		<polygon opacity="0.5" fill="#6DC4CA" points="165.785,52.904 158.932,48.948 158.932,47.145 165.785,51.101 		"/>
		<polygon opacity="0.5" fill="#6DC4CA" points="173.458,57.334 167.039,53.628 167.039,51.825 173.458,55.532 		"/>
		<polygon opacity="0.5" fill="#6DC4CA" points="176.722,59.219 174.713,58.059 174.713,56.256 176.722,57.416 		"/>
		<polygon opacity="0.5" fill="#6DC4CA" points="179.853,61.027 177.844,59.867 177.844,58.064 179.853,59.224 		"/>
		<polygon opacity="0.5" fill="#6DC4CA" points="163.038,55.437 158.932,53.067 158.932,51.264 163.038,53.634 		"/>
		<polygon fill="#6DC4CA" points="180.207,32.398 185.9,35.685 185.9,33.882 180.207,30.595 		"/>
		<polygon opacity="0.5" fill="#6DC4CA" points="181.426,37.221 185.9,39.804 185.9,38 181.426,35.418 		"/>
		<polygon opacity="0.5" fill="#6DC4CA" points="182.664,42.054 185.9,43.923 185.9,42.12 182.664,40.251 		"/>
		<polygon opacity="0.5" fill="#6DC4CA" points="181.192,45.324 185.9,48.042 185.9,46.239 181.192,43.521 		"/>
		<polygon opacity="0.5" fill="#6DC4CA" points="182.664,50.292 185.9,52.161 185.9,50.358 182.664,48.489 		"/>
		<polygon opacity="0.5" fill="#6DC4CA" points="181.794,53.91 185.9,56.28 185.9,54.477 181.794,52.106 		"/>
		<polygon opacity="0.5" fill="#6DC4CA" points="183.664,59.107 185.9,60.399 185.9,58.596 183.664,57.304 		"/>
		<polygon opacity="0.5" fill="#6DC4CA" points="181.566,62.015 185.9,64.518 185.9,62.714 181.566,60.212 		"/>
		<polygon opacity="0.5" fill="#6DC4CA" points="181.794,66.267 185.9,68.637 185.9,66.833 181.794,64.463 		"/>
		<polygon fill="#6DC4CA" points="166.038,57.169 164.292,56.162 164.292,54.358 166.038,55.366 		"/>
		<polygon opacity="0.5" fill="#6DC4CA" points="171.222,60.163 167.292,57.894 167.292,56.09 171.222,58.359 		"/>
		<polygon opacity="0.5" fill="#6DC4CA" points="135.303,43.638 127.093,38.898 127.093,37.095 135.303,41.835 		"/>
		<polygon opacity="0.5" fill="#6DC4CA" points="139.514,46.069 136.558,44.363 136.558,42.559 139.514,44.266 		"/>
		<polygon opacity="0.5" fill="#6DC4CA" points="142.777,47.954 140.768,46.793 140.768,44.99 142.777,46.15 		"/>
		<polygon opacity="0.5" fill="#6DC4CA" points="131.567,45.6 127.093,43.017 127.093,41.213 131.567,43.796 		"/>
		<polygon opacity="0.5" fill="#6DC4CA" points="138.303,49.489 132.821,46.324 132.821,44.521 138.303,47.687 		"/>
		<polygon opacity="0.5" fill="#6DC4CA" points="141.567,51.374 139.558,50.213 139.558,48.411 141.567,49.57 		"/>
		<polygon opacity="0.5" fill="#6DC4CA" points="144.672,53.166 142.664,52.006 142.664,50.204 144.672,51.363 		"/>
		<polygon opacity="0.5" fill="#6DC4CA" points="130.33,49.004 127.093,47.136 127.093,45.333 130.33,47.202 		"/>
		<polygon opacity="0.5" fill="#6DC4CA" points="132.69,50.368 131.583,49.729 131.583,47.926 132.69,48.564 		"/>
		<polygon opacity="0.5" fill="#6DC4CA" points="135.954,52.251 133.945,51.092 133.945,49.289 135.954,50.449 		"/>
		<polygon opacity="0.5" fill="#6DC4CA" points="139.041,58.153 127.093,51.255 127.093,49.452 139.041,56.35 		"/>
		<polygon opacity="0.5" fill="#6DC4CA" points="143.251,60.583 140.294,58.877 140.294,57.074 143.251,58.781 		"/>
		<polygon opacity="0.5" fill="#6DC4CA" points="130.33,57.243 127.093,55.374 127.093,53.571 130.33,55.439 		"/>
		<polygon opacity="0.5" fill="#6DC4CA" points="137.926,61.628 131.583,57.967 131.583,56.164 137.926,59.825 		"/>
		<polygon opacity="0.5" fill="#6DC4CA" points="141.189,63.512 139.181,62.353 139.181,60.549 141.189,61.709 		"/>
		<polygon opacity="0.5" fill="#6DC4CA" points="133.716,63.316 127.093,59.493 127.093,57.689 133.716,61.513 		"/>
		<polygon opacity="0.5" fill="#6DC4CA" points="139.759,66.806 134.97,64.041 134.97,62.238 139.759,65.003 		"/>
		<polygon opacity="0.5" fill="#6DC4CA" points="144.251,69.399 141.014,67.53 141.014,65.727 144.251,67.596 		"/>
		<polygon opacity="0.5" fill="#6DC4CA" points="129.33,64.903 127.093,63.612 127.093,61.809 129.33,63.1 		"/>
		<polygon opacity="0.5" fill="#6DC4CA" points="133.541,67.334 130.583,65.627 130.583,63.824 133.541,65.531 		"/>
		<polygon opacity="0.5" fill="#6DC4CA" points="139.558,70.809 134.794,68.058 134.794,66.255 139.558,69.005 		"/>
		<polygon opacity="0.5" fill="#6DC4CA" points="133.945,71.687 127.093,67.731 127.093,65.928 133.945,69.883 		"/>
		<polygon opacity="0.5" fill="#6DC4CA" points="141.62,76.118 135.199,72.411 135.199,70.608 141.62,74.314 		"/>
		<polygon opacity="0.5" fill="#6DC4CA" points="144.882,78.001 142.874,76.842 142.874,75.039 144.882,76.199 		"/>
		<polygon opacity="0.5" fill="#6DC4CA" points="148.014,79.81 146.005,78.65 146.005,76.847 148.014,78.006 		"/>
		<polygon opacity="0.5" fill="#6DC4CA" points="131.198,74.22 127.093,71.85 127.093,70.046 131.198,72.417 		"/>
		<polygon opacity="0.5" fill="#6DC4CA" points="148.368,51.181 154.06,54.468 154.06,52.665 148.368,49.377 		"/>
		<polygon opacity="0.5" fill="#6DC4CA" points="149.586,56.004 154.06,58.586 154.06,56.784 149.586,54.201 		"/>
		<polygon opacity="0.5" fill="#6DC4CA" points="150.824,60.837 154.06,62.706 154.06,60.903 150.824,59.034 		"/>
		<polygon opacity="0.5" fill="#6DC4CA" points="149.352,64.106 154.06,66.825 154.06,65.021 149.352,62.303 		"/>
		<polygon opacity="0.5" fill="#6DC4CA" points="150.824,69.075 154.06,70.944 154.06,69.141 150.824,67.272 		"/>
		<polygon opacity="0.5" fill="#6DC4CA" points="149.956,72.692 154.06,75.063 154.06,73.259 149.956,70.889 		"/>
		<polygon opacity="0.5" fill="#6DC4CA" points="151.824,77.89 154.06,79.182 154.06,77.378 151.824,76.087 		"/>
		<polygon opacity="0.5" fill="#6DC4CA" points="149.726,80.798 154.06,83.3 154.06,81.498 149.726,78.995 		"/>
		<polygon opacity="0.5" fill="#6DC4CA" points="149.956,85.049 154.06,87.419 154.06,85.616 149.956,83.246 		"/>
		<polygon opacity="0.5" fill="#6DC4CA" points="134.198,75.952 132.453,74.944 132.453,73.141 134.198,74.149 		"/>
		<polygon opacity="0.5" fill="#6DC4CA" points="139.382,78.945 135.453,76.676 135.453,74.873 139.382,77.142 		"/>
		<polygon opacity="0.5" fill="#6DC4CA" points="142.633,92.8 136.001,88.972 136.001,87.168 142.633,90.998 		"/>
		<polygon opacity="0.5" fill="#6DC4CA" points="147.175,95.422 144.563,93.915 144.563,92.112 147.175,93.62 		"/>
		<polygon opacity="0.5" fill="#6DC4CA" points="167.143,61.95 158.932,57.209 158.932,55.407 167.143,60.147 		"/>
		<polygon opacity="0.5" fill="#6DC4CA" points="171.353,64.381 168.397,62.674 168.397,60.872 171.353,62.578 		"/>
		<polygon opacity="0.5" fill="#6DC4CA" points="174.617,66.265 172.608,65.105 172.608,63.302 174.617,64.462 		"/>
		<polygon opacity="0.5" fill="#6DC4CA" points="163.406,63.912 158.932,61.329 158.932,59.526 163.406,62.108 		"/>
		<polygon opacity="0.5" fill="#6DC4CA" points="170.143,67.801 164.661,64.636 164.661,62.833 170.143,65.998 		"/>
		<polygon opacity="0.5" fill="#6DC4CA" points="173.406,69.685 171.397,68.525 171.397,66.722 173.406,67.882 		"/>
		<polygon opacity="0.5" fill="#6DC4CA" points="176.511,71.478 174.502,70.318 174.502,68.515 176.511,69.675 		"/>
		<polygon opacity="0.5" fill="#6DC4CA" points="162.169,67.316 158.932,65.448 158.932,63.645 162.169,65.513 		"/>
		<polygon opacity="0.5" fill="#6DC4CA" points="164.53,68.679 163.423,68.041 163.423,66.238 164.53,66.876 		"/>
		<polygon opacity="0.5" fill="#6DC4CA" points="167.793,70.563 165.785,69.404 165.785,67.601 167.793,68.76 		"/>
		<polygon opacity="0.5" fill="#6DC4CA" points="170.879,76.464 158.932,69.567 158.932,67.763 170.879,74.662 		"/>
		<polygon opacity="0.5" fill="#6DC4CA" points="175.09,78.896 172.134,77.189 172.134,75.386 175.09,77.092 		"/>
		<polygon opacity="0.5" fill="#6DC4CA" points="162.169,75.554 158.932,73.686 158.932,71.882 162.169,73.751 		"/>
		<polygon opacity="0.5" fill="#6DC4CA" points="169.766,79.94 163.423,76.279 163.423,74.476 169.766,78.137 		"/>
		<polygon opacity="0.5" fill="#6DC4CA" points="173.029,81.824 171.02,80.665 171.02,78.861 173.029,80.021 		"/>
		<polygon opacity="0.5" fill="#6DC4CA" points="165.555,81.628 158.932,77.805 158.932,76.001 165.555,79.825 		"/>
		<polygon opacity="0.5" fill="#6DC4CA" points="171.599,85.118 166.81,82.353 166.81,80.549 171.599,83.315 		"/>
		<polygon opacity="0.5" fill="#6DC4CA" points="176.09,87.71 172.853,85.842 172.853,84.039 176.09,85.908 		"/>
		<polygon opacity="0.5" fill="#6DC4CA" points="161.169,83.215 158.932,81.923 158.932,80.121 161.169,81.412 		"/>
		<polygon opacity="0.5" fill="#6DC4CA" points="165.379,85.646 162.423,83.939 162.423,82.136 165.379,83.843 		"/>
		<polygon opacity="0.5" fill="#6DC4CA" points="171.397,89.121 166.634,86.37 166.634,84.567 171.397,87.317 		"/>
		<polygon opacity="0.5" fill="#6DC4CA" points="165.785,89.999 158.932,86.042 158.932,84.239 165.785,88.196 		"/>
		<polygon opacity="0.5" fill="#6DC4CA" points="173.458,94.429 167.039,90.723 167.039,88.919 173.458,92.626 		"/>
		<polygon opacity="0.5" fill="#6DC4CA" points="176.722,96.314 174.713,95.154 174.713,93.35 176.722,94.51 		"/>
		<polygon opacity="0.5" fill="#6DC4CA" points="179.853,98.122 177.844,96.961 177.844,95.159 179.853,96.318 		"/>
		<polygon opacity="0.5" fill="#6DC4CA" points="163.038,92.532 158.932,90.162 158.932,88.359 163.038,90.729 		"/>
		<polygon opacity="0.5" fill="#6DC4CA" points="180.207,69.493 185.9,72.78 185.9,70.977 180.207,67.689 		"/>
		<polygon opacity="0.5" fill="#6DC4CA" points="181.426,74.315 185.9,76.898 185.9,75.095 181.426,72.512 		"/>
		<polygon opacity="0.5" fill="#6DC4CA" points="182.664,79.149 185.9,81.018 185.9,79.214 182.664,77.346 		"/>
		<polygon opacity="0.5" fill="#6DC4CA" points="181.192,82.418 185.9,85.136 185.9,83.333 181.192,80.615 		"/>
		<polygon opacity="0.5" fill="#6DC4CA" points="182.664,87.386 185.9,89.255 185.9,87.453 182.664,85.583 		"/>
		<polygon opacity="0.5" fill="#6DC4CA" points="181.794,91.004 185.9,93.375 185.9,91.572 181.794,89.201 		"/>
		<polygon opacity="0.5" fill="#6DC4CA" points="183.664,96.202 185.9,97.494 185.9,95.69 183.664,94.399 		"/>
		<polygon opacity="0.5" fill="#6DC4CA" points="181.566,99.11 185.9,101.613 185.9,99.809 181.566,97.307 		"/>
		<polygon opacity="0.5" fill="#6DC4CA" points="181.794,103.361 185.9,105.731 185.9,103.928 181.794,101.558 		"/>
		<polygon opacity="0.5" fill="#6DC4CA" points="166.038,94.264 164.292,93.255 164.292,91.453 166.038,92.46 		"/>
		<polygon opacity="0.5" fill="#6DC4CA" points="171.222,97.257 167.292,94.988 167.292,93.185 171.222,95.454 		"/>
		<polygon opacity="0.5" fill="#6DC4CA" points="174.472,111.113 167.841,107.284 167.841,105.48 174.472,109.309 		"/>
		<polygon opacity="0.5" fill="#6DC4CA" points="179.015,113.735 176.403,112.226 176.403,110.423 179.015,111.931 		"/>
	</g>
	<g>
		<linearGradient id="SVGID_1_" gradientUnits="userSpaceOnUse" x1="50.6685" y1="134.688" x2="136.9126" y2="134.688">
			<stop  offset="0" style="stop-color:#6DC4CA"/>
			<stop  offset="0.1333" style="stop-color:#6BC2CA"/>
			<stop  offset="0.2906" style="stop-color:#67B9C9"/>
			<stop  offset="0.4599" style="stop-color:#61ACC7"/>
			<stop  offset="0.6377" style="stop-color:#5A98C1"/>
			<stop  offset="0.8203" style="stop-color:#547DB7"/>
			<stop  offset="1" style="stop-color:#515DA7"/>
		</linearGradient>
		<path fill="url(#SVGID_1_)" d="M93.792,160.08c-11.423,0-22.162-2.568-30.239-7.232c-8.308-4.797-12.884-11.248-12.884-18.166
			s4.576-13.369,12.884-18.166c16.673-9.626,43.801-9.625,60.476,0.001c8.309,4.797,12.885,11.249,12.885,18.166
			c0,6.918-4.576,13.369-12.884,18.165C115.953,157.511,105.213,160.08,93.792,160.08z M93.79,110.859
			c-10.664,0-21.326,2.343-29.444,7.029c-7.797,4.502-12.091,10.466-12.091,16.793s4.294,12.291,12.091,16.793
			c7.84,4.526,18.298,7.02,29.446,7.02s21.605-2.493,29.444-7.02c7.797-4.501,12.091-10.464,12.091-16.792
			c0-6.327-4.294-12.291-12.092-16.793C115.117,113.203,104.453,110.859,93.79,110.859z"/>
		<g opacity="0.67">
			<path fill="#2C2661" d="M116.033,147.523c-12.284,7.093-32.2,7.093-44.484,0c-12.284-7.092-12.284-18.591-0.001-25.683
				c12.284-7.093,32.2-7.092,44.484,0C128.316,128.933,128.316,140.431,116.033,147.523z"/>
		</g>
		<g>
			<g>
				<linearGradient id="SVGID_2_" gradientUnits="userSpaceOnUse" x1="55.2681" y1="120.9878" x2="132.312" y2="120.9878">
					<stop  offset="0" style="stop-color:#515DA7"/>
					<stop  offset="0.1601" style="stop-color:#5561A9"/>
					<stop  offset="0.3488" style="stop-color:#626BB0"/>
					<stop  offset="0.552" style="stop-color:#777CBB"/>
					<stop  offset="0.7655" style="stop-color:#9496CA"/>
					<stop  offset="0.9849" style="stop-color:#B9B9DE"/>
					<stop  offset="1" style="stop-color:#BCBCDF"/>
				</linearGradient>
				<path fill="url(#SVGID_2_)" d="M132.312,120.987v-8.546h-2.954c-1.88-2.61-4.651-5.057-8.329-7.18
					c-15.044-8.686-39.435-8.686-54.479,0c-3.678,2.123-6.449,4.569-8.329,7.18h-2.953v8.547l0,0
					c0,5.691,3.761,11.384,11.283,15.727c15.044,8.686,39.435,8.686,54.479,0C128.552,132.372,132.313,126.679,132.312,120.987z"/>
				<path fill="#BCBCDF" d="M121.03,128.167c-15.044,8.686-39.435,8.686-54.479,0S51.506,105.4,66.55,96.714s39.435-8.686,54.479,0
					C136.074,105.4,136.074,119.482,121.03,128.167z"/>
			</g>
			<g>
				<path fill="#2C2661" d="M129.367,112.114v-11.666h-2.729c-1.736-2.41-4.297-4.67-7.692-6.631
					c-13.894-8.021-36.419-8.021-50.313,0c-3.396,1.961-5.956,4.22-7.691,6.631h-2.729v11.666l0,0
					c0.001,5.257,3.474,10.514,10.421,14.524c13.894,8.021,36.419,8.021,50.313,0C125.894,122.627,129.367,117.371,129.367,112.114z
					"/>
				<g opacity="0.51">
					<path fill="#454193" d="M129.367,109.305V97.639h-2.729c-1.736-2.41-4.297-4.67-7.692-6.63
						c-13.894-8.022-36.419-8.022-50.313-0.001c-3.396,1.961-5.956,4.221-7.691,6.631h-2.729v11.667l0,0
						c0.001,5.256,3.474,10.513,10.421,14.523c13.894,8.021,36.419,8.021,50.313,0C125.894,119.819,129.367,114.562,129.367,109.305
						z"/>
				</g>
				<path fill="#BCBCDF" d="M118.947,114.972c-13.894,8.021-36.419,8.021-50.313-0.001S54.74,93.945,68.633,85.923
					c13.894-8.021,36.419-8.021,50.313,0C132.839,93.946,132.84,106.951,118.947,114.972z"/>
			</g>
			<g>
				<g opacity="0.51">
					<path fill="#51539F" d="M118.299,115.563c-6.116,7.789-14.181,11.953-21.003,14.181c7.903-0.449,15.597-2.418,21.65-5.914
						c6.947-4.011,10.42-9.268,10.42-14.524v-3.485C125.771,107.833,121.956,110.906,118.299,115.563z"/>
				</g>
				<linearGradient id="SVGID_3_" gradientUnits="userSpaceOnUse" x1="55.2681" y1="100.2622" x2="132.312" y2="100.2622">
					<stop  offset="0" style="stop-color:#515DA7"/>
					<stop  offset="0.1601" style="stop-color:#5561A9"/>
					<stop  offset="0.3488" style="stop-color:#626BB0"/>
					<stop  offset="0.552" style="stop-color:#777CBB"/>
					<stop  offset="0.7655" style="stop-color:#9496CA"/>
					<stop  offset="0.9849" style="stop-color:#B9B9DE"/>
					<stop  offset="1" style="stop-color:#BCBCDF"/>
				</linearGradient>
				<path fill="url(#SVGID_3_)" d="M132.312,100.261v-8.547h-2.954c-1.88-2.609-4.651-5.056-8.329-7.179
					c-15.044-8.686-39.435-8.687-54.479-0.001c-3.678,2.123-6.449,4.57-8.329,7.18h-2.953v8.547l0,0
					c0,5.692,3.761,11.384,11.283,15.727c15.044,8.687,39.435,8.687,54.479,0.001C128.552,111.646,132.313,105.954,132.312,100.261z
					"/>
				<path fill="#BCBCDF" d="M121.03,107.442c-15.044,8.686-39.435,8.686-54.479-0.001c-15.044-8.686-15.045-22.768-0.001-31.453
					s39.435-8.685,54.479,0C136.074,84.674,136.074,98.756,121.03,107.442z"/>
			</g>
			<g>
				<path fill="#2C2661" d="M129.367,90.957V79.292h-2.729c-1.736-2.411-4.297-4.67-7.692-6.631
					c-13.894-8.021-36.419-8.021-50.313,0c-3.396,1.96-5.956,4.22-7.691,6.631h-2.729v11.666l0,0
					c0.001,5.257,3.474,10.514,10.421,14.524c13.894,8.021,36.419,8.021,50.313,0C125.894,101.471,129.367,96.214,129.367,90.957z"
					/>
				<g opacity="0.51">
					<path fill="#454193" d="M129.367,88.289V76.623h-2.729c-1.736-2.41-4.297-4.67-7.692-6.63c-13.894-8.021-36.419-8.021-50.313,0
						c-3.396,1.961-5.956,4.22-7.691,6.631h-2.729V88.29l0,0c0.001,5.256,3.474,10.513,10.421,14.523
						c13.894,8.021,36.419,8.021,50.313,0C125.894,98.802,129.367,93.545,129.367,88.289z"/>
				</g>
				<path fill="#BCBCDF" d="M118.947,93.816c-13.894,8.021-36.419,8.021-50.313-0.001S54.74,72.789,68.633,64.767
					s36.419-8.021,50.313,0S132.84,85.794,118.947,93.816z"/>
			</g>
			<g>
				<g opacity="0.51">
					<path fill="#51539F" d="M118.299,93.311c-7.604,9.685-18.219,13.764-25.713,15.485c9.503,0.185,19.107-1.795,26.36-5.983
						c6.947-4.011,10.42-9.268,10.42-14.524v-4.721C125.771,85.581,121.956,88.654,118.299,93.311z"/>
				</g>
				<linearGradient id="SVGID_4_" gradientUnits="userSpaceOnUse" x1="55.2681" y1="79.105" x2="132.312" y2="79.105">
					<stop  offset="0" style="stop-color:#515DA7"/>
					<stop  offset="0.1601" style="stop-color:#5561A9"/>
					<stop  offset="0.3488" style="stop-color:#626BB0"/>
					<stop  offset="0.552" style="stop-color:#777CBB"/>
					<stop  offset="0.7655" style="stop-color:#9496CA"/>
					<stop  offset="0.9849" style="stop-color:#B9B9DE"/>
					<stop  offset="1" style="stop-color:#BCBCDF"/>
				</linearGradient>
				<path fill="url(#SVGID_4_)" d="M132.312,79.105v-8.547h-2.954c-1.88-2.61-4.651-5.056-8.329-7.179
					c-15.044-8.686-39.435-8.686-54.479,0c-3.678,2.123-6.449,4.57-8.329,7.18h-2.953v8.547l0,0c0,5.692,3.761,11.383,11.283,15.726
					c15.044,8.686,39.435,8.687,54.479,0.001C128.552,90.49,132.313,84.797,132.312,79.105z"/>
				<path fill="#BCBCDF" d="M121.03,86.286c-15.044,8.686-39.435,8.685-54.479,0c-15.044-8.686-15.045-22.768-0.001-31.454
					s39.435-8.686,54.479,0C136.074,63.518,136.074,77.6,121.03,86.286z"/>
			</g>
			<g>
				<path fill="#2C2661" d="M129.367,69.801V58.135h-2.729c-1.736-2.411-4.297-4.67-7.692-6.631
					c-13.894-8.021-36.419-8.021-50.313,0c-3.396,1.961-5.956,4.22-7.691,6.631h-2.729v11.666l0,0
					c0.001,5.257,3.474,10.513,10.421,14.524c13.894,8.022,36.419,8.022,50.313,0C125.894,80.315,129.367,75.058,129.367,69.801z"/>
				<g opacity="0.51">
					<path fill="#454193" d="M129.367,66.537V54.871h-2.729c-1.736-2.41-4.297-4.67-7.692-6.63c-13.894-8.021-36.419-8.022-50.313,0
						c-3.396,1.96-5.956,4.22-7.691,6.631h-2.729v11.667l0,0c0.001,5.256,3.474,10.513,10.421,14.524
						c13.894,8.021,36.419,8.021,50.313,0C125.894,77.05,129.367,71.793,129.367,66.537z"/>
				</g>
				<path fill="#BCBCDF" d="M118.947,72.659c-13.894,8.021-36.419,8.021-50.313,0S54.74,51.632,68.633,43.611
					c13.894-8.021,36.419-8.021,50.313,0S132.84,64.638,118.947,72.659z"/>
			</g>
			<g>
				<linearGradient id="SVGID_5_" gradientUnits="userSpaceOnUse" x1="55.2681" y1="57.9487" x2="132.312" y2="57.9487">
					<stop  offset="0" style="stop-color:#515DA7"/>
					<stop  offset="0.1601" style="stop-color:#5561A9"/>
					<stop  offset="0.3488" style="stop-color:#626BB0"/>
					<stop  offset="0.552" style="stop-color:#777CBB"/>
					<stop  offset="0.7655" style="stop-color:#9496CA"/>
					<stop  offset="0.9849" style="stop-color:#B9B9DE"/>
					<stop  offset="1" style="stop-color:#BCBCDF"/>
				</linearGradient>
				<path fill="url(#SVGID_5_)" d="M132.312,57.948v-8.546h-2.954c-1.88-2.61-4.651-5.057-8.329-7.179
					c-15.044-8.686-39.435-8.686-54.479,0c-3.678,2.123-6.449,4.569-8.329,7.18h-2.953v8.547l0,0
					c0,5.692,3.761,11.384,11.283,15.727c15.044,8.686,39.435,8.686,54.479,0C128.552,69.333,132.313,63.641,132.312,57.948z"/>
				<path fill="#BCBCDF" d="M121.03,65.129c-15.044,8.686-39.435,8.686-54.479,0c-15.044-8.686-15.045-22.768-0.001-31.453
					s39.435-8.686,54.479,0C136.074,42.361,136.074,56.444,121.03,65.129z"/>
				<path fill="#BCBCDF" d="M121.03,65.129c-15.044,8.686-39.435,8.686-54.479,0c-15.044-8.686-15.045-22.768-0.001-31.453
					s39.435-8.686,54.479,0C136.074,42.361,136.074,56.444,121.03,65.129z"/>
			</g>
			<g>
				<g opacity="0.51">
					<path fill="#51539F" d="M118.299,71.059c-8.351,10.636-20.332,14.512-27.822,15.927c10.175,0.546,20.68-1.427,28.47-5.925
						c6.947-4.011,10.42-9.268,10.42-14.524v-5.221C125.771,63.329,121.956,66.401,118.299,71.059z"/>
				</g>
				<linearGradient id="SVGID_6_" gradientUnits="userSpaceOnUse" x1="55.2681" y1="57.9487" x2="132.312" y2="57.9487">
					<stop  offset="0" style="stop-color:#515DA7"/>
					<stop  offset="0.1601" style="stop-color:#5561A9"/>
					<stop  offset="0.3488" style="stop-color:#626BB0"/>
					<stop  offset="0.552" style="stop-color:#777CBB"/>
					<stop  offset="0.7655" style="stop-color:#9496CA"/>
					<stop  offset="0.9849" style="stop-color:#B9B9DE"/>
					<stop  offset="1" style="stop-color:#BCBCDF"/>
				</linearGradient>
				<path fill="url(#SVGID_6_)" d="M132.312,57.948v-8.546h-2.954c-1.88-2.61-4.651-5.057-8.329-7.179
					c-15.044-8.686-39.435-8.686-54.479,0c-3.678,2.123-6.449,4.569-8.329,7.18h-2.953v8.547l0,0
					c0,5.692,3.761,11.384,11.283,15.727c15.044,8.686,39.435,8.686,54.479,0C128.552,69.333,132.313,63.641,132.312,57.948z"/>
				<path fill="#BCBCDF" d="M121.03,65.129c-15.044,8.686-39.435,8.686-54.479,0c-15.044-8.686-15.045-22.768-0.001-31.453
					s39.435-8.686,54.479,0C136.074,42.361,136.074,56.444,121.03,65.129z"/>
				<path fill="#BCBCDF" d="M121.03,65.129c-15.044,8.686-39.435,8.686-54.479,0c-15.044-8.686-15.045-22.768-0.001-31.453
					s39.435-8.686,54.479,0C136.074,42.361,136.074,56.444,121.03,65.129z"/>
				<path fill="#FFFFFF" d="M121.249,64.454c-15.043,8.686-39.435,8.685-54.479,0c-9.213-5.319-12.773-12.661-10.703-19.549
					c-2.52,7.08,0.97,14.731,10.484,20.224c15.044,8.686,39.435,8.686,54.479,0c5.831-3.367,9.392-7.544,10.702-11.904
					C130.267,57.339,126.778,61.262,121.249,64.454z"/>
				<path fill="#FFFFFF" d="M121.249,85.61c-15.043,8.686-39.435,8.685-54.479,0c-9.213-5.319-12.773-12.661-10.703-19.549
					c-2.52,7.08,0.97,14.73,10.484,20.224c15.044,8.685,39.435,8.686,54.479,0c5.831-3.367,9.392-7.545,10.702-11.904
					C130.267,78.496,126.778,82.418,121.249,85.61z"/>
				<path fill="#FFFFFF" d="M121.249,106.767c-15.043,8.686-39.435,8.685-54.479-0.001c-9.213-5.319-12.773-12.661-10.703-19.549
					c-2.52,7.08,0.97,14.73,10.484,20.224c15.044,8.687,39.435,8.687,54.479,0.001c5.831-3.366,9.392-7.545,10.702-11.904
					C130.267,99.652,126.778,103.575,121.249,106.767z"/>
				<path fill="#FFFFFF" d="M121.249,127.923c-15.043,8.686-39.435,8.686-54.479-0.001c-9.213-5.318-12.773-12.661-10.703-19.549
					c-2.52,7.08,0.97,14.731,10.484,20.224c15.044,8.687,39.435,8.687,54.479,0.001c5.831-3.366,9.392-7.545,10.702-11.904
					C130.267,120.808,126.778,124.731,121.249,127.923z"/>
			</g>
			<defs>
				<filter id="Adobe_OpacityMaskFilter" filterUnits="userSpaceOnUse" x="55.269" y="38.116" width="38.522" height="20.625">
					<feFlood  style="flood-color:white;flood-opacity:1" result="back"/>
					<feBlend  in="SourceGraphic" in2="back" mode="normal"/>
				</filter>
			</defs>
			<mask maskUnits="userSpaceOnUse" x="55.269" y="38.116" width="38.522" height="20.625" id="SVGID_7_">
				<g filter="url(#Adobe_OpacityMaskFilter)">
					<defs>
						<filter id="Adobe_OpacityMaskFilter_1_" filterUnits="userSpaceOnUse" x="55.269" y="38.116" width="38.522" height="20.625">
							<feFlood  style="flood-color:white;flood-opacity:1" result="back"/>
							<feBlend  in="SourceGraphic" in2="back" mode="normal"/>
						</filter>
					</defs>
					<mask maskUnits="userSpaceOnUse" x="55.269" y="38.116" width="38.522" height="20.625" id="SVGID_7_">
						<g filter="url(#Adobe_OpacityMaskFilter_1_)">
						</g>
					</mask>
					<linearGradient id="SVGID_8_" gradientUnits="userSpaceOnUse" x1="55.2686" y1="48.4282" x2="93.7905" y2="48.4282">
						<stop  offset="0" style="stop-color:#000000"/>
						<stop  offset="0.0469" style="stop-color:#2F2F2F"/>
						<stop  offset="0.0981" style="stop-color:#5A5A5A"/>
						<stop  offset="0.155" style="stop-color:#828282"/>
						<stop  offset="0.2161" style="stop-color:#A4A4A4"/>
						<stop  offset="0.2828" style="stop-color:#C0C0C0"/>
						<stop  offset="0.3571" style="stop-color:#D7D7D7"/>
						<stop  offset="0.442" style="stop-color:#E9E9E9"/>
						<stop  offset="0.5443" style="stop-color:#F6F6F6"/>
						<stop  offset="0.6813" style="stop-color:#FDFDFD"/>
						<stop  offset="1" style="stop-color:#FFFFFF"/>
					</linearGradient>
					<path mask="url(#SVGID_7_)" fill="url(#SVGID_8_)" d="M58.818,58.74h34.973V38.116H60.585
						C54.144,44.422,53.556,52.169,58.818,58.74z"/>
				</g>
			</mask>
			<linearGradient id="SVGID_9_" gradientUnits="userSpaceOnUse" x1="55.2686" y1="48.4282" x2="93.7905" y2="48.4282">
				<stop  offset="0" style="stop-color:#E9E9F6"/>
				<stop  offset="0.0138" style="stop-color:#E1E0F2"/>
				<stop  offset="0.0741" style="stop-color:#C0C0E1"/>
				<stop  offset="0.141" style="stop-color:#A1A3D2"/>
				<stop  offset="0.2141" style="stop-color:#898CC4"/>
				<stop  offset="0.2955" style="stop-color:#747AB9"/>
				<stop  offset="0.3886" style="stop-color:#646CB1"/>
				<stop  offset="0.5006" style="stop-color:#5964AB"/>
				<stop  offset="0.6508" style="stop-color:#535FA8"/>
				<stop  offset="1" style="stop-color:#515DA7"/>
			</linearGradient>
			<path opacity="0.78" fill="url(#SVGID_9_)" d="M58.818,58.74h34.973V38.116H60.585C54.144,44.422,53.556,52.169,58.818,58.74z"/>
			<g>
				<linearGradient id="SVGID_10_" gradientUnits="userSpaceOnUse" x1="74.0112" y1="47.3228" x2="113.5688" y2="47.3228">
					<stop  offset="0" style="stop-color:#515DA7"/>
					<stop  offset="0.1601" style="stop-color:#5561A9"/>
					<stop  offset="0.3488" style="stop-color:#626BB0"/>
					<stop  offset="0.552" style="stop-color:#777CBB"/>
					<stop  offset="0.7655" style="stop-color:#9496CA"/>
					<stop  offset="0.9849" style="stop-color:#B9B9DE"/>
					<stop  offset="1" style="stop-color:#BCBCDF"/>
				</linearGradient>
				<path fill="url(#SVGID_10_)" d="M113.569,47.322v-4.388h-1.518c-0.965-1.34-2.388-2.596-4.276-3.686
					c-7.724-4.46-20.247-4.46-27.971,0c-1.888,1.09-3.311,2.346-4.276,3.687h-1.517v4.388l0,0c0.001,2.922,1.932,5.845,5.794,8.074
					c7.724,4.459,20.247,4.46,27.971,0C111.638,53.167,113.569,50.245,113.569,47.322z"/>
				<path fill="#BCBCDF" d="M107.776,51.009c-7.724,4.459-20.247,4.459-27.971,0c-7.725-4.46-7.725-11.69-0.001-16.149
					c7.724-4.459,20.247-4.459,27.971,0C115.5,39.32,115.5,46.55,107.776,51.009z"/>
				<linearGradient id="SVGID_11_" gradientUnits="userSpaceOnUse" x1="74.0112" y1="42.9351" x2="113.5684" y2="42.9351">
					<stop  offset="0" style="stop-color:#C1BEE0"/>
					<stop  offset="0.276" style="stop-color:#C5C3E3"/>
					<stop  offset="0.6014" style="stop-color:#D1D0E9"/>
					<stop  offset="0.9504" style="stop-color:#E6E5F4"/>
					<stop  offset="1" style="stop-color:#E9E9F6"/>
				</linearGradient>
				<path fill="url(#SVGID_11_)" d="M107.776,51.009c-7.724,4.459-20.247,4.459-27.971,0c-7.725-4.46-7.725-11.69-0.001-16.149
					c7.724-4.459,20.247-4.459,27.971,0C115.5,39.32,115.5,46.55,107.776,51.009z"/>
				<path fill="#2C2661" d="M103.207,48.372c-5.2,3.002-13.632,3.002-18.833,0c-1.624-0.938-2.741-2.057-3.351-3.245
					c-1.343-2.616,2.014-4.514,5.59-6.579c5.201-3.002,8.89-3.747,14.09-0.744c3.576,2.064,7.197,4.705,5.856,7.32
					C105.95,46.313,104.832,47.433,103.207,48.372z"/>
				<linearGradient id="SVGID_12_" gradientUnits="userSpaceOnUse" x1="80.4736" y1="40.1875" x2="107.1069" y2="40.1875">
					<stop  offset="0" style="stop-color:#BCBCDF"/>
					<stop  offset="0.0151" style="stop-color:#B9B9DE"/>
					<stop  offset="0.2345" style="stop-color:#9496CA"/>
					<stop  offset="0.448" style="stop-color:#777CBB"/>
					<stop  offset="0.6512" style="stop-color:#626BB0"/>
					<stop  offset="0.8399" style="stop-color:#5561A9"/>
					<stop  offset="1" style="stop-color:#515DA7"/>
				</linearGradient>
				<path fill="url(#SVGID_12_)" d="M84.374,41.886c5.2-3.003,13.632-3.003,18.833,0c1.623,0.937,2.739,2.056,3.35,3.243
					c1.345-2.617,0.229-5.565-3.35-7.631c-5.201-3.002-13.633-3.003-18.833,0c-3.578,2.066-4.693,5.014-3.349,7.631
					C81.634,43.941,82.75,42.823,84.374,41.886z"/>
			</g>
		</g>
		<g>
			<g opacity="0.51">
				<path fill="#6566AC" d="M115.475,81.86c-2.595,1.022-4.533,0.746-4.329-0.618c0.203-1.363,2.472-3.296,5.066-4.318
					c2.596-1.021,4.534-0.745,4.33,0.618S118.07,80.838,115.475,81.86z"/>
			</g>
			<g opacity="0.51">
				<path fill="#6566AC" d="M115.475,103.318c-2.595,1.022-4.533,0.746-4.329-0.617c0.203-1.362,2.472-3.296,5.066-4.318
					c2.596-1.021,4.534-0.745,4.33,0.618C120.338,100.363,118.07,102.296,115.475,103.318z"/>
			</g>
			<g opacity="0.51">
				<path fill="#6566AC" d="M115.618,124.919c-2.595,1.021-4.533,0.745-4.33-0.618c0.204-1.362,2.473-3.296,5.067-4.317
					c2.596-1.022,4.534-0.746,4.33,0.617C120.481,121.963,118.212,123.897,115.618,124.919z"/>
			</g>
			<g opacity="0.51">
				
					<ellipse transform="matrix(0.5809 0.814 -0.814 0.5809 112.8007 -67.8219)" fill="#6566AC" cx="122.265" cy="75.634" rx="1.033" ry="1.359"/>
			</g>
			<g opacity="0.51">
				
					<ellipse transform="matrix(0.5809 0.814 -0.814 0.5809 130.3481 -58.7875)" fill="#6566AC" cx="122.265" cy="97.192" rx="1.033" ry="1.359"/>
			</g>
			<g opacity="0.51">
				
					<ellipse transform="matrix(0.5809 0.814 -0.814 0.5809 147.8306 -49.7864)" fill="#6566AC" cx="122.265" cy="118.67" rx="1.033" ry="1.359"/>
			</g>
		</g>
	</g>
	<g>
		<linearGradient id="SVGID_13_" gradientUnits="userSpaceOnUse" x1="80.3472" y1="182.564" x2="106.6289" y2="182.564">
			<stop  offset="0" style="stop-color:#515DA7"/>
			<stop  offset="0.1797" style="stop-color:#547DB7"/>
			<stop  offset="0.3623" style="stop-color:#5A98C1"/>
			<stop  offset="0.5401" style="stop-color:#61ACC7"/>
			<stop  offset="0.7094" style="stop-color:#67B9C9"/>
			<stop  offset="0.8667" style="stop-color:#6BC2CA"/>
			<stop  offset="1" style="stop-color:#6DC4CA"/>
		</linearGradient>
		<path fill="url(#SVGID_13_)" d="M81.022,190.731c-0.229,0-0.452-0.117-0.578-0.327c-0.191-0.318-0.089-0.732,0.23-0.924
			l24.935-14.986c0.317-0.192,0.732-0.089,0.924,0.23c0.191,0.318,0.088,0.732-0.23,0.924l-24.935,14.986
			C81.259,190.7,81.14,190.731,81.022,190.731z"/>
		<linearGradient id="SVGID_14_" gradientUnits="userSpaceOnUse" x1="96.0464" y1="149.3101" x2="204.3569" y2="149.3101">
			<stop  offset="0" style="stop-color:#6DC4CA"/>
			<stop  offset="0.1333" style="stop-color:#6BC2CA"/>
			<stop  offset="0.2906" style="stop-color:#67B9C9"/>
			<stop  offset="0.4599" style="stop-color:#61ACC7"/>
			<stop  offset="0.6377" style="stop-color:#5A98C1"/>
			<stop  offset="0.8203" style="stop-color:#547DB7"/>
			<stop  offset="1" style="stop-color:#515DA7"/>
		</linearGradient>
		<path fill="url(#SVGID_14_)" d="M117.189,180.859c-0.834,0-1.705-0.203-2.398-0.604l-17.514-10.112
			c-0.782-0.451-1.23-1.099-1.23-1.775c0-0.597,0.353-1.143,0.968-1.498l84.274-48.655c1.139-0.659,3.037-0.592,4.324,0.151
			l17.515,10.111c0.781,0.452,1.229,1.099,1.229,1.775c0,0.597-0.353,1.143-0.968,1.498l-84.274,48.656l0,0
			C118.589,180.709,117.903,180.859,117.189,180.859z M118.778,179.824h0.01H118.778z M183.202,119.107
			c-0.475,0-0.922,0.09-1.239,0.273l-84.274,48.655c-0.185,0.106-0.295,0.23-0.295,0.332c0,0.143,0.172,0.387,0.558,0.609
			l17.514,10.112c0.862,0.498,2.254,0.567,2.977,0.151l84.274-48.656c0.185-0.106,0.295-0.23,0.295-0.332
			c0-0.144-0.172-0.387-0.557-0.609l-17.515-10.111C184.456,119.252,183.806,119.107,183.202,119.107z"/>
		<g>
			
				<linearGradient id="SVGID_15_" gradientUnits="userSpaceOnUse" x1="-23.2739" y1="-169.5889" x2="77.7778" y2="-169.5889" gradientTransform="matrix(0.866 -0.5 0 1.1547 115.9482 325.2842)">
				<stop  offset="0" style="stop-color:#515DA7"/>
				<stop  offset="0.1601" style="stop-color:#5561A9"/>
				<stop  offset="0.3488" style="stop-color:#626BB0"/>
				<stop  offset="0.552" style="stop-color:#777CBB"/>
				<stop  offset="0.7655" style="stop-color:#9496CA"/>
				<stop  offset="0.9849" style="stop-color:#B9B9DE"/>
				<stop  offset="1" style="stop-color:#BCBCDF"/>
			</linearGradient>
			<path fill="url(#SVGID_15_)" d="M169.207,90.084c-2.215,1.279-4.311,3.081-6.176,5.209c-2.589-8.314-10.484-10.894-19.826-5.501
				c-7.729,4.462-14.464,13.238-18.026,22.537c-1.182,0.037-2.496,0.426-3.89,1.23c-5.043,2.911-9.132,9.992-9.132,15.816
				c0,0.125,0.013,0.24,0.017,0.362c-1.438,0.099-3.028,0.607-4.701,1.573c-6.45,3.724-11.679,12.781-11.679,20.229
				c0,7.448,5.229,10.467,11.679,6.743l61.734-35.643c7.786-4.495,14.098-15.428,14.098-24.418S176.993,85.589,169.207,90.084z"/>
			
				<radialGradient id="SVGID_16_" cx="116.3599" cy="114.8286" r="41.7449" fx="76.9927" fy="100.9412" gradientUnits="userSpaceOnUse">
				<stop  offset="0" style="stop-color:#2E2B76"/>
				<stop  offset="1" style="stop-color:#262554"/>
			</radialGradient>
			<path fill="url(#SVGID_16_)" d="M169.207,90.084c-1.284,0.741-2.526,1.663-3.709,2.718l-6.902-3.988l0.001,0.002
				c-3.793-2.667-9.282-2.55-15.392,0.977c-7.729,4.462-14.464,13.238-18.026,22.537c-1.182,0.037-2.496,0.426-3.89,1.23
				c-5.043,2.911-9.132,9.992-9.132,15.816c0,0.125,0.013,0.239,0.017,0.362c-1.438,0.099-3.028,0.607-4.701,1.573
				c-6.45,3.724-11.679,12.781-11.679,20.229c0,3.691,1.286,6.291,3.367,7.524l-0.005,0.002l0.053,0.031
				c0.004,0.002,0.007,0.004,0.011,0.006l16.909,9.815l3.693-17.766l49.385-28.513c7.786-4.495,14.099-15.428,14.099-24.418
				S176.993,85.589,169.207,90.084z"/>
			<linearGradient id="SVGID_17_" gradientUnits="userSpaceOnUse" x1="95.7935" y1="127.9409" x2="196.3833" y2="127.9409">
				<stop  offset="0" style="stop-color:#515DA7"/>
				<stop  offset="0.1601" style="stop-color:#5561A9"/>
				<stop  offset="0.3488" style="stop-color:#626BB0"/>
				<stop  offset="0.552" style="stop-color:#777CBB"/>
				<stop  offset="0.7655" style="stop-color:#9496CA"/>
				<stop  offset="0.9849" style="stop-color:#B9B9DE"/>
				<stop  offset="1" style="stop-color:#BCBCDF"/>
			</linearGradient>
			<path fill="url(#SVGID_17_)" d="M196.383,99.095l-17.132-9.954l0.001,0.005c-2.558-1.523-6.112-1.332-10.046,0.938
				c-1.284,0.741-2.526,1.663-3.709,2.718l-6.902-3.988l0.001,0.002c-3.793-2.667-9.282-2.55-15.392,0.977
				c-7.729,4.462-14.464,13.238-18.026,22.537c-1.182,0.037-2.496,0.426-3.89,1.23c-5.043,2.911-9.132,9.992-9.132,15.816
				c0,0.125,0.013,0.239,0.017,0.362c-1.438,0.099-3.028,0.607-4.701,1.573c-6.45,3.724-11.679,12.781-11.679,20.229
				c0,3.691,1.286,6.291,3.367,7.524l-0.005,0.002l0.053,0.031c0.004,0.002,0.007,0.004,0.011,0.006l16.909,9.815l3.693-17.766
				l49.385-28.513c6.312-3.644,11.653-11.518,13.45-19.158L196.383,99.095z"/>
			
				<linearGradient id="SVGID_18_" gradientUnits="userSpaceOnUse" x1="-3.686" y1="-152.5791" x2="97.3667" y2="-152.5791" gradientTransform="matrix(0.866 -0.5 0 1.1547 115.9482 325.2842)">
				<stop  offset="0" style="stop-color:#C1BEE0"/>
				<stop  offset="0.276" style="stop-color:#C5C3E3"/>
				<stop  offset="0.6014" style="stop-color:#D1D0E9"/>
				<stop  offset="0.9504" style="stop-color:#E6E5F4"/>
				<stop  offset="1" style="stop-color:#E9E9F6"/>
			</linearGradient>
			<path fill="url(#SVGID_18_)" d="M186.17,99.931c-2.216,1.278-4.312,3.08-6.177,5.209c-2.588-8.315-10.483-10.895-19.826-5.501
				c-7.728,4.462-14.463,13.238-18.026,22.536c-1.181,0.038-2.496,0.427-3.89,1.23c-5.043,2.912-9.131,9.993-9.131,15.816
				c0,0.126,0.012,0.24,0.016,0.362c-1.438,0.1-3.027,0.608-4.7,1.573c-6.45,3.725-11.68,12.781-11.68,20.229
				s5.229,10.467,11.68,6.742l61.734-35.642c7.786-4.496,14.098-15.428,14.098-24.418S193.957,95.435,186.17,99.931z"/>
			<g>
				<path fill="#FFFFFF" d="M179.994,105.14c1.865-2.129,3.961-3.931,6.177-5.209c4.768-2.753,8.979-2.449,11.531,0.262
					c-2.495-3.135-6.906-3.63-11.935-0.727c-2.146,1.238-4.177,2.97-5.997,5.012C179.848,104.695,179.923,104.915,179.994,105.14z"
					/>
				<path fill="#FFFFFF" d="M112.756,161.387c0-7.448,5.229-16.505,11.68-20.229c1.673-0.965,3.262-1.474,4.7-1.573
					c-0.004-0.122-0.016-0.237-0.016-0.362c0-5.823,4.088-12.904,9.131-15.816c1.394-0.804,2.709-1.192,3.89-1.23
					c3.563-9.298,10.299-18.074,18.026-22.536c7.078-4.087,13.324-3.593,17.063,0.501c-3.682-4.518-10.127-5.203-17.465-0.966
					c-7.729,4.462-14.463,13.238-18.027,22.536c-1.181,0.038-2.496,0.427-3.889,1.23c-5.043,2.912-9.132,9.993-9.132,15.816
					c0,0.126,0.013,0.24,0.017,0.362c-1.438,0.1-3.028,0.607-4.701,1.573c-6.45,3.725-11.68,12.781-11.68,20.229
					c0,2.926,0.816,5.155,2.187,6.573C113.417,166.073,112.756,164.012,112.756,161.387z"/>
			</g>
		</g>
	</g>
</g>
</svg>
