<?xml version="1.0" encoding="utf-8"?>
<!-- Generator: Adobe Illustrator 16.0.0, SVG Export Plug-In . SVG Version: 6.00 Build 0)  -->
<!DOCTYPE svg PUBLIC "-//W3C//DTD SVG 1.1//EN" "http://www.w3.org/Graphics/SVG/1.1/DTD/svg11.dtd">
<svg version="1.1" id="Layer_1" xmlns="http://www.w3.org/2000/svg" xmlns:xlink="http://www.w3.org/1999/xlink" x="0px" y="0px"
	 width="512px" height="510px" viewBox="0 0 512 510" enable-background="new 0 0 512 510" xml:space="preserve">
<path d="M122.282,207.276h39.778c9.303,0,16.714,2.262,22.237,6.782c5.521,4.522,8.282,10.26,8.282,17.215
	c0,10.348-6.044,17.346-18.128,20.998c6.173,0.87,11.086,3.436,14.738,7.694c3.652,4.262,5.478,9.261,5.478,14.999
	c0,7.304-2.674,13.107-8.021,17.411s-12.804,6.456-22.367,6.456h-41.996V207.276z M144.583,224.231v19.824h14.607
	c3.216,0,5.804-0.826,7.76-2.478c1.956-1.651,2.934-4.108,2.934-7.369c0-3.26-0.978-5.738-2.934-7.434
	c-1.957-1.695-4.544-2.543-7.76-2.543H144.583z M144.583,281.877h16.825c3.042,0,5.563-0.913,7.564-2.738
	c1.999-1.826,3-4.347,3-7.564c0-3.216-0.958-5.781-2.869-7.695c-1.914-1.911-4.392-2.869-7.434-2.869h-17.085V281.877z"/>
<path d="M265.615,207.015v16.955h-33.128v19.693h29.214v16.955h-29.214v21.259h33.128v16.955h-55.43v-91.817H265.615z"/>
<path d="M388.471,207.276v91.556h-22.302v-51.647l-21.259,51.647h-16.563l-21.259-51.647v51.647h-22.303v-91.556h25.563
	l26.346,63.125l26.215-63.125H388.471z"/>
<path d="M52.999,252.637l46.084,106.924H50.739L4.655,252.637l46.084-106.925h48.343L52.999,252.637z"/>
<path d="M414.602,145.711h48.344l46.084,106.925l-46.084,106.924h-48.344l46.085-106.924L414.602,145.711z"/>
</svg>
