<?xml version="1.0" encoding="utf-8"?>
<!-- Generator: Adobe Illustrator 16.0.0, SVG Export Plug-In . SVG Version: 6.00 Build 0)  -->
<!DOCTYPE svg PUBLIC "-//W3C//DTD SVG 1.1//EN" "http://www.w3.org/Graphics/SVG/1.1/DTD/svg11.dtd">
<svg version="1.1" id="Calque_1" xmlns="http://www.w3.org/2000/svg" xmlns:xlink="http://www.w3.org/1999/xlink" x="0px" y="0px"
	 width="350.8px" height="224.512px" viewBox="0 0 350.8 224.512" enable-background="new 0 0 350.8 224.512" xml:space="preserve">
<path fill-rule="evenodd" clip-rule="evenodd" fill="#030505" d="M301.712,203.318c0,7.9-6.403,14.304-14.304,14.304H47.091
	c-7.901,0-14.305-6.403-14.305-14.304V43.951c0-7.9,6.404-14.304,14.305-14.304h240.317c7.9,0,14.304,6.403,14.304,14.304V203.318z"
	/>
<path fill-rule="evenodd" clip-rule="evenodd" fill="#D1CCE5" d="M0,202.203v3.485c0,7.584,7.966,13.731,17.792,13.731h298.915
	c9.826,0,17.793-6.147,17.793-13.731v-3.485H0z"/>
<polygon fill-rule="evenodd" clip-rule="evenodd" fill="#E2E4E8" points="43.286,41.626 43.286,187.534 289.927,187.534 
	289.927,53.786 43.286,53.786 "/>
<rect x="217.819" y="67.082" fill-rule="evenodd" clip-rule="evenodd" fill="#EFEEEF" width="66.69" height="88.997"/>
<rect x="43.286" y="41.626" fill-rule="evenodd" clip-rule="evenodd" fill="#00A195" width="246.641" height="12.16"/>
<rect x="58.229" y="41.626" fill-rule="evenodd" clip-rule="evenodd" fill="#EFEEEF" width="151.604" height="138.32"/>
<path fill-rule="evenodd" clip-rule="evenodd" fill="#545771" d="M316.714,224.512c-0.003,0-0.005,0-0.007,0h0.002
	C316.71,224.512,316.711,224.512,316.714,224.512L316.714,224.512z M17.708,224.512L17.708,224.512h0.007H17.71H17.708
	L17.708,224.512z M316.807,224.512L316.807,224.512c-0.009,0-0.018,0-0.027,0C316.789,224.512,316.798,224.512,316.807,224.512
	L316.807,224.512z M316.91,224.51L316.91,224.51c-0.021,0.001-0.041,0.001-0.061,0.001
	C316.869,224.511,316.89,224.511,316.91,224.51L316.91,224.51z M316.986,224.51L316.986,224.51c-0.016,0-0.029,0-0.046,0
	C316.957,224.51,316.971,224.51,316.986,224.51L316.986,224.51z M325.183,222.368L325.183,222.368
	c-2.438,1.323-5.221,2.094-8.18,2.142C319.962,224.461,322.744,223.691,325.183,222.368L325.183,222.368z M325.232,222.34
	L325.232,222.34c-0.014,0.007-0.028,0.015-0.043,0.022C325.204,222.355,325.219,222.347,325.232,222.34L325.232,222.34z
	 M325.314,222.294L325.314,222.294c-0.024,0.015-0.05,0.028-0.076,0.042C325.265,222.323,325.29,222.309,325.314,222.294
	L325.314,222.294z M325.365,222.267L325.365,222.267c-0.012,0.006-0.021,0.012-0.031,0.018
	C325.344,222.279,325.354,222.273,325.365,222.267L325.365,222.267z M325.423,222.235L325.423,222.235
	c-0.01,0.005-0.018,0.009-0.026,0.015C325.405,222.245,325.413,222.24,325.423,222.235L325.423,222.235z M325.494,222.195
	L325.494,222.195c-0.005,0.002-0.012,0.006-0.017,0.009C325.484,222.201,325.488,222.197,325.494,222.195L325.494,222.195z
	 M325.552,222.161L325.552,222.161c-0.001,0.001-0.004,0.003-0.005,0.004C325.548,222.164,325.551,222.162,325.552,222.161z"/>
<path fill-rule="evenodd" clip-rule="evenodd" fill="#67656E" d="M332.795,211.559H1.708c2.841,4.627,8.933,7.834,16,7.86h0.007
	c0.027,0,0.053,0,0.08,0h298.915c0,0,0.002,0,0.005,0c0.021,0,0.044,0,0.065,0c0.01,0,0.019,0,0.027,0
	c0.015,0,0.028-0.001,0.043-0.001c0.02,0,0.04,0,0.061,0c0.01,0,0.021,0,0.03,0c0.017,0,0.03-0.001,0.046-0.001
	c0.006,0,0.011,0,0.017,0c2.959-0.037,5.741-0.632,8.18-1.653c0.002-0.001,0.006-0.002,0.007-0.003
	c0.015-0.006,0.029-0.013,0.043-0.018c0.003-0.002,0.006-0.003,0.006-0.003c0.026-0.011,0.052-0.021,0.076-0.032
	c0.006-0.003,0.013-0.005,0.02-0.009c0.01-0.004,0.02-0.009,0.031-0.013c0.01-0.005,0.022-0.01,0.031-0.014s0.017-0.008,0.026-0.012
	c0.019-0.008,0.036-0.016,0.055-0.023c0.005-0.003,0.012-0.005,0.017-0.008c0.017-0.008,0.034-0.015,0.053-0.022
	c0.001-0.001,0.004-0.003,0.005-0.003C328.696,216.211,331.235,214.099,332.795,211.559z"/>
<g>
	<rect x="52.714" fill-rule="evenodd" clip-rule="evenodd" fill="#FFFFFF" width="153.096" height="176.514"/>
	<rect x="52.714" fill-rule="evenodd" clip-rule="evenodd" fill="#1DADB4" width="153.096" height="8.529"/>
	<circle fill-rule="evenodd" clip-rule="evenodd" fill="#E7E5E4" cx="199.495" cy="4.053" r="2.042"/>
	<circle fill-rule="evenodd" clip-rule="evenodd" fill="#E7E5E4" cx="192.691" cy="4.053" r="2.041"/>
	<rect x="52.714" y="23.877" fill-rule="evenodd" clip-rule="evenodd" fill="#56BFCF" width="153.096" height="9.935"/>
	<rect x="150.298" y="26.664" fill-rule="evenodd" clip-rule="evenodd" fill="#FFFFFF" width="46.925" height="4.353"/>
	<g>
		<rect x="63.131" y="27.377" fill-rule="evenodd" clip-rule="evenodd" fill="#FCF083" width="13.727" height="2.934"/>
		<rect x="77.982" y="27.377" fill-rule="evenodd" clip-rule="evenodd" fill="#FCF083" width="13.726" height="2.934"/>
		<rect x="92.831" y="27.377" fill-rule="evenodd" clip-rule="evenodd" fill="#FCF083" width="13.728" height="2.934"/>
		<rect x="107.681" y="27.377" fill-rule="evenodd" clip-rule="evenodd" fill="#FCF083" width="13.727" height="2.934"/>
	</g>
	<rect x="83.043" y="48.617" fill-rule="evenodd" clip-rule="evenodd" fill="#F39F7D" width="27.877" height="22.588"/>
	<path fill-rule="evenodd" clip-rule="evenodd" fill="#FFFFFF" d="M200.292,27.184c-0.601,0-1.09,0.488-1.09,1.09
		c0,0.602,0.489,1.09,1.09,1.09c0.604,0,1.091-0.488,1.091-1.09C201.383,27.671,200.896,27.184,200.292,27.184L200.292,27.184z
		 M199.262,27.267L199.262,27.267c0.568-0.557,1.492-0.557,2.063,0c0.569,0.557,0.569,1.459,0,2.015
		c-0.57,0.557-1.494,0.557-2.063,0C198.691,28.726,198.691,27.823,199.262,27.267z"/>
	<path fill-rule="evenodd" clip-rule="evenodd" fill="#FFFFFF" d="M201.574,29.839l-0.323-0.318c0.061-0.042,0.119-0.09,0.174-0.143
		c0.065-0.064,0.124-0.134,0.172-0.208l0.328,0.323L201.574,29.839z"/>
	<path fill-rule="evenodd" clip-rule="evenodd" fill="#FFFFFF" d="M203.296,30.772c0.115,0.113,0.115,0.297,0,0.41
		c-0.116,0.113-0.304,0.113-0.42,0l-1.274-1.255l0.418-0.411L203.296,30.772z"/>
	<path fill-rule="evenodd" clip-rule="evenodd" fill="#FFFFFF" d="M200.208,29.167c0.104,0,0.212-0.02,0.315-0.062l0,0
		c0.05-0.02,0.075-0.077,0.055-0.127c-0.021-0.05-0.078-0.074-0.128-0.054c-0.081,0.032-0.164,0.048-0.242,0.048
		c-0.216,0-0.397-0.11-0.468-0.285c-0.021-0.05-0.078-0.075-0.128-0.054c-0.05,0.02-0.074,0.077-0.054,0.127
		c0.104,0.26,0.368,0.407,0.647,0.407H200.208z"/>
	<rect x="114.051" y="48.434" fill-rule="evenodd" clip-rule="evenodd" fill="#F7BF7F" width="27.878" height="22.588"/>
	<rect x="145.058" y="48.321" fill-rule="evenodd" clip-rule="evenodd" fill="#83CFEE" width="27.878" height="22.588"/>
	<rect x="64.912" y="148.076" fill-rule="evenodd" clip-rule="evenodd" fill="#C7C7C8" width="39.917" height="1.969"/>
	<rect x="64.912" y="151.641" fill-rule="evenodd" clip-rule="evenodd" fill="#C7C7C8" width="39.917" height="1.968"/>
	<rect x="64.912" y="155.206" fill-rule="evenodd" clip-rule="evenodd" fill="#C7C7C8" width="39.917" height="1.969"/>
	<rect x="64.912" y="158.77" fill-rule="evenodd" clip-rule="evenodd" fill="#C7C7C8" width="39.917" height="1.968"/>
	<rect x="64.912" y="162.334" fill-rule="evenodd" clip-rule="evenodd" fill="#C7C7C8" width="39.917" height="1.968"/>
	<rect x="64.912" y="165.899" fill-rule="evenodd" clip-rule="evenodd" fill="#C7C7C8" width="39.917" height="1.968"/>
	<rect x="64.912" y="169.463" fill-rule="evenodd" clip-rule="evenodd" fill="#C7C7C8" width="39.917" height="1.968"/>
	<rect x="109.785" y="148.076" fill-rule="evenodd" clip-rule="evenodd" fill="#C7C7C8" width="39.917" height="1.969"/>
	<rect x="109.785" y="151.641" fill-rule="evenodd" clip-rule="evenodd" fill="#C7C7C8" width="39.917" height="1.968"/>
	<rect x="109.785" y="155.206" fill-rule="evenodd" clip-rule="evenodd" fill="#C7C7C8" width="39.917" height="1.969"/>
	<rect x="109.785" y="158.77" fill-rule="evenodd" clip-rule="evenodd" fill="#C7C7C8" width="39.917" height="1.968"/>
	<rect x="109.785" y="162.334" fill-rule="evenodd" clip-rule="evenodd" fill="#C7C7C8" width="39.917" height="1.968"/>
	<rect x="109.785" y="165.899" fill-rule="evenodd" clip-rule="evenodd" fill="#C7C7C8" width="39.917" height="1.968"/>
	<rect x="109.785" y="169.463" fill-rule="evenodd" clip-rule="evenodd" fill="#C7C7C8" width="39.917" height="1.968"/>
	<rect x="154.923" y="148.076" fill-rule="evenodd" clip-rule="evenodd" fill="#C7C7C8" width="39.915" height="1.969"/>
	<rect x="154.923" y="151.641" fill-rule="evenodd" clip-rule="evenodd" fill="#C7C7C8" width="39.915" height="1.968"/>
	<rect x="154.923" y="155.206" fill-rule="evenodd" clip-rule="evenodd" fill="#C7C7C8" width="39.915" height="1.969"/>
	<rect x="154.923" y="158.77" fill-rule="evenodd" clip-rule="evenodd" fill="#C7C7C8" width="39.915" height="1.968"/>
	<rect x="154.923" y="162.334" fill-rule="evenodd" clip-rule="evenodd" fill="#C7C7C8" width="39.915" height="1.968"/>
	<rect x="154.923" y="165.899" fill-rule="evenodd" clip-rule="evenodd" fill="#C7C7C8" width="39.915" height="1.968"/>
	<rect x="154.923" y="169.463" fill-rule="evenodd" clip-rule="evenodd" fill="#C7C7C8" width="39.915" height="1.968"/>
	<rect x="52.714" y="85.872" fill-rule="evenodd" clip-rule="evenodd" fill="#56BFCF" width="153.096" height="47.792"/>
	<rect x="67.065" y="93.766" fill-rule="evenodd" clip-rule="evenodd" fill="#FCF083" width="39.481" height="31.989"/>
	<rect x="116.726" y="105" fill-rule="evenodd" clip-rule="evenodd" fill="#FFFFFF" width="63.166" height="1.052"/>
	<rect x="116.726" y="107.6" fill-rule="evenodd" clip-rule="evenodd" fill="#FFFFFF" width="63.166" height="1.053"/>
	<rect x="116.726" y="110.194" fill-rule="evenodd" clip-rule="evenodd" fill="#FFFFFF" width="63.166" height="1.052"/>
	<rect x="116.726" y="112.794" fill-rule="evenodd" clip-rule="evenodd" fill="#FFFFFF" width="41.615" height="1.051"/>
	<g>
		<polygon fill-rule="evenodd" clip-rule="evenodd" fill="#FCF083" points="54.471,109.767 56.35,108.682 58.229,107.597 
			58.229,109.767 58.229,111.938 56.35,110.853 		"/>
		<polygon fill-rule="evenodd" clip-rule="evenodd" fill="#FCF083" points="204.054,109.767 202.175,108.682 200.295,107.597 
			200.295,109.767 200.295,111.938 202.175,110.853 		"/>
	</g>
	<rect x="64.912" y="135.917" fill-rule="evenodd" clip-rule="evenodd" fill="#F39F7D" width="39.917" height="10.334"/>
	<rect x="109.786" y="136.343" fill-rule="evenodd" clip-rule="evenodd" fill="#83CFEE" width="39.917" height="10.334"/>
	<rect x="154.923" y="136.45" fill-rule="evenodd" clip-rule="evenodd" fill="#F7BF7F" width="39.915" height="10.334"/>
</g>
<g>
	<g>
		<g>
			<polygon fill-rule="evenodd" clip-rule="evenodd" fill="#E7E5E4" points="276.33,146.5 297.04,132.5 237.012,43.692 
				216.304,57.696 			"/>
			<g>
				<polygon fill-rule="evenodd" clip-rule="evenodd" fill="#C43142" points="270.474,135.292 288.828,122.893 276.421,104.542 
					258.071,116.942 				"/>
				
					<rect x="249.137" y="89.261" transform="matrix(-0.8285 0.5599 -0.5599 -0.8285 531.9876 37.7586)" fill-rule="evenodd" clip-rule="evenodd" fill="#B51F25" width="22.151" height="22.147"/>
				<polygon fill-rule="evenodd" clip-rule="evenodd" fill="#811A1F" points="244.007,96.131 262.354,83.727 249.952,65.375 
					231.6,77.779 				"/>
				<polygon fill-rule="evenodd" clip-rule="evenodd" fill="#280D0E" points="230.768,76.547 249.12,64.144 236.713,45.791 
					218.366,58.195 				"/>
			</g>
		</g>
		<g>
			<polygon fill-rule="evenodd" clip-rule="evenodd" fill="#E7E5E4" points="273.132,143.893 297.233,137.255 268.759,33.913 
				244.66,40.557 			"/>
			<g>
				
					<rect x="267.828" y="106.71" transform="matrix(-0.9641 0.2656 -0.2656 -0.9641 579.0698 157.2777)" fill-rule="evenodd" clip-rule="evenodd" fill="#F3ACA9" width="22.149" height="22.152"/>
				<polygon fill-rule="evenodd" clip-rule="evenodd" fill="#EE807B" points="264.887,108.619 286.243,102.733 280.356,81.38 
					259.008,87.265 				"/>
				
					<rect x="255.273" y="61.138" transform="matrix(-0.9641 0.2656 -0.2656 -0.9641 542.307 71.0909)" fill-rule="evenodd" clip-rule="evenodd" fill="#E9584F" width="22.147" height="22.151"/>
				<polygon fill-rule="evenodd" clip-rule="evenodd" fill="#E53017" points="252.331,63.044 273.687,57.161 267.8,35.807 
					246.451,41.692 				"/>
			</g>
		</g>
		<g>
			<polygon fill-rule="evenodd" clip-rule="evenodd" fill="#E7E5E4" points="270.672,140.446 295.658,141.353 299.521,34.231 
				274.536,33.33 			"/>
			<g>
				<polygon fill-rule="evenodd" clip-rule="evenodd" fill="#FAD19E" points="272.55,127.947 294.682,128.742 295.482,106.61 
					273.351,105.813 				"/>
				
					<rect x="273.795" y="82.583" transform="matrix(-0.9994 -0.036 0.036 -0.9994 566.1796 197.5176)" fill-rule="evenodd" clip-rule="evenodd" fill="#F8BA6C" width="22.148" height="22.151"/>
				
					<rect x="274.643" y="58.959" transform="matrix(-0.9993 -0.0361 0.0361 -0.9993 568.7196 150.3472)" fill-rule="evenodd" clip-rule="evenodd" fill="#F5A337" width="22.15" height="22.151"/>
				
					<rect x="275.498" y="35.339" transform="matrix(-0.9994 -0.0359 0.0359 -0.9994 571.2894 103.0986)" fill-rule="evenodd" clip-rule="evenodd" fill="#F08E04" width="22.146" height="22.153"/>
			</g>
		</g>
		<g>
			
				<rect x="285.829" y="36.191" transform="matrix(-0.9514 -0.3078 0.3078 -0.9514 554.5325 267.0411)" fill-rule="evenodd" clip-rule="evenodd" fill="#E7E5E4" width="24.997" height="107.19"/>
			<g>
				<polygon fill-rule="evenodd" clip-rule="evenodd" fill="#92D0D0" points="275.16,125.412 296.232,132.234 303.048,111.16 
					281.975,104.339 				"/>
				
					<rect x="285.307" y="84.726" transform="matrix(-0.9514 -0.3079 0.3079 -0.9514 548.863 278.2073)" fill-rule="evenodd" clip-rule="evenodd" fill="#5EBFB9" width="22.149" height="22.148"/>
				
					<rect x="292.58" y="62.238" transform="matrix(-0.9515 -0.3077 0.3077 -0.9515 570.0192 236.5059)" fill-rule="evenodd" clip-rule="evenodd" fill="#07B0AB" width="22.153" height="22.147"/>
				
					<rect x="299.86" y="39.746" transform="matrix(-0.9514 -0.3079 0.3079 -0.9514 591.1135 194.9152)" fill-rule="evenodd" clip-rule="evenodd" fill="#00A195" width="22.149" height="22.149"/>
			</g>
		</g>
		<g>
			<polygon fill-rule="evenodd" clip-rule="evenodd" fill="#E7E5E4" points="269.458,132.712 290.055,146.875 350.8,58.563 
				330.201,44.393 			"/>
			<g>
				
					<rect x="282.073" y="109.241" transform="matrix(-0.8239 -0.5667 0.5667 -0.8239 466.4849 385.5833)" fill-rule="evenodd" clip-rule="evenodd" fill="#9CC3E1" width="22.151" height="22.151"/>
				
					<rect x="295.471" y="89.771" transform="matrix(-0.8239 -0.5667 0.5667 -0.8239 501.9739 357.6494)" fill-rule="evenodd" clip-rule="evenodd" fill="#6DA4D2" width="22.15" height="22.149"/>
				
					<rect x="308.868" y="70.298" transform="matrix(-0.824 -0.5666 0.5666 -0.824 537.4736 329.6927)" fill-rule="evenodd" clip-rule="evenodd" fill="#2B86C3" width="22.145" height="22.147"/>
				
					<rect x="322.263" y="50.819" transform="matrix(-0.8239 -0.5667 0.5667 -0.8239 572.9055 301.7902)" fill-rule="evenodd" clip-rule="evenodd" fill="#0A69B3" width="22.146" height="22.15"/>
			</g>
		</g>
	</g>
	<path fill-rule="evenodd" clip-rule="evenodd" fill="#515155" d="M282.891,131.572c1.211-0.048,2.228,0.889,2.276,2.095
		c0.053,1.211-0.885,2.23-2.097,2.281c-1.205,0.052-2.226-0.89-2.273-2.096C280.743,132.641,281.682,131.621,282.891,131.572z"/>
	<path fill-rule="evenodd" clip-rule="evenodd" fill="#B9BABC" d="M282.944,132.814c0.498-0.023,0.926,0.368,0.943,0.865
		l0.775,18.829c0.018,0.497-0.376,0.924-0.872,0.946c-0.499,0.019-0.927-0.374-0.946-0.869l-0.774-18.83
		C282.051,133.259,282.445,132.834,282.944,132.814z"/>
</g>
<text transform="matrix(1 0 0 1 216.3037 171.188)" fill="#1DADB4" font-family="'SourceSansPro-Black'" font-size="12">CSS3 /  CSS4</text>
</svg>
