<?xml version="1.0" encoding="utf-8"?>
<!-- Generator: Adobe Illustrator 16.0.0, SVG Export Plug-In . SVG Version: 6.00 Build 0)  -->
<!DOCTYPE svg PUBLIC "-//W3C//DTD SVG 1.1//EN" "http://www.w3.org/Graphics/SVG/1.1/DTD/svg11.dtd">
<svg version="1.1" id="Layer_1" xmlns="http://www.w3.org/2000/svg" xmlns:xlink="http://www.w3.org/1999/xlink" x="0px" y="0px"
	 width="512px" height="510px" viewBox="0 0 512 510" enable-background="new 0 0 512 510" xml:space="preserve">
<path d="M26.415,40.219h36.582c118.62,0,214.781,96.161,214.781,214.781S181.617,469.781,62.997,469.781H26.415v-94.409h36.582
	c66.485,0,120.374-53.894,120.374-120.372c0-66.479-53.889-120.372-120.374-120.372H26.415V40.219z M197.536,40.219H348.59
	c72.347,0,130.994,58.646,130.997,130.994c0,30.609-10.722,60.258-30.304,83.788c46.273,55.614,38.705,138.201-16.9,184.477
	c-23.532,19.583-53.179,30.305-83.793,30.305H197.536c37.168-23.28,67.657-55.815,88.494-94.409h62.557
	c20.204,0,36.582-16.379,36.582-36.584c0-20.203-16.378-36.584-36.582-36.584h-36.584c5.909-31.189,5.909-63.218,0-94.408h36.584
	c20.204,0,36.582-16.38,36.582-36.583c0-20.206-16.378-36.584-36.582-36.584H286.03C265.193,96.035,234.705,63.499,197.536,40.219z"
	/>
</svg>
