<?xml version="1.0" encoding="utf-8"?>
<!-- Generator: Adobe Illustrator 16.0.0, SVG Export Plug-In . SVG Version: 6.00 Build 0)  -->
<!DOCTYPE svg PUBLIC "-//W3C//DTD SVG 1.1//EN" "http://www.w3.org/Graphics/SVG/1.1/DTD/svg11.dtd">
<svg version="1.1" id="Calque_1" xmlns="http://www.w3.org/2000/svg" xmlns:xlink="http://www.w3.org/1999/xlink" x="0px" y="0px"
	 width="512px" height="512px" viewBox="0 0 512 512" enable-background="new 0 0 512 512" xml:space="preserve">
<g>
	<path d="M492.417,234.239L278.187,20.017c-12.333-12.34-32.342-12.34-44.69,0l-44.481,44.489l56.429,56.431
		c13.115-4.43,28.154-1.457,38.604,8.996c10.513,10.518,13.459,25.685,8.917,38.847l54.39,54.384
		c13.161-4.537,28.336-1.604,38.849,8.922c14.686,14.682,14.686,38.479,0,53.174c-14.694,14.689-38.489,14.689-53.189,0
		c-11.045-11.055-13.777-27.288-8.177-40.896l-50.729-50.723v133.478c3.577,1.773,6.956,4.136,9.939,7.107
		c14.685,14.685,14.685,38.479,0,53.185c-14.685,14.68-38.495,14.68-53.169,0c-14.685-14.705-14.685-38.5,0-53.185
		c3.629-3.624,7.833-6.367,12.317-8.202V191.309c-4.485-1.835-8.677-4.555-12.317-8.205c-11.123-11.118-13.798-27.445-8.093-41.105
		l-55.63-55.638L20.257,233.246c-12.338,12.351-12.338,32.359,0,44.703l214.241,214.22c12.333,12.338,32.336,12.338,44.69,0
		l213.229-213.229C504.76,266.597,504.76,246.577,492.417,234.239z"/>
</g>
</svg>
