<?xml version="1.0" encoding="utf-8"?>
<!-- Generator: Adobe Illustrator 16.0.0, SVG Export Plug-In . SVG Version: 6.00 Build 0)  -->
<!DOCTYPE svg PUBLIC "-//W3C//DTD SVG 1.1//EN" "http://www.w3.org/Graphics/SVG/1.1/DTD/svg11.dtd">
<svg version="1.1" id="Layer_1" xmlns="http://www.w3.org/2000/svg" xmlns:xlink="http://www.w3.org/1999/xlink" x="0px" y="0px"
	 width="512px" height="510px" viewBox="0 0 512 510" enable-background="new 0 0 512 510" xml:space="preserve">
<polygon points="68.95,223.244 108.004,223.244 111.12,208.39 54.893,208.39 32.504,314.323 88.731,314.323 91.847,299.614 
	52.792,299.614 59.748,266.574 96.267,266.574 99.237,251.865 62.864,251.865 "/>
<path d="M136.234,225.961c3.188-2.826,7.415-4.239,12.68-4.239c6.473,0,13.597,1.884,21.375,5.651l6.231-13.839
	c-8.502-4.444-17.705-6.666-27.606-6.666c-6.811,0-12.934,1.304-18.368,3.913c-5.435,2.609-9.637,6.304-12.607,11.086
	c-2.971,4.782-4.457,10.265-4.457,16.448c0,3.816,0.64,7.307,1.92,10.47c1.279,3.164,3.126,6.076,5.543,8.731
	c2.415,2.657,6.159,5.604,11.231,8.84c6.328,4.011,10.481,7.308,12.462,9.89c1.98,2.585,2.971,5.543,2.971,8.877
	c0,5.024-1.909,8.948-5.724,11.774c-3.816,2.825-9.033,4.238-15.65,4.238c-8.55,0-17.003-2.343-25.36-7.028v16.23
	c6.666,3.623,15.071,5.435,25.215,5.435c12.27,0,21.893-2.873,28.874-8.623c6.98-5.748,10.47-13.694,10.47-23.838
	c0-5.651-1.425-10.663-4.275-15.035c-2.851-4.372-8.019-8.9-15.506-13.586c-4.976-3.14-8.224-5.445-9.746-6.919
	c-1.521-1.473-2.645-3.067-3.369-4.782c-0.725-1.714-1.087-3.707-1.087-5.978C131.452,232.471,133.046,228.787,136.234,225.961z"/>
<path d="M185.041,307.077l27.171-27.896c9.419-9.612,15.904-17.691,19.455-24.237c3.55-6.545,5.326-13.32,5.326-20.324
	c0-8.647-2.645-15.434-7.935-20.361c-5.289-4.927-12.547-7.391-21.773-7.391c-10.772,0-20.578,3.721-29.417,11.159l3.913,5
	c8.067-6.424,16.521-9.637,25.36-9.637c6.618,0,12.002,1.981,16.158,5.941c4.154,3.961,6.231,9.105,6.231,15.433
	c0,4.348-0.75,8.503-2.246,12.463c-1.498,3.961-3.84,8.115-7.028,12.463c-3.188,4.347-8.743,10.627-16.666,18.839l-28.186,29.418
	v6.376h66.298v-6.956h-56.662V307.077z"/>
<path d="M286.671,206.724c-11.401,0-19.89,4.445-25.47,13.333c-5.579,8.888-8.368,22.559-8.368,41.01
	c0,18.067,2.873,31.7,8.622,40.902c5.748,9.202,14.153,13.804,25.216,13.804c11.494,0,20.08-4.468,25.758-13.405
	c5.677-8.936,8.515-22.703,8.515-41.301c0-17.824-2.925-31.337-8.768-40.54C306.331,211.325,297.829,206.724,286.671,206.724z
	 M306.633,297.078c-4.179,8.115-10.833,12.173-19.962,12.173c-8.743,0-15.265-3.924-19.563-11.774
	c-4.301-7.85-6.449-19.986-6.449-36.41c0-15.65,2.053-27.533,6.159-35.648c4.104-8.115,10.724-12.173,19.854-12.173
	c9.129,0,15.783,4.058,19.962,12.173c4.176,8.115,6.268,19.998,6.268,35.648C312.9,276.961,310.809,288.963,306.633,297.078z"/>
<path d="M336.201,229.91l4.13,5.145c14.153-11.061,21.617-16.93,22.39-17.607c0.772-0.676,1.521-1.377,2.246-2.102
	c-0.58,7.536-0.869,14.807-0.869,21.81v77.167h7.101V208.39h-6.231L336.201,229.91z"/>
<path d="M464.677,258.82c-6.497-5.458-15.397-8.188-26.701-8.188c-4.251,0-10.144,0.701-17.68,2.102l3.261-37.388h44.199v-6.956
	h-51.01l-4.203,48.474l4.348,2.826c6.859-1.884,13.429-2.826,19.708-2.826c9.372,0,16.786,2.246,22.245,6.739
	c5.458,4.492,8.188,10.676,8.188,18.549c0,8.357-2.802,14.987-8.405,19.89s-13.042,7.354-22.316,7.354
	c-4.589,0-8.912-0.519-12.97-1.559c-4.058-1.038-8.695-2.886-13.912-5.543v7.463c3.188,1.933,7.149,3.418,11.883,4.457
	c4.734,1.038,9.733,1.558,14.999,1.558c11.883,0,21.206-3.019,27.968-9.058c6.764-6.038,10.145-14.491,10.145-25.359
	C474.422,271.791,471.174,264.28,464.677,258.82z"/>
</svg>
