<?xml version="1.0" encoding="utf-8"?>
<!-- Generator: Adobe Illustrator 16.0.0, SVG Export Plug-In . SVG Version: 6.00 Build 0)  -->
<!DOCTYPE svg PUBLIC "-//W3C//DTD SVG 1.1//EN" "http://www.w3.org/Graphics/SVG/1.1/DTD/svg11.dtd">
<svg version="1.1" id="Calque_1" xmlns="http://www.w3.org/2000/svg" xmlns:xlink="http://www.w3.org/1999/xlink" x="0px" y="0px"
	 width="512px" height="512px" viewBox="0 0 512 512" enable-background="new 0 0 512 512" xml:space="preserve">
<g>
	<path d="M114.455,282.778c-12.355-3.858-20.644-0.521-24.396,7.82l-24.71,55.257l-23.927-55.257
		c-3.597-8.343-12.042-11.68-24.397-7.82c-5.161,1.563-7.663,4.587-7.663,10.843v64.121h16.265v-64.226l25.178,55.988
		c2.971,6.777,7.039,9.178,15.014,9.178c7.976,0,11.886-2.399,14.856-9.178l25.179-55.988v64.226h16.266v-64.121
		C122.118,287.365,119.616,284.342,114.455,282.778z"/>
	<path d="M196.796,305.294v42.13c-0.287,0-30.823,0.071-35.37,0c-8.908-0.14-9.677-4.649-9.525-6.573v-35.386h-16.258
		c0.354,0.354-0.003,35.753,0.008,36.501c0.126,8.074,10.369,15.095,26.452,15.242h34.569v4.267c0.002,1.752,1.238,6.953-9.23,8.06
		c-0.13,0.013-51.356,0.001-51.446,0.001v10.941h51.354c8.146-0.236,25.817-3.313,25.728-17.484
		c-0.002-0.244,0.09-57.697,0.015-57.697L196.796,305.294L196.796,305.294z"/>
	<path d="M239.7,284.029c-9.696,3.023-13.918,7.819-13.918,16.159v9.487c0,7.3,8.287,13.556,22.206,15.015
		c1.565,0.105,3.128,0.209,4.692,0.209h16.889c0.628,0,1.255,0,1.723,0.104c5.161,0.419,7.35,1.355,8.914,3.233
		c0.938,0.937,1.252,1.876,1.252,2.918v9.487c0,1.146-0.783,2.606-2.347,3.856c-1.406,1.253-3.754,2.087-6.883,2.295
		c-0.626,0-1.093,0.104-1.719,0.104h-44.884v10.843h46.762c5.472,0,10.788-1.146,15.012-3.128
		c7.038-3.232,10.479-7.61,10.479-13.346V329.38c0-4.691-3.91-9.069-11.573-11.989c-4.066-1.564-9.071-2.397-13.917-2.397h-19.707
		c-6.568,0-9.695-1.98-10.478-6.359c-0.156-0.521-0.156-0.938-0.156-1.461v-7.402c0-0.416,0-0.833,0.156-1.354
		c0.782-3.337,2.503-4.275,8.289-4.797c0.469,0,1.095-0.104,1.563-0.104h46.448v-10.845h-45.666
		C246.27,282.673,242.828,283.09,239.7,284.029z"/>
	<path d="M415.605,338.766v-56.095H399.34v56.198c0,11.156,8.288,17.412,25.022,18.663c1.563,0.104,3.126,0.208,4.69,0.208h42.382
		v-10.843H428.74C419.2,346.899,415.605,344.5,415.605,338.766z"/>
	<path d="M389.12,339.44v-38.658c0-9.819-6.895-15.773-20.528-17.655c-1.565-0.208-2.978-0.313-4.545-0.313h-30.873
		c-1.408,0-2.978,0.105-4.389,0.313c-13.633,1.882-20.527,7.836-20.527,17.655v38.658c0,8.985,5.016,14.417,15.356,17.238
		c3.45,0.938,6.582,1.356,9.56,1.356h17.396l13.049-0.824l12.959,11.7h18.887l-16.021-14.463
		C386.194,351.672,389.12,347.407,389.12,339.44z M373.922,338.814c0,0.521,0,1.044-0.155,1.564
		c-0.501,2.283-1.938,4.063-4.119,5.227l-11.838-10.688h-18.886l13.573,12.254h-14.776c-6.425,0-10.655-2.508-11.596-7
		c-0.157-0.627-0.313-1.149-0.313-1.672v-36.775c0-4.911,4.701-8.046,11.909-8.046h24.604c6.269,0,10.499,2.403,11.44,6.584
		c0.155,0.521,0.155,1.044,0.155,1.462L373.922,338.814L373.922,338.814z"/>
	<path d="M496.262,302.215c1.339,0.98,2.239,2.511,3.979,3.126c0-0.096,0-0.188,0-0.283c-0.916-1.166-1.149-2.768-1.989-3.98
		c-1.23-1.23-2.465-2.465-3.695-3.696c-3.61-4.795-8.199-9.009-13.077-12.509c-3.887-2.79-12.591-6.562-14.214-11.087
		c-0.095-0.094-0.188-0.188-0.285-0.284c2.76-0.311,5.988-1.307,8.53-1.988c4.275-1.147,8.095-0.851,12.508-1.989
		c1.989-0.569,3.979-1.139,5.971-1.707c0-0.379,0-0.758,0-1.137c-2.231-2.289-3.821-5.32-6.255-7.393
		c-6.364-5.42-13.313-10.835-20.469-15.352c-3.966-2.505-8.87-4.133-13.076-6.254c-1.415-0.716-3.897-1.084-4.833-2.274
		c-2.211-2.816-3.412-6.386-5.116-9.666c-3.568-6.872-7.072-14.377-10.233-21.606c-2.156-4.931-3.564-9.792-6.255-14.215
		c-12.906-21.223-26.803-34.031-48.326-46.623c-4.579-2.678-10.095-3.734-15.921-5.115c-3.127-0.19-6.256-0.381-9.383-0.569
		c-1.907-0.799-3.895-3.133-5.686-4.264c-7.13-4.507-25.42-14.304-30.7-1.423c-3.335,8.132,4.983,16.065,7.957,20.185
		c2.09,2.892,4.762,6.132,6.257,9.382c0.979,2.136,1.149,4.277,1.989,6.539c2.067,5.568,3.864,11.626,6.538,16.771
		c1.351,2.604,2.839,5.35,4.547,7.678c1.048,1.428,2.843,2.057,3.129,4.263c-1.758,2.457-1.854,6.271-2.843,9.382
		c-4.443,14.008-2.768,31.422,3.695,41.79c1.981,3.184,6.653,10.01,13.077,7.393c5.616-2.288,4.36-9.381,5.969-15.636
		c0.365-1.418,0.143-2.462,0.854-3.413c0,0.097,0,0.191,0,0.285c1.706,3.411,3.412,6.824,5.118,10.235
		c3.786,6.098,10.508,12.472,16.203,16.771c2.954,2.232,5.279,6.09,9.098,7.396c0-0.098,0-0.191,0-0.284c-0.097,0-0.19,0-0.286,0
		c-0.738-1.155-1.896-1.633-2.842-2.561c-2.225-2.184-4.698-4.894-6.539-7.392c-5.179-7.034-9.758-14.729-13.928-22.743
		c-1.994-3.826-3.725-8.047-5.404-11.939c-0.646-1.502-0.637-3.772-1.986-4.549c-1.84,2.852-4.55,5.16-5.971,8.528
		c-2.273,5.387-2.569,11.952-3.411,18.764c-0.5,0.179-0.277,0.054-0.568,0.284c-3.959-0.955-5.353-5.031-6.822-8.53
		c-3.723-8.843-4.413-23.081-1.137-33.26c0.845-2.635,4.673-10.929,3.126-13.362c-0.739-2.428-3.182-3.83-4.549-5.687
		c-1.69-2.293-3.38-5.312-4.55-7.959c-3.047-6.896-4.469-14.636-7.677-21.605c-1.532-3.331-4.123-6.704-6.253-9.666
		c-2.355-3.281-4.995-5.697-6.824-9.665c-0.647-1.411-1.531-3.668-0.566-5.117c0.307-0.979,0.739-1.387,1.706-1.706
		c1.646-1.271,6.24,0.423,7.961,1.137c4.557,1.894,8.36,3.696,12.222,6.256c1.855,1.229,3.73,3.604,5.972,4.264
		c0.854,0,1.706,0,2.56,0c4.002,0.919,8.483,0.286,12.224,1.421c6.609,2.007,12.531,5.132,17.908,8.528
		c16.387,10.347,29.785,25.074,38.949,42.643c1.473,2.829,2.109,5.529,3.41,8.529c2.618,6.05,5.922,12.275,8.526,18.194
		c2.602,5.902,5.139,11.86,8.814,16.772c1.933,2.584,9.398,3.968,12.791,5.402c2.379,1.005,6.276,2.054,8.528,3.412
		c4.305,2.595,8.474,5.685,12.51,8.526c2.018,1.423,8.22,4.539,8.527,7.108c-9.998-0.273-17.636,0.656-24.165,3.411
		c-1.854,0.782-4.813,0.804-5.115,3.128c1.021,1.068,1.179,2.666,1.987,3.979c1.56,2.524,4.193,5.904,6.54,7.679
		c2.567,1.936,5.209,4.008,7.959,5.685c4.896,2.982,10.355,4.687,15.067,7.675C490.794,298.005,493.553,300.224,496.262,302.215z"/>
	<path d="M358.67,156.374c-2.082-0.037-3.559,0.229-5.116,0.568c0,0.095,0,0.189,0,0.285c0.095,0,0.188,0,0.284,0
		c0.993,2.043,2.75,3.357,3.979,5.117c0.947,1.989,1.896,3.98,2.843,5.97c0.095-0.095,0.188-0.189,0.285-0.284
		c1.761-1.241,2.566-3.226,2.559-6.255c-0.706-0.742-0.811-1.672-1.421-2.559C361.267,158.037,359.696,157.366,358.67,156.374z"/>
	<path d="M491.055,334.606c-6.328,0-11.985,4.824-11.985,11.983c0,7.161,5.657,11.986,11.985,11.986
		c6.33,0,11.986-4.825,11.986-11.986C503.041,339.43,497.385,334.606,491.055,334.606z M491.055,356.084
		c-5.209,0-9.3-4.06-9.3-9.493c0-5.433,4.091-9.493,9.3-9.493c5.147,0,9.302,4.062,9.302,9.493
		C500.357,352.024,496.202,356.084,491.055,356.084z"/>
	<path d="M496.745,343.682c0-2.779-1.76-3.932-5.145-3.932h-5.34v13.681h2.302v-5.914h2.142l3.58,5.914h2.685l-3.933-6.011
		C495.148,347.201,496.745,346.177,496.745,343.682z M488.564,345.6v-3.934h2.652c1.373,0,3.035,0.257,3.035,1.854
		c0,1.917-1.503,2.078-3.228,2.078L488.564,345.6L488.564,345.6z"/>
</g>
</svg>
