<?xml version="1.0" encoding="utf-8"?>
<!-- Generator: Adobe Illustrator 16.0.0, SVG Export Plug-In . SVG Version: 6.00 Build 0)  -->
<!DOCTYPE svg PUBLIC "-//W3C//DTD SVG 1.1//EN" "http://www.w3.org/Graphics/SVG/1.1/DTD/svg11.dtd">
<svg version="1.1" xmlns="http://www.w3.org/2000/svg" xmlns:xlink="http://www.w3.org/1999/xlink" x="0px" y="0px" width="512px"
	 height="512px" viewBox="0 0 512 512" enable-background="new 0 0 512 512" xml:space="preserve">
<g id="Calque_2">
</g>
<g id="Calque_3">
	<g>
		<path d="M52.96,188.178c4.577,31.637,17.206,72.658,39.54,100.658s55.333,58.665,60.667,61.665s6.333,0,12-12
			s35.667-75.667,35.667-75.667L264.5,383.833c0,0,2.667,10.332,5-6.334s5.667-30.999,7-36.666s4.667-2.667-5-21.667s-57-118-57-118
			s-0.021-2.759-2-2.667s-2.412,1.827-9.792,15.716s-50.875,101.617-50.875,101.617s-20.542-17.68-36.966-38.354
			C91.25,247.75,79.512,212.872,74.223,169.086c-6.473-53.586,7.381-95.909,7.381-95.909s0.045-0.161,0.144-0.458
			c-9.495,9.083-18.275,18.904-26.272,29.357C54.659,108.471,48.601,158.048,52.96,188.178z"/>
		<path d="M257.189,2.324c-51.462,0-99.337,15.33-139.337,41.649l0.652-0.303c0,0-0.152,0.327-0.435,0.952
			c-3.65,8.074-29.568,57.627-28.655,107.211c0.822,44.661,14.178,86.601,26.917,107.967S137,291.25,137,291.25l73.959-149.068
			l74.666,152.34c0,0,31.691-71.174,50.786-93.744s39.786-43.352,53.813-54.252s36.651-24.305,36.651-24.305
			s8.559-3.66,10.654,0.435s1.026,7.617-7.998,12.867s-35.195,19.471-59.113,45.537s-38.785,46.625-49.639,69.626
			s-23.757,58.036-23.757,58.036s-2.729,9.668,0.31,13.573s5.641,6.947,5.641,6.947s-0.258,7.271,4.775-6.077
			s15.638-42.534,30.392-65.534s28.027-44.465,43.111-56.854c11.34-9.314,15.588-15.232,19.082-11.276s-0.13,8.241-2.302,10.409
			s-29.243,25.814-43.4,49.475c-14.318,23.929-27.342,47.31-35.595,73.35s-17.633,57.809-17.633,57.809l-11.236-20.708
			c0,0-3.88-8.726-5.525,2.304s-4.252,29.109-4.252,49.568s-0.14,28.044-0.14,28.044l-76.255-143.922c0,0-1.412-3.099-2.173-3.039
			c-1.3,0.102-4.34,6.51-4.34,6.51L164.5,371.165c0,0-36.577-19.261-71.622-42.797s-58.654-57.502-65.785-68.68
			S6.942,219.866,6.942,219.866s-0.195-1.404-0.417-3.861c-2.08,13.082-3.173,26.491-3.173,40.157
			C3.351,396.352,116.998,510,257.189,510c140.19,0,253.837-113.647,253.837-253.838S397.379,2.324,257.189,2.324z"/>
	</g>
</g>
</svg>
