<?xml version="1.0" encoding="utf-8"?>
<!-- Generator: Adobe Illustrator 16.0.0, SVG Export Plug-In . SVG Version: 6.00 Build 0)  -->
<!DOCTYPE svg PUBLIC "-//W3C//DTD SVG 1.1//EN" "http://www.w3.org/Graphics/SVG/1.1/DTD/svg11.dtd">
<svg version="1.1" id="Layer_1" xmlns="http://www.w3.org/2000/svg" xmlns:xlink="http://www.w3.org/1999/xlink" x="0px" y="0px"
	 width="512px" height="510px" viewBox="0 0 512 510" enable-background="new 0 0 512 510" xml:space="preserve">
<path d="M463.298,271.345c-1.685-2.715-4.212-5.141-7.58-7.278c-3.369-2.137-8.749-4.537-16.141-7.202
	c-8.85-3.168-14.796-6.034-17.837-8.599c-3.043-2.564-4.563-5.983-4.563-10.257c0-3.922,1.961-6.989,5.883-9.202
	c3.923-2.212,9.227-3.319,15.915-3.319c6.888,0,14.354,1.659,22.4,4.978l2.791-6.788c-7.946-3.319-16.343-4.978-25.191-4.978
	c-9.253,0-16.456,1.786-21.609,5.355c-1.057,0.732-2,1.521-2.84,2.362h-7.993l1.126-2.739c-7.946-3.319-16.343-4.978-25.191-4.978
	c-9.253,0-16.456,1.786-21.609,5.355c-5.154,3.571-7.73,8.423-7.73,14.557c0,0.796,0.045,1.56,0.115,2.306h-3.979
	c-1.395-4.656-3.504-8.694-6.333-12.11c-5.582-6.738-13.199-10.107-22.854-10.107c-8.353,0-15.389,2.314-21.118,6.925h-12.201
	l1.174-5.869c-3.973-0.704-7.693-1.056-11.163-1.056c-5.431,0-10.057,1.22-13.878,3.658c-3.821,2.439-7.417,6.675-10.785,12.708
	h-0.528l-0.754-14.783h-6.335v40.466h-7.263c-0.079-13.598-2.976-23.985-8.704-31.151c-5.808-7.266-14.243-10.899-25.304-10.899
	c-12.37,0-21.371,4.425-27.001,13.274h-0.453l-1.433-11.69h-3.996h-2.34h-4.465H161h-5.692l-24.211,34.543l-24.437-34.543h-8.598
	l28.585,39.824l-27.771,39.4v-4.329h-52.57v-47.29h49.628v-7.09H46.306V199.09h52.57V192H38.613v110.269H96.93h1.946h6.275
	l25.946-36.58l25.794,36.58h8.674l-30.169-42.161L163.023,221h4.971v118.377h7.467v-31.226c0-4.425-0.101-8.497-0.302-12.219
	l-0.226-6.335h0.528c5.782,9.454,14.983,14.18,27.605,14.18c10.559,0,18.894-3.708,25.002-11.125
	c6.109-7.416,9.164-17.862,9.164-31.339c0-0.148-0.005-0.291-0.006-0.438h7.262v41.394h7.467v-45.254
	c0-9.051,2.237-16.542,6.713-22.476c4.474-5.933,10.206-8.9,17.195-8.9c3.67,0,7.215,0.428,10.635,1.282l0.222-1.108h12.013
	c-1.669,1.369-3.232,2.926-4.676,4.691c-6.438,7.87-9.654,18.341-9.654,31.414c0,13.226,3.33,23.508,9.993,30.849
	c6.662,7.342,15.952,11.012,27.869,11.012c4.726,0,9.051-0.365,12.973-1.094s8.195-2.099,12.822-4.11v-6.788
	c-5.431,2.162-9.919,3.57-13.464,4.224c-3.544,0.653-7.655,0.98-12.331,0.98c-9.604,0-16.983-2.967-22.137-8.9
	c-5.155-5.933-7.781-14.53-7.882-25.795h59.057v-6.033c0-5.633-0.668-10.689-1.992-15.177h3.946c0.29,2.814,1.084,5.274,2.396,7.371
	c1.685,2.69,4.187,5.104,7.505,7.24c3.318,2.139,9.075,4.689,17.271,7.656c7.643,2.715,13.136,5.48,16.48,8.296
	c3.343,2.816,5.016,6.286,5.016,10.408c0,4.477-2.101,8.059-6.298,10.748c-4.199,2.69-10.346,4.035-18.441,4.035
	c-9.151,0-17.851-2.061-26.096-6.185v8.07c6.436,3.369,15.134,5.054,26.096,5.054c10.258,0,18.177-1.973,23.759-5.921
	c5.581-3.947,8.372-9.591,8.372-16.933c0-3.67-0.843-6.863-2.527-9.579c-1.685-2.715-4.212-5.141-7.58-7.278
	c-3.369-2.137-8.749-4.537-16.141-7.202c-8.85-3.168-14.796-6.034-17.837-8.599c-3.043-2.564-4.563-5.983-4.563-10.257
	c0-3.922,1.961-6.989,5.883-9.202c3.923-2.212,9.227-3.319,15.915-3.319c6.888,0,14.354,1.659,22.4,4.978l1.563-3.799h7.852
	c-3.093,3.214-4.646,7.193-4.646,11.945c0,3.873,0.842,7.153,2.526,9.843c1.685,2.69,4.187,5.104,7.505,7.24
	c3.318,2.139,9.075,4.689,17.271,7.656c7.643,2.715,13.136,5.48,16.48,8.296c3.343,2.816,5.016,6.286,5.016,10.408
	c0,4.477-2.101,8.059-6.298,10.748c-4.199,2.69-10.346,4.035-18.441,4.035c-9.151,0-17.851-2.061-26.096-6.185v8.07
	c6.436,3.369,15.134,5.054,26.096,5.054c10.258,0,18.177-1.973,23.759-5.921c5.581-3.947,8.372-9.591,8.372-16.933
	C465.825,277.254,464.982,274.061,463.298,271.345z M222.411,287.787c-4.601,6.235-11.1,9.353-19.497,9.353
	c-9.705,0-16.706-2.74-21.005-8.221s-6.449-14.633-6.449-27.454v-2.414c0-11.866,2.237-20.426,6.713-25.681
	c4.475-5.254,11.489-7.882,21.043-7.882c17.396,0,26.096,12.043,26.096,36.127C229.313,272.829,227.012,281.553,222.411,287.787z
	 M292.698,255.657c0.804-9.805,3.595-17.31,8.372-22.514c4.776-5.204,11.112-7.806,19.007-7.806c7.29,0,12.998,2.678,17.121,8.033
	c4.122,5.355,6.185,12.784,6.185,22.288H292.698z"/>
</svg>
