<?xml version="1.0" encoding="utf-8"?>
<!-- Generator: Adobe Illustrator 16.0.0, SVG Export Plug-In . SVG Version: 6.00 Build 0)  -->
<!DOCTYPE svg PUBLIC "-//W3C//DTD SVG 1.1//EN" "http://www.w3.org/Graphics/SVG/1.1/DTD/svg11.dtd">
<svg version="1.1" id="Calque_1" xmlns="http://www.w3.org/2000/svg" xmlns:xlink="http://www.w3.org/1999/xlink" x="0px" y="0px"
	 width="512px" height="512px" viewBox="0 0 512 512" enable-background="new 0 0 512 512" xml:space="preserve">
<g>
	<polygon fill="none" points="355.681,255.999 253.01,197.474 150.339,255.999 253.01,314.525 	"/>
	<polygon fill="none" points="115.128,393.246 183.067,354.517 115.128,315.791 	"/>
	<polygon fill="none" points="115.129,112.473 115.129,196.21 188.576,154.342 	"/>
	<polygon fill="none" points="390.891,393.246 390.891,315.79 322.952,354.518 	"/>
	<polygon fill="none" points="317.444,154.342 390.891,196.21 390.891,112.473 	"/>
	<path d="M253.01,117.489L46.905,0V235.1v41.8V512l206.104-117.491v-0.121l0.001,0.001v0.12L459.114,512V276.9v-41.8V0
		L253.01,117.489z M115.129,112.473l73.447,41.868l-73.447,41.868V112.473z M115.128,393.246v-77.455l67.938,38.727L115.128,393.246
		z M150.339,255.999l102.671-58.525l102.671,58.525L253.01,314.525L150.339,255.999z M390.891,393.246l-67.938-38.728l67.938-38.729
		V393.246z M317.444,154.342l73.447-41.869v83.737L317.444,154.342z"/>
</g>
</svg>
