<?xml version="1.0" encoding="utf-8"?>
<!-- Generator: Adobe Illustrator 16.0.0, SVG Export Plug-In . SVG Version: 6.00 Build 0)  -->
<!DOCTYPE svg PUBLIC "-//W3C//DTD SVG 1.1//EN" "http://www.w3.org/Graphics/SVG/1.1/DTD/svg11.dtd">
<svg version="1.1" id="Layer_1" xmlns="http://www.w3.org/2000/svg" xmlns:xlink="http://www.w3.org/1999/xlink" x="0px" y="0px"
	 width="512px" height="510px" viewBox="0 0 512 510" enable-background="new 0 0 512 510" xml:space="preserve">
<path d="M112.167,269.936v-61.662h22.059v61.662c0,9.375-2.818,16.686-8.45,21.931c-5.634,5.246-12.835,7.869-21.607,7.869
	c-8.772,0-15.954-2.601-21.543-7.805c-5.591-5.202-8.385-12.533-8.385-21.995h21.93c0.084,3.441,0.858,5.979,2.322,7.611
	c1.461,1.635,3.354,2.451,5.676,2.451c2.322,0,4.235-0.816,5.74-2.451C111.413,275.914,112.167,273.377,112.167,269.936z"/>
<path d="M187.502,224.398c-2.753,0-5.011,0.732-6.773,2.193c-1.764,1.463-2.645,3.569-2.645,6.321c0,2.753,0.816,4.967,2.451,6.644
	c1.633,1.677,3.761,2.967,6.386,3.87c2.622,0.903,5.547,1.764,8.772,2.58c3.225,0.818,6.428,1.806,9.61,2.967
	c3.181,1.161,6.083,2.602,8.708,4.322c2.623,1.721,4.751,4.15,6.386,7.288c1.633,3.141,2.451,6.901,2.451,11.288
	c0,7.655-3.118,14.212-9.353,19.673c-6.237,5.462-14.448,8.191-24.639,8.191c-10.191,0-18.405-2.451-24.639-7.354
	c-6.236-4.902-9.353-11.868-9.353-20.898h23.478c0.601,7.225,4.299,10.837,11.094,10.837c3.181,0,5.676-0.839,7.482-2.516
	c1.806-1.678,2.709-3.806,2.709-6.386s-0.818-4.687-2.451-6.321c-1.635-1.633-3.763-2.923-6.385-3.87
	c-2.625-0.945-5.547-1.826-8.772-2.645c-3.225-0.816-6.43-1.826-9.61-3.031c-3.183-1.203-6.085-2.645-8.708-4.321
	c-2.625-1.677-4.753-4.084-6.386-7.224c-1.635-3.139-2.451-6.857-2.451-11.159c0-8.427,3.138-15.178,9.417-20.253
	c6.276-5.074,14.297-7.611,24.059-7.611c9.76,0,17.651,2.215,23.671,6.644c6.019,4.431,9.159,11.417,9.417,20.963h-23.995
	c-0.344-3.268-1.398-5.783-3.16-7.547C192.511,225.281,190.253,224.398,187.502,224.398z"/>
<path d="M248.454,286.577c-8.988-8.772-13.48-19.866-13.48-33.282s4.493-24.488,13.48-33.218
	c8.986-8.728,19.996-13.094,33.025-13.094s23.994,4.366,32.895,13.094c8.902,8.729,13.352,19.802,13.352,33.218
	s-4.473,24.51-13.416,33.282c-8.945,8.771-19.91,13.158-32.895,13.158C268.428,299.735,257.439,295.349,248.454,286.577z
	 M298.764,272.258c4.342-4.729,6.516-11.05,6.516-18.963c0-7.912-2.174-14.232-6.516-18.963c-4.344-4.729-10.148-7.095-17.414-7.095
	c-7.27,0-13.074,2.366-17.416,7.095c-4.344,4.731-6.514,11.052-6.514,18.963c0,7.913,2.17,14.234,6.514,18.963
	c4.342,4.73,10.146,7.095,17.416,7.095C288.615,279.353,294.42,276.988,298.764,272.258z"/>
<path d="M400.867,208.016h22.059v90.816h-22.059l-36.895-57.147v57.147h-22.059v-90.816h22.059l36.895,57.147V208.016z"/>
<path d="M58.528,286.688c0,4.326-0.559,10.745-1.674,19.254c-1.118,8.512-1.674,15.419-1.674,20.719
	c0,13.813,2.649,25.638,7.953,35.474c5.301,9.836,12.139,16.288,20.51,19.358v3.349H47.227c-5.582-2.652-10.604-6.628-15.068-11.929
	c-8.371-10.187-12.557-24.418-12.557-42.693c0-5.023,0.592-11.857,1.779-20.51c1.184-8.649,1.779-15.592,1.779-20.824
	c0-5.231-1.569-10.009-4.709-14.335c-3.139-4.323-8.338-6.557-15.591-6.697v-12.557c7.253-0.138,12.452-2.371,15.591-6.697
	c3.14-4.323,4.709-9.104,4.709-14.336s-0.595-12.171-1.779-20.824c-1.187-8.649-1.779-16.497-1.779-23.544
	c0-7.043,1.01-14.09,3.035-21.138c2.021-7.043,4.708-12.521,8.057-16.428c5.441-6.697,10.951-11.37,16.533-14.022h36.415v3.349
	c-8.371,3.07-15.209,9.522-20.51,19.358c-5.304,9.836-7.953,21.661-7.953,35.473c0,5.304,0.556,12.21,1.674,20.719
	c1.115,8.512,1.674,14.931,1.674,19.254c0,13.813-7.397,22.115-22.184,24.904v0.419C51.131,264.576,58.528,272.876,58.528,286.688z"
	/>
<path d="M477.308,255.784v-0.419c-14.786-2.789-22.184-11.091-22.184-24.904c0-4.323,0.56-10.742,1.675-19.254
	c1.117-8.508,1.674-15.415,1.674-20.719c0-13.813-2.648-25.637-7.953-35.473c-5.301-9.836-12.139-16.288-20.51-19.358v-3.349h36.416
	c5.582,2.652,11.092,7.325,16.533,14.022c3.348,3.908,6.036,9.385,8.057,16.428c2.024,7.047,3.035,14.094,3.035,21.138
	c0,7.047-0.592,14.895-1.779,23.544c-1.184,8.653-1.779,15.592-1.779,20.824s1.57,10.013,4.709,14.336
	c3.14,4.326,8.339,6.56,15.592,6.697v12.557c-7.253,0.141-12.452,2.374-15.592,6.697c-3.139,4.326-4.709,9.104-4.709,14.335
	c0,5.232,0.596,12.175,1.779,20.824c1.188,8.652,1.779,15.486,1.779,20.51c0,18.275-4.186,32.507-12.557,42.693
	c-4.465,5.301-9.486,9.276-15.068,11.929H430.01v-3.349c8.371-3.07,15.209-9.522,20.51-19.358c5.305-9.836,7.953-21.66,7.953-35.474
	c0-5.3-0.557-12.207-1.674-20.719c-1.115-8.509-1.675-14.928-1.675-19.254C455.124,266.876,462.521,258.576,477.308,255.784z"/>
</svg>
