<?xml version="1.0" encoding="utf-8"?>
<!-- Generator: Adobe Illustrator 15.0.0, SVG Export Plug-In . SVG Version: 6.00 Build 0)  -->
<!DOCTYPE svg PUBLIC "-//W3C//DTD SVG 1.1//EN" "http://www.w3.org/Graphics/SVG/1.1/DTD/svg11.dtd">
<svg version="1.1" id="Calque_1" xmlns="http://www.w3.org/2000/svg" xmlns:xlink="http://www.w3.org/1999/xlink" x="0px" y="0px"
	 width="512px" height="512px" viewBox="0 0 512 512" enable-background="new 0 0 512 512" xml:space="preserve">
<g>
	<path fill-rule="evenodd" clip-rule="evenodd" d="M486.222,144.883c-17.454,13.315-36.679,24.857-55.963,36.34
		c-6.331-19.448-36.877-38.396-62.505-26.892c-11.658,5.233-22.129,20.594-15.988,39.247c5.479,16.64,27.816,25.738,45.787,33.432
		c54.396,23.29,115.186,46.052,109.744,127.188c-4.002,59.694-52.737,91.386-118.466,91.574
		c-64.432,0.186-105.673-28.456-130.821-72.679c18.079-12.445,38.569-22.478,57.417-34.158
		c15.083,23.586,41.205,46.259,79.946,42.881c24.138-2.105,52.156-21.782,36.34-51.604c-7.669-14.455-26.208-21.795-42.882-29.07
		c-52.894-23.082-114.959-44.251-109.018-127.188c1.984-27.71,14.738-47.177,31.251-61.05
		c16.926-14.218,39.597-23.745,69.773-24.711C435.646,86.44,465.713,110.822,486.222,144.883z"/>
	<path fill-rule="evenodd" clip-rule="evenodd" d="M148.266,92.555c23.5,0,47,0,70.498,0c0,55.044,0,117.329,0,175.881
		c0,63.743,4.551,117.296-26.891,148.992c-17.694,17.835-45.607,28.344-79.947,28.344c-56.325,0-87.602-27.443-107.564-65.41
		c19.217-12.276,38.857-24.132,58.87-35.612c8.167,22.845,35.742,48.518,66.864,32.706c19.721-10.021,17.442-40.421,17.442-73.406
		c0-68.497,0-147.519,0-209.314C147.477,93.704,147.419,92.677,148.266,92.555z"/>
</g>
</svg>
