<?xml version="1.0" encoding="utf-8"?>
<!-- Generator: Adobe Illustrator 16.0.0, SVG Export Plug-In . SVG Version: 6.00 Build 0)  -->
<!DOCTYPE svg PUBLIC "-//W3C//DTD SVG 1.1//EN" "http://www.w3.org/Graphics/SVG/1.1/DTD/svg11.dtd">
<svg version="1.1" id="Calque_1" xmlns="http://www.w3.org/2000/svg" xmlns:xlink="http://www.w3.org/1999/xlink" x="0px" y="0px"
	 width="512px" height="512px" viewBox="0 0 512 512" enable-background="new 0 0 512 512" xml:space="preserve">
<g>
	<path d="M258.923,342.84l-7.962-2.719c0,0,0.972-40.592-13.595-43.508c-9.712-11.264,1.554-477.804,36.514-1.553
		c0,0-12.04,6.021-14.178,16.314C257.371,321.476,258.923,342.84,258.923,342.84L258.923,342.84L258.923,342.84z"/>
	<path d="M263.198,303.605c0,0,69.728-45.837,53.412-141.204c-15.732-69.34-52.83-92.064-56.908-100.805
		c-4.467-6.215-8.742-17.092-8.742-17.092l2.915,192.868C253.875,237.568,247.853,296.42,263.198,303.605"/>
	<path d="M246.883,306.131c0,0-65.455-44.673-61.57-123.333c3.689-78.665,49.916-117.316,58.851-124.309
		c5.827-6.215,6.022-8.547,6.411-14.762c4.078,8.742,3.301,130.717,3.883,145.089C256.206,244.172,251.349,295.644,246.883,306.131
		L246.883,306.131L246.883,306.131z"/>
</g>
<path d="M469.869,351.366c-0.547,0.11-1.094,1.315-1.094,1.971c-0.109,4.376-0.219,15.974-0.219,23.848
	c0,0.219,0.328,0.657,0.656,0.657c1.641,0.108,5.578,0.217,8.969,0.217c4.705,0,7.439-0.655,8.971-1.311
	c3.938-1.97,5.797-6.237,5.797-10.942c0-10.61-7.438-14.658-18.486-14.658C473.699,351.04,471.51,351.04,469.869,351.366
	L469.869,351.366L469.869,351.366z M498.094,400.267c0-10.831-7.986-16.849-22.428-16.849c-0.654,0-5.25-0.109-6.344,0.111
	c-0.328,0.108-0.766,0.328-0.766,0.657c0,7.766-0.109,20.126,0.219,24.94c0.219,2.079,1.75,5.031,3.609,5.906
	c1.969,1.095,6.453,1.313,9.518,1.313C490.545,416.346,498.094,411.533,498.094,400.267L498.094,400.267L498.094,400.267z
	 M447.553,345.351c1.094,0,4.375,0.326,12.799,0.326c7.986,0,14.33-0.218,22.098-0.218c9.516,0,22.645,3.391,22.645,17.611
	c0,7.001-4.922,12.581-11.377,15.315c-0.328,0.112-0.328,0.33,0,0.438c9.188,2.298,17.283,7.986,17.283,18.709
	c0,10.502-6.563,17.173-16.08,21.33c-5.799,2.517-13.018,3.392-20.348,3.392c-5.578,0-20.564-0.657-28.879-0.438
	c-0.875-0.328,0.766-4.267,1.531-4.922c1.969-0.111,3.5-0.22,5.578-0.875c2.955-0.767,3.283-1.642,3.719-6.127
	c0.221-3.829,0.221-17.395,0.221-27.021c0-13.237,0.109-22.207,0-26.581c-0.109-3.394-1.313-4.486-3.721-5.145
	c-1.857-0.328-4.922-0.765-7.439-1.092C445.035,349.507,446.897,345.789,447.553,345.351L447.553,345.351L447.553,345.351z
	 M384.432,413.395c2.627,2.076,7.768,2.951,12.363,2.951c5.908,0,11.813-1.093,17.502-6.235c5.799-5.251,9.846-13.345,9.846-26.253
	c0-12.364-4.705-22.429-14.33-28.334c-5.471-3.393-12.473-4.814-20.568-4.814c-2.404,0-4.701,0.109-6.123,0.767
	c-0.33,0.219-1.096,1.205-1.096,1.751c-0.217,2.188-0.217,19.033-0.217,28.881c0,10.173,0,24.394,0.217,26.033
	C382.026,409.785,382.791,412.3,384.432,413.395L384.432,413.395L384.432,413.395z M359.6,345.351
	c2.078,0,10.064,0.326,13.893,0.326c6.891,0,11.814-0.326,24.834-0.326c10.939,0,20.127,2.954,26.691,8.531
	c7.984,6.892,12.143,16.411,12.143,28.006c0,16.52-7.547,26.034-15.098,31.507c-7.547,5.577-17.393,8.859-31.395,8.859
	c-7.438,0-20.238-0.219-30.85-0.327h-0.109c-0.547-0.985,0.875-4.815,1.75-4.923c2.846-0.329,3.609-0.438,5.033-0.984
	c2.295-0.876,2.734-2.079,3.064-6.127c0.326-7.547,0.217-16.628,0.217-26.91c0-7.331,0.109-21.661-0.109-26.255
	c-0.328-3.83-1.967-4.813-5.25-5.472c-1.643-0.326-3.83-0.764-6.893-1.093C357.084,349.398,359.055,346.006,359.6,345.351
	L359.6,345.351L359.6,345.351z"/>
<path d="M227.235,417.66c-2.734-0.329-4.703-0.765-7.111-1.86c-0.328-0.219-0.875-1.313-0.875-1.749
	c-0.219-3.831-0.219-14.768-0.219-22.098c0-5.909-0.984-11.048-3.5-14.657c-2.954-4.159-7.219-6.564-12.689-6.564
	c-4.813,0-11.269,3.28-16.628,7.877c-0.11,0.108-0.984,0.875-0.875-0.329c0-1.204,0.22-3.611,0.329-5.252
	c0.11-1.533-0.765-2.296-0.765-2.296c-3.502,1.75-13.347,4.047-16.957,4.376c-2.625,0.545-3.281,3.063-0.547,3.938h0.11
	c2.953,0.876,4.922,1.86,6.453,2.844c1.094,0.875,0.985,2.078,0.985,3.063c0.109,8.206,0.109,20.785-0.218,27.677
	c-0.11,2.735-0.875,3.719-2.844,4.156l0.218-0.108c-1.532,0.329-2.735,0.655-4.595,0.875c-0.657,0.655-0.657,4.157,0,4.922
	c1.204,0,7.548-0.329,12.799-0.329c7.221,0,10.94,0.329,12.8,0.329c0.765-0.875,0.985-4.155,0.546-4.922
	c-2.079-0.109-3.61-0.329-5.031-0.767c-1.969-0.438-2.517-1.421-2.626-3.718c-0.218-5.798-0.218-18.051-0.218-26.364
	c0-2.297,0.655-3.393,1.312-4.048c2.516-2.188,6.564-3.72,10.174-3.72c3.501,0,5.798,1.095,7.548,2.517
	c2.406,1.968,3.172,4.813,3.501,6.892c0.546,4.703,0.327,14.004,0.327,22.098c0,4.376-0.327,5.469-1.969,6.015
	c-0.765,0.329-2.734,0.767-5.032,0.986c-0.766,0.765-0.546,4.156,0,4.924c3.173,0,6.893-0.329,12.363-0.329
	c6.782,0,11.157,0.329,12.907,0.329C227.453,421.708,227.673,418.534,227.235,417.66L227.235,417.66L227.235,417.66z
	 M257.537,375.874c-5.797,0-9.407,4.483-9.407,11.483c0,7.112,3.171,15.315,12.141,15.315c1.531,0,4.375-0.655,5.689-2.188
	c2.076-1.968,3.5-5.906,3.5-10.063C269.461,381.342,264.975,375.874,257.537,375.874L257.537,375.874L257.537,375.874z
	 M256.771,424.224c-2.187,0-3.72,0.656-4.703,1.202c-4.596,2.953-6.674,5.799-6.674,9.19c0,3.172,1.203,5.685,3.83,7.876
	c3.171,2.734,7.547,4.048,13.126,4.048c11.158,0,16.082-6.018,16.082-11.924c0-4.159-2.08-6.894-6.346-8.423
	C269.022,424.881,263.444,424.224,256.771,424.224L256.771,424.224L256.771,424.224z M257.537,452.666
	c-6.673,0-11.487-1.424-15.644-4.595c-4.047-3.063-5.798-7.657-5.798-10.828c0-0.876,0.219-3.283,2.188-5.472
	c1.203-1.313,3.829-3.826,10.064-8.095c0.217-0.108,0.327-0.217,0.327-0.438c0-0.22-0.218-0.438-0.438-0.546
	c-5.142-1.972-6.672-5.143-7.11-6.894v-0.219c-0.108-0.655-0.328-1.312,0.657-1.969c0.766-0.546,1.86-1.203,3.063-1.968
	c1.86-1.095,3.828-2.3,5.032-3.283c0.219-0.22,0.219-0.438,0.219-0.654c0-0.222-0.219-0.438-0.438-0.548
	c-7.657-2.516-11.485-8.204-11.485-16.737c0-5.579,2.516-10.613,7-13.784c3.062-2.406,10.72-5.359,15.752-5.359h0.329
	c5.14,0.107,7.985,1.203,12.032,2.625c2.188,0.765,4.268,1.093,7.111,1.093c4.266,0,6.125-1.311,7.656-2.843
	c0.111,0.216,0.33,0.767,0.438,2.188c0.109,1.422-0.326,3.501-1.422,5.033c-0.875,1.202-2.846,2.077-4.813,2.077h-0.547
	c-1.971-0.218-2.846-0.438-2.846-0.438l-0.436,0.221c-0.111,0.218,0,0.438,0.109,0.764l0.107,0.221
	c0.219,0.983,0.656,3.938,0.656,4.703c0,8.97-3.609,12.909-7.438,15.86c-3.719,2.737-7.986,4.487-12.799,4.926
	c-0.11,0-0.547,0-1.531,0.107c-0.548,0-1.313,0.108-1.422,0.108h-0.109c-0.875,0.219-3.063,1.313-3.063,3.174
	c0,1.642,0.984,3.609,5.688,3.938c0.984,0.11,1.969,0.11,3.063,0.22c6.236,0.438,14.002,0.984,17.611,2.188
	c5.031,1.859,8.205,6.345,8.205,11.706c0,8.096-5.797,15.643-15.424,20.346C267.383,451.571,262.678,452.666,257.537,452.666
	L257.537,452.666L257.537,452.666z M319.891,376.42c-2.299,0-4.375,0.546-5.908,1.639c-4.266,2.625-6.453,7.877-6.453,15.535
	c0,14.329,7.219,24.395,17.502,24.395c3.064,0,5.471-0.876,7.551-2.625c3.17-2.625,4.813-7.878,4.813-15.205
	C337.395,385.935,330.283,376.42,319.891,376.42L319.891,376.42L319.891,376.42z M321.86,423.239
	c-18.596,0-25.27-13.674-25.27-26.473c0-8.969,3.609-15.861,10.828-20.785c5.143-3.171,11.27-4.923,16.738-4.923
	c14.221,0,24.178,10.175,24.178,24.832c0,9.956-3.939,17.831-11.486,22.644C333.237,420.942,327,423.239,321.86,423.239
	L321.86,423.239L321.86,423.239z M126.922,376.42c-2.298,0-4.375,0.546-5.908,1.639c-4.266,2.625-6.454,7.877-6.454,15.535
	c0,14.329,7.221,24.395,17.503,24.395c3.063,0,5.468-0.876,7.548-2.625c3.172-2.625,4.813-7.878,4.813-15.205
	C144.425,385.935,137.424,376.42,126.922,376.42L126.922,376.42L126.922,376.42z M128.892,423.239
	c-18.598,0-25.271-13.674-25.271-26.473c0-8.969,3.61-15.861,10.829-20.785c5.142-3.171,11.269-4.923,16.739-4.923
	c14.221,0,24.176,10.175,24.176,24.832c0,9.956-3.938,17.831-11.487,22.644C140.376,420.942,134.141,423.239,128.892,423.239
	L128.892,423.239L128.892,423.239z M3.854,422.143c-0.218-0.326-0.438-1.311-0.329-2.513c0-0.877,0.22-1.425,0.329-1.643
	c2.297-0.328,3.501-0.657,4.813-0.983c2.189-0.55,3.064-1.751,3.173-4.485c0.329-6.563,0.329-19.036,0.219-27.677v-0.221
	c0-0.983,0-2.188-1.203-3.062c-1.751-1.094-3.83-2.077-6.564-2.844c-0.985-0.33-1.642-0.875-1.532-1.532
	c0-0.656,0.656-1.422,2.079-1.64c3.609-0.33,13.017-2.625,16.736-4.267c0.219,0.216,0.548,0.875,0.548,1.749l-0.11,1.204
	c-0.109,1.202-0.219,2.626-0.219,4.048c0,0.438,0.438,0.766,0.875,0.766c0.218,0,0.438-0.11,0.658-0.221
	c7-5.469,13.345-7.438,16.625-7.438c5.361,0,9.519,2.518,12.692,7.769c0.218,0.329,0.436,0.438,0.765,0.438
	c0.219,0,0.546-0.108,0.657-0.328c6.454-4.923,12.907-7.878,17.174-7.878c10.174,0,16.19,7.549,16.19,20.348
	c0,3.608,0,8.313-0.108,12.58c0,3.828-0.11,7.331-0.11,9.846c0,0.547,0.767,2.296,1.969,2.625c1.531,0.767,3.61,1.095,6.345,1.533
	h0.109c0.219,0.764-0.219,3.61-0.656,4.155c-0.657,0-1.641,0-2.735-0.107c-2.079-0.11-5.033-0.222-8.313-0.222
	c-6.783,0-10.283,0.111-13.675,0.329c-0.217-0.875-0.328-3.5,0-4.155c1.969-0.329,2.954-0.657,4.157-0.986
	c2.188-0.655,2.735-1.64,2.844-4.485c0-2.076,0.438-19.8-0.219-24.064c-0.657-4.376-3.938-9.518-11.159-9.518
	c-2.734,0-7,1.094-11.159,4.267c-0.217,0.218-0.436,0.764-0.436,1.092v0.111c0.436,2.297,0.436,4.923,0.436,8.971v7.11
	c0,4.922-0.108,9.518,0,13.016c0,2.408,1.423,2.954,2.627,3.392c0.656,0.109,1.093,0.22,1.641,0.329
	c0.985,0.221,1.969,0.438,3.5,0.767c0.219,0.437,0.219,1.858-0.11,3.063c-0.109,0.656-0.328,0.985-0.437,1.093
	c-3.719-0.107-7.548-0.218-13.127-0.218c-1.641,0-4.485,0.11-6.893,0.11c-1.97,0-3.829,0.107-4.922,0.107
	c-0.109-0.218-0.329-0.983-0.329-2.188c0-0.984,0.219-1.751,0.438-1.968c0.546-0.111,0.984-0.221,1.531-0.221
	c1.312-0.218,2.406-0.437,3.5-0.655c1.859-0.546,2.516-1.532,2.625-3.938c0.329-5.468,0.656-21.111-0.109-25.051
	c-1.313-6.344-4.922-9.518-10.721-9.518c-3.391,0-7.658,1.642-11.158,4.267c-0.547,0.438-0.985,1.532-0.985,2.517v6.455
	c0,7.874,0,17.721,0.11,21.986c0.109,1.313,0.546,2.846,3.063,3.392c0.546,0.109,1.421,0.328,2.516,0.438l1.968,0.329
	c0.219,0.655,0.11,3.28-0.328,4.155c-1.095,0-2.406-0.107-3.938-0.107c-2.297-0.11-5.25-0.222-8.532-0.222
	c-3.829,0-6.564,0.111-8.752,0.222C6.37,422.143,5.167,422.143,3.854,422.143L3.854,422.143L3.854,422.143z"/>
</svg>
