<?xml version="1.0" encoding="utf-8"?>
<!-- Generator: Adobe Illustrator 16.0.0, SVG Export Plug-In . SVG Version: 6.00 Build 0)  -->
<!DOCTYPE svg PUBLIC "-//W3C//DTD SVG 1.1//EN" "http://www.w3.org/Graphics/SVG/1.1/DTD/svg11.dtd">
<svg version="1.1"
	 id="svg3355" xmlns:svg="http://www.w3.org/2000/svg" xmlns:inkscape="http://www.inkscape.org/namespaces/inkscape" xmlns:sodipodi="http://sodipodi.sourceforge.net/DTD/sodipodi-0.dtd" xmlns:rdf="http://www.w3.org/1999/02/22-rdf-syntax-ns#" xmlns:cc="http://creativecommons.org/ns#" xmlns:dc="http://purl.org/dc/elements/1.1/" sodipodi:docname="NodeJS_New_Pantone.ai.svg" inkscape:version="0.91 r13725"
	 xmlns="http://www.w3.org/2000/svg" xmlns:xlink="http://www.w3.org/1999/xlink" x="0px" y="0px" width="750px" height="750px"
	 viewBox="0 0 750 750" enable-background="new 0 0 750 750" xml:space="preserve">
<g>
	<path d="M445.598,459.571l-67.271-38.876c-4.223-2.406-9.882-2.406-14.139,0l-67.274,38.876c-4.359,2.508-7.057,7.218-7.057,12.262
		v77.641c0,5.042,2.698,9.753,7.057,12.271l17.641,10.157c8.546,4.211,11.608,4.211,15.497,4.211c12.651,0,19.92-7.652,19.92-20.999
		v-76.655c0-1.084-0.883-1.938-1.951-1.938h-8.529c-1.084,0-1.955,0.854-1.955,1.938v76.655c0,5.916-6.123,11.805-16.123,6.805
		l-18.43-10.647c-0.646-0.353-1.061-1.057-1.061-1.798v-77.641c0-0.736,0.415-1.47,1.067-1.843l67.232-38.81
		c0.626-0.362,1.451-0.362,2.072,0l67.249,38.798c0.644,0.385,1.044,1.094,1.044,1.854v77.642c0,0.741-0.4,1.463-1.028,1.819
		l-67.276,38.831c-0.575,0.346-1.458,0.346-2.083,0l-17.256-10.245c-0.514-0.301-1.173-0.409-1.67-0.128
		c-4.776,2.708-5.683,3.067-10.157,4.62c-1.106,0.385-2.743,1.051,0.611,2.927l22.46,13.289c2.152,1.248,4.598,1.889,7.057,1.889
		c2.492,0,4.933-0.641,7.082-1.889l67.271-38.842c4.357-2.535,7.066-7.229,7.066-12.271v-77.642
		C452.664,466.789,449.955,462.091,445.598,459.571z"/>
	<path d="M392.025,537.171c-17.803,0-21.718-4.47-23.033-13.324c-0.151-0.948-0.96-1.646-1.933-1.646h-8.698
		c-1.078,0-1.943,0.86-1.943,1.938c0,11.335,6.167,24.848,35.606,24.848c21.319,0,33.541-8.396,33.541-23.054
		c0-14.531-9.821-18.402-30.496-21.135c-20.894-2.766-23.015-4.189-23.015-9.082c0-4.04,1.799-9.431,17.271-9.431
		c13.821,0,18.915,2.978,21.011,12.295c0.184,0.878,0.983,1.521,1.889,1.521h8.73c0.543,0,1.057-0.235,1.425-0.62
		c0.369-0.413,0.564-0.943,0.515-1.498c-1.352-16.049-12.017-23.53-33.569-23.53c-19.183,0-30.625,8.096-30.625,21.67
		c0,14.727,11.386,18.793,29.794,20.614c22.025,2.156,23.736,5.374,23.736,9.709C412.232,533.965,406.198,537.171,392.025,537.171z"
		/>
	<path d="M478.538,467.699c1.031-0.344,2.748-0.891,2.748-3.566c0-3.845-3.363-3.845-5.08-3.845h-5.01v14.545h2.815v-5.828h2.537
		c1.027,0,1.306,0.409,1.507,1.233c0,0.204,0.482,3.91,0.555,4.595h3.082c-0.406-0.685-0.614-2.677-0.754-3.842
		C480.666,469.141,480.531,467.836,478.538,467.699z M476.206,466.669h-2.262v-4.048h2.329c0.755,0,2.129,0,2.129,1.992
		C478.403,465.366,478.056,466.669,476.206,466.669z"/>
	<path d="M476.069,454.594c-6.929,0-12.967,5.629-12.967,12.969c0,7.203,5.899,12.966,12.967,12.966
		c7.132,0,12.966-5.832,12.966-12.966C489.034,460.222,483.068,454.594,476.069,454.594z M476.035,478.436
		c-5.967,0-10.838-4.872-10.838-10.911c0-6.105,4.938-10.838,10.838-10.838c5.972,0,10.909,4.804,10.909,10.838
		C486.945,473.462,482.074,478.436,476.035,478.436z"/>
	<path d="M158.605,291.23l-71.326-41.048c-1.207-0.712-2.558-1.08-3.926-1.136h-0.736c-1.365,0.056-2.716,0.424-3.939,1.136
		L7.349,291.23c-2.659,1.536-4.313,4.385-4.313,7.485l0.157,110.531c0,1.538,0.798,2.967,2.151,3.723
		c1.324,0.793,2.96,0.793,4.278,0l42.39-24.273c2.681-1.593,4.314-4.402,4.314-7.476V329.58c0-3.079,1.63-5.929,4.301-7.458
		l18.049-10.396c1.345-0.776,2.816-1.156,4.318-1.156c1.469,0,2.977,0.38,4.284,1.156l18.044,10.396
		c2.671,1.53,4.308,4.38,4.308,7.458v51.639c0,3.073,1.653,5.9,4.318,7.476l42.378,24.273c1.329,0.793,2.989,0.793,4.306,0
		c1.314-0.756,2.141-2.185,2.141-3.723l0.141-110.531C162.913,295.615,161.281,292.766,158.605,291.23z"/>
	<path d="M548.574,170.466l-42.462-23.695c-1.335-0.742-2.964-0.726-4.282,0.049c-1.316,0.772-2.125,2.187-2.125,3.714v109.462
		c0,1.076-0.576,2.073-1.507,2.613c-0.933,0.538-2.082,0.538-3.015,0l-17.867-10.293c-2.664-1.537-5.942-1.534-8.608,0.002
		l-71.354,41.178c-2.667,1.54-4.309,4.384-4.309,7.462v82.376c0,3.077,1.642,5.92,4.306,7.464l71.352,41.208
		c2.668,1.54,5.952,1.54,8.619,0l71.364-41.208c2.664-1.544,4.308-4.387,4.308-7.464V177.991
		C552.994,174.868,551.304,171.99,548.574,170.466z M499.492,356.268c0,0.769-0.411,1.481-1.078,1.863l-24.498,14.122
		c-0.666,0.383-1.485,0.383-2.151,0l-24.499-14.122c-0.668-0.382-1.077-1.095-1.077-1.863v-28.289c0-0.768,0.409-1.48,1.076-1.867
		l24.497-14.148c0.669-0.385,1.488-0.385,2.156,0l24.499,14.148c0.664,0.387,1.075,1.099,1.075,1.867V356.268z"/>
	<path d="M743.71,292.375l-70.896-41.162c-2.668-1.551-5.96-1.553-8.635-0.012l-71.327,41.18c-2.667,1.54-4.309,4.381-4.309,7.46
		v82.354c0,3.099,1.663,5.956,4.352,7.487l70.886,40.392c2.613,1.492,5.817,1.508,8.449,0.046l42.874-23.83
		c1.361-0.758,2.209-2.184,2.217-3.736c0.011-1.556-0.816-2.993-2.163-3.766l-71.781-41.199c-1.339-0.769-2.165-2.197-2.165-3.738
		v-25.809c0-1.539,0.822-2.964,2.157-3.732l22.341-12.879c1.328-0.769,2.97-0.769,4.301,0l22.351,12.879
		c1.335,0.769,2.155,2.193,2.155,3.732v20.306c0,1.543,0.824,2.968,2.16,3.735c1.335,0.771,2.98,0.764,4.313-0.008l42.723-24.834
		c2.654-1.542,4.288-4.381,4.288-7.45v-19.962C748,296.756,746.366,293.916,743.71,292.375z"/>
	<path d="M669.098,323.382c-0.512-0.297-1.141-0.297-1.652,0l-13.681,7.898c-0.512,0.296-0.828,0.842-0.828,1.433v15.81
		c0,0.592,0.316,1.137,0.828,1.433l13.681,7.9c0.512,0.296,1.141,0.296,1.652,0l13.692-7.9c0.512-0.296,0.826-0.84,0.826-1.433
		v-15.81c0-0.591-0.314-1.137-0.826-1.433L669.098,323.382z"/>
	<path d="M291.585,424.976l1.7-0.981l1.7-0.983l1.7-0.981l1.7-0.981l1.705-0.985l1.7-0.981l1.7-0.982l1.7-0.981l1.7-0.981l1.7-0.982
		l1.7-0.982l1.705-0.985l1.7-0.981l1.7-0.982l1.7-0.981l1.7-0.981l1.705-0.985l1.7-0.981l1.7-0.982l1.7-0.982l1.7-0.981l1.705-0.985
		l1.7-0.981l1.7-0.982l1.7-0.981l1.7-0.982l17.41-10.058c0.306-0.176,0.594-0.375,0.872-0.584c0.092-0.069,0.177-0.146,0.265-0.218
		c0.181-0.149,0.358-0.302,0.525-0.464c0.094-0.089,0.183-0.183,0.272-0.277c0.152-0.16,0.296-0.327,0.436-0.498
		c0.079-0.099,0.158-0.196,0.233-0.298c0.145-0.196,0.278-0.4,0.405-0.606c0.052-0.084,0.108-0.164,0.157-0.251
		c0.169-0.298,0.322-0.605,0.455-0.923c0.016-0.036,0.026-0.076,0.041-0.113c0.113-0.282,0.212-0.569,0.295-0.864
		c0.029-0.1,0.05-0.202,0.074-0.305c0.037-0.151,0.082-0.3,0.11-0.453l-0.014-0.023c0.093-0.507,0.157-1.02,0.157-1.545v-74.789
		l-7.416-3.635l0.014-0.024l7.402,3.628v-7.137c0-2.195-0.851-4.262-2.305-5.825l0.008-0.014c-0.032-0.035-0.072-0.063-0.105-0.098
		c-0.172-0.178-0.359-0.342-0.547-0.506c-0.114-0.099-0.22-0.205-0.339-0.298c-0.291-0.228-0.6-0.437-0.923-0.628
		c-0.026-0.016-0.048-0.035-0.074-0.05l-2.096-1.21l-5.03-2.903l-5.025-2.901l-5.027-2.901l-5.03-2.904l-5.022-2.898l-5.027-2.902
		l-5.03-2.903l-5.021-2.898l-4.152-2.396l-0.398-0.229l-24.079-13.899c-1.325-0.765-2.805-1.149-4.284-1.149
		c-0.142,0-0.284,0.021-0.426,0.028c-0.145,0.005-0.291,0.007-0.434,0.019c-0.038,0.004-0.075,0.013-0.112,0.017
		c-0.133,0.015-0.265,0.04-0.397,0.061c-0.114,0.018-0.229,0.029-0.342,0.052c-0.098,0.021-0.194,0.049-0.292,0.073
		c-0.125,0.03-0.248,0.062-0.372,0.098c-0.224,0.065-0.444,0.14-0.663,0.224c-0.104,0.039-0.21,0.075-0.314,0.119
		c-0.02,0.009-0.041,0.015-0.06,0.023c-0.297,0.129-0.59,0.272-0.874,0.437l-0.826,0.477l-1.7,0.981l-1.705,0.984l-1.7,0.98
		l-1.7,0.981l-1.7,0.981l-1.7,0.981l-1.705,0.983l-1.7,0.981l-1.7,0.981l-1.7,0.98l-1.7,0.981l-1.7,0.981l-1.705,0.984l-1.7,0.981
		l-1.7,0.981l-44.411,25.629l-0.204,0.118c-2.322,1.34-3.862,3.672-4.21,6.286c-0.049,0.374-0.075,0.752-0.075,1.135v14.944v2.184
		v2.179v2.184v2.184v2.179v2.184v2.184v2.184v2.184v2.179v2.184v2.184v2.179v2.184v2.184v2.179v2.184v2.184v2.184v2.184v2.179v2.184
		v2.184v2.179v2.184v2.184v2.184v2.184v2.179v2.185v1.533c0,0.227,0.027,0.449,0.044,0.673c0.012,0.153,0.011,0.311,0.03,0.463
		c0.092,0.687,0.275,1.352,0.524,1.986c0.29,0.742,0.695,1.428,1.178,2.06l-0.015,0.023c0.058,0.076,0.134,0.137,0.195,0.209
		c0.255,0.311,0.524,0.609,0.822,0.883c0.088,0.082,0.178,0.161,0.27,0.238c0.385,0.325,0.79,0.63,1.234,0.888l21.444,12.386
		l49.509,28.595c0.767,0.441,1.587,0.74,2.427,0.927c0.022,0.006,0.044,0.01,0.066,0.014c0.365,0.077,0.731,0.132,1.101,0.162
		c0.09,0.008,0.18,0.013,0.27,0.017c0.284,0.016,0.568,0.012,0.853,0c0.091-0.004,0.183,0.007,0.273,0
		c0.085-0.007,0.17-0.024,0.254-0.034c0.093-0.011,0.185-0.021,0.278-0.034l0.003,0.005c0.026-0.004,0.051-0.014,0.078-0.018
		c0.228-0.036,0.452-0.083,0.676-0.138c0.097-0.021,0.194-0.042,0.291-0.068c0.035-0.009,0.07-0.014,0.105-0.024l0.007-0.014
		c0.069-0.02,0.136-0.047,0.206-0.068c0.12-0.039,0.239-0.077,0.357-0.121c0.454-0.167,0.901-0.358,1.328-0.604l0.808-0.468
		l1.7-0.981l1.7-0.981l1.7-0.982l1.7-0.981L291.585,424.976z"/>
</g>
</svg>
