<?xml version="1.0" encoding="utf-8"?>
<!-- Generator: Adobe Illustrator 16.0.0, SVG Export Plug-In . SVG Version: 6.00 Build 0)  -->
<!DOCTYPE svg PUBLIC "-//W3C//DTD SVG 1.1//EN" "http://www.w3.org/Graphics/SVG/1.1/DTD/svg11.dtd">
<svg version="1.1" id="Capa_1" xmlns="http://www.w3.org/2000/svg" xmlns:xlink="http://www.w3.org/1999/xlink" x="0px" y="0px"
	 width="553.047px" height="553.047px" viewBox="0 0 553.047 553.047" enable-background="new 0 0 553.047 553.047"
	 xml:space="preserve">
<g>
	<path d="M37.344,198.242h56.874v1.888c4.026-1.762,8.135-3.166,12.331-4.215c4.193-1.048,8.513-1.573,12.96-1.573
		c9.563,0,18.454,1.805,26.676,5.41c8.22,3.608,15.351,8.515,21.391,14.722c6.04,6.208,10.758,13.463,14.156,21.768
		c3.397,8.305,5.096,17.112,5.096,26.424c0,9.396-1.657,18.245-4.97,26.55c-3.314,8.305-7.949,15.539-13.904,21.705
		c-5.957,6.165-13.066,11.031-21.328,14.596c-8.264,3.564-17.301,5.348-27.116,5.348c-5.536,0-10.695-0.524-15.477-1.572
		s-9.396-2.536-13.841-4.467v28.563h24.914v34.477h-85.06v-34.477h21.391V232.719H37.344V198.242z M116.741,229.07
		c-5.285,0-10.235,1.384-14.848,4.152c-4.614,2.769-8.515,6.669-11.702,11.702v36.742c2.684,4.277,6.333,7.76,10.947,10.443
		c4.612,2.686,9.814,4.026,15.603,4.026c4.278,0,8.346-0.817,12.206-2.453c3.857-1.636,7.213-3.942,10.066-6.921
		c2.851-2.977,5.116-6.5,6.795-10.569c1.677-4.068,2.517-8.493,2.517-13.275c0-5.285-0.818-10.023-2.454-14.218
		c-1.636-4.194-3.881-7.738-6.732-10.632c-2.853-2.894-6.209-5.116-10.066-6.669C125.212,229.847,121.102,229.07,116.741,229.07z"/>
	<path d="M285.477,198.242h61.654v95.881h15.729V328.6h-55.238v-11.073c-4.447,4.027-9.646,7.131-15.602,9.312
		c-5.957,2.181-12.836,3.271-20.637,3.271c-7.215,0-14.01-1.132-20.384-3.397c-6.376-2.265-11.934-5.682-16.672-10.255
		c-4.74-4.571-8.474-10.296-11.198-17.175c-2.727-6.878-4.09-14.974-4.09-24.285v-42.278h-16.986v-34.477h57.629v76.755
		c0,8.726,2.222,15.247,6.669,19.566c4.445,4.321,10.234,6.479,17.365,6.479c5.033,0,9.604-1.551,13.715-4.655
		c4.109-3.103,7.088-7.298,8.934-12.583v-51.085h-20.887V198.242z"/>
	<path d="M478.746,321.805c-4.698,2.686-9.396,4.614-14.092,5.788c-4.699,1.174-9.48,1.762-14.345,1.762
		c-10.066,0-19.336-1.718-27.808-5.159c-8.474-3.438-15.792-8.198-21.957-14.281c-6.166-6.081-10.969-13.274-14.407-21.579
		c-3.44-8.305-5.159-17.321-5.159-27.053c0-9.142,1.655-17.761,4.97-25.857c3.313-8.094,7.947-15.182,13.904-21.265
		c5.955-6.081,13.086-10.884,21.391-14.408c8.305-3.523,17.321-5.326,27.053-5.41c5.955,0.084,11.429,0.713,16.421,1.887
		c4.99,1.176,9.667,2.768,14.029,4.781v-2.768h38.126v124.947c0,10.988-1.887,20.488-5.662,28.5
		c-3.774,8.009-8.829,14.637-15.162,19.88c-6.335,5.242-13.695,9.143-22.083,11.702c-8.389,2.558-17.197,3.838-26.424,3.838
		c-11.409,0-21.957-1.553-31.646-4.655c-9.688-3.104-18.308-7.298-25.857-12.583l15.729-27.934
		c5.788,3.69,12.079,6.605,18.874,8.745c6.795,2.139,14.345,3.208,22.649,3.208c4.529,0,8.701-0.503,12.52-1.51
		c3.816-1.007,7.129-2.705,9.94-5.096c2.81-2.391,5.012-5.6,6.605-9.626c1.593-4.026,2.391-9.101,2.391-15.226V321.805z
		 M451.567,294.5c5.871,0,11.178-1.488,15.918-4.467c4.738-2.977,8.493-6.898,11.261-11.765l0.252-31.708
		c-2.853-5.285-6.753-9.479-11.702-12.583c-4.95-3.102-10.317-4.697-16.105-4.781c-4.111,0.084-8.138,0.902-12.079,2.454
		c-3.944,1.553-7.361,3.755-10.256,6.606c-2.894,2.853-5.18,6.229-6.857,10.129c-1.679,3.9-2.517,8.242-2.517,13.023
		c0,5.033,0.838,9.606,2.517,13.715c1.678,4.111,3.942,7.593,6.795,10.443c2.851,2.853,6.229,5.055,10.129,6.606
		C442.823,293.726,447.038,294.5,451.567,294.5z"/>
</g>
</svg>
