<?xml version="1.0" encoding="utf-8"?>
<!-- Generator: Adobe Illustrator 16.0.0, SVG Export Plug-In . SVG Version: 6.00 Build 0)  -->
<!DOCTYPE svg PUBLIC "-//W3C//DTD SVG 1.1//EN" "http://www.w3.org/Graphics/SVG/1.1/DTD/svg11.dtd">
<svg version="1.1" id="Calque_1" xmlns="http://www.w3.org/2000/svg" xmlns:xlink="http://www.w3.org/1999/xlink" x="0px" y="0px"
	 width="512px" height="512px" viewBox="0 0 512 512" enable-background="new 0 0 512 512" xml:space="preserve">
<path d="M419.239,176.766c-5.235-1.803-10.66-3.508-16.246-5.121c0.917-3.746,1.76-7.446,2.511-11.082
	c12.298-59.701,4.258-107.797-23.203-123.631c-26.331-15.185-69.392,0.648-112.882,38.495c-4.182,3.639-8.374,7.493-12.566,11.532
	c-2.794-2.672-5.583-5.254-8.364-7.724c-45.58-40.469-91.264-57.524-118.697-41.643c-26.306,15.228-34.095,60.442-23.024,117.022
	c1.069,5.464,2.319,11.045,3.732,16.72c-6.466,1.834-12.708,3.791-18.68,5.873c-53.436,18.63-87.562,47.827-87.562,78.114
	c0,31.28,36.635,62.654,92.292,81.677c4.392,1.501,8.95,2.919,13.646,4.268c-1.525,6.138-2.851,12.151-3.963,18.018
	c-10.557,55.599-2.313,99.744,23.922,114.874c27.099,15.628,72.578-0.437,116.862-39.146c3.501-3.058,7.014-6.304,10.532-9.704
	c4.562,4.391,9.116,8.549,13.644,12.449c42.895,36.912,85.261,51.815,111.473,36.642c27.07-15.671,35.869-63.093,24.448-120.795
	c-0.873-4.406-1.89-8.908-3.027-13.489c3.193-0.942,6.328-1.92,9.384-2.932c57.862-19.17,95.509-50.162,95.509-81.861
	C508.979,224.925,473.751,195.53,419.239,176.766z M283.574,91.691c37.262-32.428,72.089-45.23,87.957-36.081
	c16.901,9.746,23.473,49.055,12.854,100.601c-0.679,3.289-1.442,6.639-2.269,10.034c-20.938-4.832-43.677-8.427-67.485-10.66
	c-13.868-19.75-28.24-37.704-42.667-53.248C275.843,98.606,279.718,95.048,283.574,91.691z M164.716,255.839
	c6.521-13.575,13.697-27.208,21.471-40.689l-0.002,0.003c7.796-13.517,15.998-26.551,24.475-38.961
	c15.008-1.134,30.401-1.726,45.957-1.726c15.627,0,31.038,0.596,46.044,1.741c8.346,12.32,16.496,25.311,24.32,38.83
	c7.913,13.669,15.184,27.212,21.759,40.496c-6.558,13.513-13.808,27.189-21.688,40.854c-7.892,13.682-15.991,26.739-24.213,39.068
	c-14.978,1.068-30.452,1.623-46.223,1.623c-15.706,0-30.984-0.488-45.695-1.444c-8.555-12.49-16.832-25.588-24.671-39.129h0.002
	C178.433,283.001,171.238,269.381,164.716,255.839z M153.284,281.19c4.518,8.726,9.291,17.446,14.307,26.114h0.002
	c5.111,8.835,10.41,17.486,15.848,25.924c-16.535-1.846-32.121-4.346-46.517-7.478C141.38,311.358,146.873,296.403,153.284,281.19z
	 M153.26,230.48c-6.278-14.891-11.65-29.534-16.038-43.673c14.399-3.223,29.754-5.858,45.756-7.855
	c-5.301,8.269-10.471,16.753-15.47,25.427v0.002C162.518,213.032,157.767,221.747,153.26,230.48z M345.73,307.157
	c5.138-8.912,10.021-17.843,14.636-26.741c6.747,15.376,12.435,30.253,16.95,44.399c-14.633,3.34-30.435,6.026-47.083,8.025
	C335.474,324.538,340.646,315.97,345.73,307.157z M360.161,230.497c-4.576-8.692-9.418-17.456-14.52-26.265
	c-4.995-8.626-10.121-17.049-15.348-25.242c16.104,2.036,31.534,4.738,46.023,8.045
	C371.968,200.976,366.545,215.554,360.161,230.497z M256.859,117.756c9.944,10.775,19.904,22.804,29.699,35.856
	c-9.868-0.466-19.863-0.709-29.941-0.709c-9.98,0-19.901,0.238-29.71,0.696C236.712,140.668,246.757,128.654,256.859,117.756z
	 M140.595,56.252c16.884-9.775,54.224,4.162,93.576,39.105c2.517,2.233,5.043,4.571,7.574,6.99
	c-14.664,15.746-29.154,33.672-42.995,53.208c-23.737,2.2-46.461,5.734-67.352,10.467c-1.313-5.283-2.478-10.475-3.47-15.549
	C118.443,101.997,124.74,65.429,140.595,56.252z M115.98,320.496c-4.293-1.234-8.454-2.532-12.458-3.902
	c-24.61-8.412-44.935-19.344-58.866-31.272c-12.519-10.721-18.838-21.364-18.838-30c0-18.378,27.4-41.82,73.099-57.754
	c5.545-1.933,11.349-3.755,17.373-5.467c6.317,20.545,14.602,42.025,24.599,63.745C130.761,277.889,122.358,299.71,115.98,320.496z
	 M232.827,418.777c-19.58,17.117-39.203,29.261-56.497,35.368c-15.542,5.489-27.919,5.646-35.401,1.333
	c-15.922-9.182-22.54-44.628-13.512-92.174c1.036-5.446,2.266-11.039,3.684-16.757c20.675,4.572,43.558,7.862,68.016,9.845
	c13.967,19.651,28.591,37.713,43.328,53.528C239.225,413.03,236.016,415.99,232.827,418.777z M257.454,394.405
	c-10.217-11.027-20.413-23.223-30.366-36.342c9.663,0.378,19.517,0.573,29.529,0.573c10.288,0,20.459-0.23,30.469-0.678
	C277.257,371.315,267.332,383.531,257.454,394.405z M388.389,424.405c-3.006,16.204-9.053,27.005-16.526,31.334
	c-15.906,9.204-49.923-2.763-86.608-34.331c-4.204-3.617-8.44-7.482-12.689-11.57c14.221-15.555,28.434-33.636,42.308-53.718
	c24.401-2.166,47.451-5.706,68.354-10.538c1.03,4.153,1.947,8.226,2.733,12.209C391.011,383.305,391.732,406.372,388.389,424.405z
	 M406.69,316.716c-2.76,0.912-5.594,1.795-8.477,2.653c-6.388-20.223-15.008-41.726-25.561-63.942
	c10.068-21.688,18.357-42.917,24.565-63.007c5.161,1.493,10.174,3.069,15.003,4.732c46.705,16.079,75.196,39.852,75.196,58.168
	C487.418,274.834,456.647,300.159,406.69,316.716z"/>
<path d="M256.617,210.251c24.893,0,45.071,20.177,45.071,45.069s-20.179,45.07-45.071,45.07c-24.89,0-45.069-20.178-45.069-45.07
	S231.728,210.251,256.617,210.251"/>
</svg>
