<?xml version="1.0" encoding="utf-8"?>
<!-- Generator: Adobe Illustrator 16.0.0, SVG Export Plug-In . SVG Version: 6.00 Build 0)  -->
<!DOCTYPE svg PUBLIC "-//W3C//DTD SVG 1.1//EN" "http://www.w3.org/Graphics/SVG/1.1/DTD/svg11.dtd">
<svg version="1.1" id="Calque_1" xmlns="http://www.w3.org/2000/svg" xmlns:xlink="http://www.w3.org/1999/xlink" x="0px" y="0px"
	 width="512px" height="512px" viewBox="0 0 512 512" enable-background="new 0 0 512 512" xml:space="preserve">
<path d="M438.733,282.226c-17.616,0.094-32.884,4.327-45.675,10.63c-4.676-9.341-9.415-17.55-10.207-23.66
	c-0.929-7.132-2.006-11.385-0.883-19.879c1.122-8.494,6.036-20.522,5.963-21.424c-0.074-0.902-1.104-5.228-11.264-5.301
	s-18.857,1.952-19.879,4.639c-1.021,2.688-2.982,8.724-4.197,15.019c-1.775,9.213-20.292,42.077-30.802,59.277
	c-3.433-6.709-6.358-12.626-6.967-17.302c-0.93-7.132-2.006-11.385-0.883-19.879c1.122-8.494,6.037-20.522,5.963-21.424
	c-0.073-0.901-1.104-5.228-11.264-5.301c-10.161-0.074-18.856,1.952-19.879,4.639c-1.021,2.688-2.117,8.955-4.196,15.019
	c-2.08,6.065-26.688,60.888-33.131,75.097c-3.285,7.243-6.139,13.059-8.164,17.025c-0.01-0.009-0.01-0.019-0.01-0.019
	s-0.12,0.267-0.339,0.709c-1.73,3.377-2.752,5.255-2.752,5.255s0.01,0.028,0.028,0.074c-1.371,2.484-2.834,4.785-3.562,4.785
	c-0.506,0-1.528-6.608,0.221-15.682c3.664-19.015,12.461-48.675,12.369-49.696c-0.046-0.524,1.638-5.688-5.743-8.394
	c-7.168-2.623-9.728,1.758-10.381,1.768c-0.635,0.008-1.104,1.546-1.104,1.546s7.988-33.352-15.241-33.352
	c-14.522,0-34.649,15.885-44.561,30.286c-6.257,3.414-19.638,10.723-33.848,18.525c-5.458,3.001-11.026,6.066-16.299,8.973
	c-0.358-0.395-0.717-0.791-1.086-1.187c-28.17-30.048-80.241-51.307-78.032-91.708c0.801-14.688,5.908-53.358,100.055-100.276
	c77.121-38.431,138.864-27.857,149.531-4.418c15.24,33.481-32.992,95.721-113.086,104.694c-30.519,3.424-46.587-8.402-50.581-12.811
	c-4.206-4.638-4.831-4.849-6.405-3.975c-2.56,1.417-0.938,5.512,0,7.951c2.393,6.221,12.203,17.255,28.933,22.75
	c14.716,4.833,50.543,7.482,93.871-9.275c48.529-18.775,86.417-70.983,75.291-114.634c-11.319-44.386-84.926-58.982-154.583-34.234
	c-41.459,14.724-86.343,37.842-118.609,68.028C8.979,180.977,2.859,212.211,5.381,225.261c8.955,46.374,72.878,76.578,98.473,98.96
	c-1.261,0.699-2.448,1.353-3.525,1.94c-12.829,6.351-61.558,31.844-73.743,58.79c-13.823,30.563,2.199,52.484,12.811,55.438
	c32.874,9.147,66.602-7.308,84.732-34.346c18.122-27.029,15.912-62.23,7.593-78.299c-0.102-0.203-0.221-0.396-0.323-0.59
	c3.313-1.96,6.69-3.956,10.041-5.917c6.534-3.838,12.938-7.408,18.506-10.437c-3.11,8.532-5.393,18.756-6.58,33.518
	c-1.389,17.349,5.715,39.766,15.02,48.593c4.095,3.883,9.028,3.976,12.147,3.976c10.823,0,15.765-9.01,21.204-19.658
	c6.671-13.067,12.59-28.271,12.59-28.271s-7.427,41.081,12.811,41.081c7.371,0,14.79-9.562,18.093-14.438
	c0.01,0.056,0.018,0.083,0.018,0.083s0.193-0.313,0.571-0.957c0.763-1.17,1.195-1.915,1.195-1.915s0.02-0.073,0.038-0.211
	c2.963-5.146,9.534-16.879,19.399-36.232c12.737-25.004,24.959-56.322,24.959-56.322s1.141,7.656,4.858,20.32
	c2.191,7.454,6.849,15.682,10.51,23.588c-2.954,4.104-4.767,6.45-4.767,6.45s0.019,0.046,0.046,0.12
	c-2.365,3.139-5.006,6.516-7.775,9.82c-10.05,11.973-22.032,25.648-23.634,29.597c-1.887,4.647-1.444,8.07,2.209,10.822
	c2.668,2.007,7.417,2.319,12.369,1.988c9.036-0.607,15.396-2.845,18.524-4.215c4.887-1.731,10.584-4.446,15.931-8.375
	c9.865-7.253,15.811-17.624,15.239-31.365c-0.313-7.573-2.732-15.074-5.787-22.16c0.893-1.288,1.793-2.586,2.695-3.902
	c15.554-22.731,27.608-47.708,27.608-47.708s1.142,7.657,4.86,20.32c1.887,6.405,5.604,13.399,8.945,20.256
	c-14.624,11.881-23.688,25.686-26.836,34.742c-5.816,16.749-1.261,24.331,7.289,26.063c3.874,0.781,9.341-0.994,13.454-2.733
	c5.116-1.703,11.273-4.528,17.026-8.753c9.865-7.251,19.344-17.402,18.773-31.143c-0.257-6.259-1.96-12.46-4.261-18.425
	c12.396-5.163,28.438-8.034,48.878-5.649c43.842,5.116,52.447,32.495,50.8,43.953c-1.647,11.457-10.841,17.752-13.915,19.658
	c-3.073,1.904-4.012,2.558-3.755,3.975c0.377,2.053,1.795,1.979,4.417,1.537c3.607-0.607,23.026-9.322,23.854-30.471
	C510.028,311.474,484.296,281.988,438.733,282.226z M100.788,396.162c-14.522,15.837-34.814,21.829-43.511,16.785
	c-9.396-5.448-5.678-28.768,12.148-45.583c10.859-10.243,24.885-19.684,34.189-25.492c2.116-1.27,5.228-3.147,9.009-5.411
	c0.627-0.358,0.986-0.552,0.986-0.552l-0.02-0.027c0.727-0.433,1.474-0.885,2.247-1.345
	C122.314,358.466,116.029,379.532,100.788,396.162z M206.587,324.239c-5.062,12.332-15.646,43.88-22.088,42.187
	c-5.53-1.454-8.899-25.427-1.104-49.033c3.92-11.881,12.303-26.072,17.228-31.584c7.924-8.863,16.658-11.771,18.773-8.174
	C222.103,282.209,209.76,316.509,206.587,324.239z M293.996,365.938c-2.145,1.123-4.114,1.822-5.024,1.278
	c-0.672-0.395,0.883-1.876,0.883-1.876s10.934-11.762,15.241-17.118c2.502-3.11,5.41-6.811,8.577-10.942
	c0.026,0.414,0.036,0.818,0.036,1.225C313.673,352.603,300.062,362.119,293.996,365.938z M361.334,350.596
	c-1.602-1.141-1.335-4.813,3.931-16.279c2.062-4.502,6.772-12.075,14.964-19.317c0.947,2.98,1.528,5.835,1.509,8.494
	C381.627,341.219,368.982,347.845,361.334,350.596z"/>
</svg>
