<?xml version="1.0" encoding="utf-8"?>
<!-- Generator: Adobe Illustrator 16.0.0, SVG Export Plug-In . SVG Version: 6.00 Build 0)  -->
<!DOCTYPE svg PUBLIC "-//W3C//DTD SVG 1.1//EN" "http://www.w3.org/Graphics/SVG/1.1/DTD/svg11.dtd">
<svg version="1.1"
	 id="svg2" xmlns:dc="http://purl.org/dc/elements/1.1/" xmlns:cc="http://creativecommons.org/ns#" xmlns:rdf="http://www.w3.org/1999/02/22-rdf-syntax-ns#" xmlns:svg="http://www.w3.org/2000/svg"
	 xmlns="http://www.w3.org/2000/svg" xmlns:xlink="http://www.w3.org/1999/xlink" x="0px" y="0px" width="1442.973px"
	 height="602.986px" viewBox="0 0 1442.973 602.986" enable-background="new 0 0 1442.973 602.986" xml:space="preserve">
<g id="g10" transform="matrix(1.3333333,0,0,-1.3333333,0,602.98667)">
	<g id="g12" transform="scale(0.1)">
		<path id="path14" d="M10519.004,1519.959h-73.403v-191.111h-64.204v191.111h-73.491v55.21h211.099V1519.959L10519.004,1519.959"/>
		<path id="path16" d="M10547.7,1575.169h94.497l42.407-164.209h0.688l42.51,164.209h94.497v-246.321h-60.396v186.973h-0.703
			l-51.709-186.973h-48.999l-51.797,186.973h-0.703v-186.973h-60.293V1575.169"/>
		<path id="path18" d="M7978.086,1342.75c-89.561-37.771-180-56.675-271.245-56.675c-144.067,0-273.56,25.107-388.594,75.22
			c-115.063,50.134-212.065,119.18-291.094,207.217c-79.058,87.942-139.6,191.331-181.743,310.101s-63.237,246.841-63.237,384.089
			c0,140.698,21.021,271.37,63.047,391.926c42.012,120.513,102.466,225.63,181.304,315.396
			c78.853,89.744,175.737,160.107,290.713,211.187c114.99,51.013,244.468,76.56,388.535,76.56
			c96.577,0,190.049-14.568,280.503-43.638c90.439-29.143,172.061-71.909,244.966-128.313
			c72.891-56.418,133.022-125.969,180.439-208.586c47.432-82.69,76.436-177.539,86.982-284.641h-395.098
			c-24.609,105.308-72.041,184.336-142.28,237.026c-70.298,52.69-155.464,79.043-255.498,79.043
			c-93.12,0-172.134-18.04-237.1-54.119c-64.951-36.072-117.656-84.492-158.071-145.173c-40.415-60.747-69.8-129.8-88.198-207.231
			c-18.486-77.417-27.642-157.434-27.642-240.125c0-79.219,9.214-156.211,27.686-230.962
			c18.486-74.766,47.915-142.09,88.345-201.892c40.4-59.817,93.164-107.725,158.247-143.804
			c65.024-36.086,144.17-54.126,237.422-54.126c137.109,0,242.974,34.593,317.725,103.763
			c74.766,69.192,118.257,169.482,130.62,300.879h-416.191v309.448h789.097v-1017.02h-262.573l-42.026,213.362
			c-73.77-94.841-155.479-161.169-245.054-198.911"/>
		<path id="path20" d="M9198.359,3210.163V1678.83h916.743V1329.72H8785.786v1880.442H9198.359"/>
		<path id="path22" d="M7247.144,1095.975c-631.289-383.95-1576.759-602.49-2631.691-602.49
			c-1900.613,0-3441.373,791.426-3441.373,1767.723c0,976.282,1540.76,1767.722,3441.373,1767.722
			c1058.785,0,2008.122-222.598,2639.411-608.95c-689.063,647.329-1924.545,1102.2-3337.153,1102.412
			C1754.209,4522.751,0.187,3510.639,0,2261.823C-0.183,1013.043,1753.521,0.323,3917.021,0.001
			C5324.02-0.226,6556.294,453.165,7247.144,1095.975"/>
		<path id="path24" d="M3779.979,3356.471L3417.181,1786.54l-438.076,1569.932h-332.666L2209.34,1786.525l-363.878,1569.946
			h-342.762l538.319-2046.299h321.592l452.86,1607.249l447.404-1607.249h322.515l557.241,2046.299H3779.979"/>
		<path id="path26" d="M5049.104,2495.18c-50.383,70.898-113.394,125.471-187.331,162.224
			c-76.033,37.8-164.188,56.946-261.98,56.946c-110.083,0-209.26-19.958-294.785-59.326
			c-81.094-37.354-150.33-92.256-205.767-163.206c-102.612-131.294-156.849-316.304-156.849-534.976
			c0-97.332,13.807-188.65,41.038-271.45c27.393-83.24,67.822-156.314,120.168-217.142
			c110.068-127.896,266.99-195.505,453.802-195.505c98.086,0,178.184,10.254,244.798,31.355
			c58.234,18.42,96.921,42.29,128.613,63.223c40.84,26.938,78.347,60.059,111.525,98.386
			c28.162,32.549,53.247,68.914,74.561,108.054c38.174,70.108,56.653,135.601,60.85,170.376l2.791,23.005h-267.239l-1.465-18.94
			c-6.745-86.821-120.703-241.934-323.73-241.934c-290.244,0-359.393,209.825-363.984,394.585h971.689v20.522
			c0,119.15-12.188,227.944-36.24,323.372c-24.587,97.625-61.75,181.882-110.471,250.43H5049.104z M4569.09,2473.229
			c215.273,0,330.359-115.869,351.321-354.045h-695.999C4234.607,2313.129,4388.299,2473.229,4569.09,2473.229"/>
		<path id="path28" d="M6540.781,2298.407c-25.884,82.683-64.028,155.537-113.335,216.555
			c-50.933,62.988-112.705,111.98-183.59,145.605c-74.004,35.112-156.943,52.91-246.533,52.91h-0.322
			c-82.646-1.34-158.115-19.358-224.268-53.577c-54.697-28.271-103.726-67.961-146.221-118.323v627.781h-266.144V1309.85h253.355
			v126.563c22.251-29.099,50.83-59.802,88.682-86.931c71.865-51.497,160.767-77.6,264.229-77.6
			c111.299,0,210.498,24.822,294.932,73.799c75.235,43.645,138.927,106.523,189.347,186.863
			c44.004,70.137,77.49,152.747,99.492,245.552c19.014,80.215,29.077,167.996,29.077,253.835
			C6579.482,2126.779,6566.46,2216.435,6540.781,2298.407z M6301.646,1996.474c0-145.994-29.371-268.345-84.947-353.833
			c-59.165-91.077-145.034-137.242-255.176-137.242c-159.258,0-345.234,111.372-345.234,425.237
			c0,150.322,18.574,265.986,56.792,353.643c55.181,126.563,147.876,188.079,283.33,188.079
			c144.155,0,240.557-56.499,294.727-172.72C6295.888,2203.595,6301.646,2087.169,6301.646,1996.474"/>
	</g>
</g>
</svg>
