<?xml version="1.0" encoding="utf-8"?>
<!-- Generator: Adobe Illustrator 16.0.0, SVG Export Plug-In . SVG Version: 6.00 Build 0)  -->
<!DOCTYPE svg PUBLIC "-//W3C//DTD SVG 1.1//EN" "http://www.w3.org/Graphics/SVG/1.1/DTD/svg11.dtd">
<svg version="1.1" id="Calque_1" xmlns="http://www.w3.org/2000/svg" xmlns:xlink="http://www.w3.org/1999/xlink" x="0px" y="0px"
	 width="932.525px" height="600.629px" viewBox="0 0 932.525 600.629" enable-background="new 0 0 932.525 600.629"
	 xml:space="preserve">
<g>
	<path fill-rule="evenodd" clip-rule="evenodd" fill="#35475C" d="M200.006,65.272h597.112c12.108,0,22.052,9.943,22.052,22.117
		v407.86H177.89V87.389C177.89,75.215,187.832,65.272,200.006,65.272L200.006,65.272z"/>
	<path fill-rule="evenodd" clip-rule="evenodd" fill="#35404F" d="M78.527,569.855h420.037H918.53c2.302,0,1.827-1.761-1.013-3.923
		l-90.164-69.33c-2.839-2.166-7.034-3.922-9.334-3.922H498.564H179.107c-2.3,0-6.493,1.756-9.335,3.922l-90.229,69.33
		C76.702,568.094,76.228,569.855,78.527,569.855L78.527,569.855z"/>
	<path fill-rule="evenodd" clip-rule="evenodd" fill="#35475C" d="M81.911,564.85c277.723,0,555.516,0,833.305,0
		c6.29,0,6.899,5.14,1.353,11.498l-11.294,12.785c-5.612,6.356-15.354,11.496-21.646,11.496c-256.753,0-513.442,0-770.13,0
		c-6.359,0-16.098-5.14-21.644-11.496l-11.296-12.785C74.943,569.99,75.552,564.85,81.911,564.85L81.911,564.85z"/>
	<polygon fill-rule="evenodd" clip-rule="evenodd" fill="#6F8090" points="433.089,531.301 468.463,531.301 528.664,531.301 
		563.971,531.301 583.651,552.876 508.979,552.876 488.147,552.876 413.407,552.876 	"/>
	<rect x="198.046" y="92.868" fill-rule="evenodd" clip-rule="evenodd" fill="#FFE8AF" width="601.035" height="380.468"/>
</g>
<g>
	<g>
		<path fill-rule="evenodd" clip-rule="evenodd" fill="#FFFFFF" d="M17.112,0h677.331c9.403,0,17.045,7.711,17.045,17.113v385.404
			c0,9.403-7.642,17.114-17.045,17.114H17.112C7.71,419.631,0,411.92,0,402.517V17.113C0,7.711,7.71,0,17.112,0L17.112,0z"/>
		<g>
			<path fill-rule="evenodd" clip-rule="evenodd" fill="#363F49" d="M15.015,0h681.457c8.251,0,15.016,6.765,15.016,15.017v46.129
				c0,0.676-0.539,1.218-1.217,1.218H0V15.017C0,6.765,6.763,0,15.015,0L15.015,0z"/>
			<path fill-rule="evenodd" clip-rule="evenodd" fill="#EF7B58" d="M35.172,44.168c7.236,0,13.053-6.155,13.053-13.663
				c0-7.576-5.817-13.662-13.053-13.662c-7.17,0-13.056,6.086-13.056,13.662C22.117,38.013,28.002,44.168,35.172,44.168
				L35.172,44.168z"/>
			<path fill-rule="evenodd" clip-rule="evenodd" fill="#7CCADA" d="M71.697,44.168c7.168,0,13.053-6.155,13.053-13.663
				c0-7.576-5.885-13.662-13.053-13.662c-7.238,0-13.055,6.086-13.055,13.662C58.642,38.013,64.459,44.168,71.697,44.168
				L71.697,44.168z"/>
			<path fill-rule="evenodd" clip-rule="evenodd" fill="#FFDB7A" d="M108.222,44.168c7.169,0,13.055-6.155,13.055-13.663
				c0-7.576-5.886-13.662-13.055-13.662c-7.238,0-13.122,6.086-13.122,13.662C95.1,38.013,100.984,44.168,108.222,44.168
				L108.222,44.168z"/>
			<rect x="141.094" y="19.007" fill-rule="evenodd" clip-rule="evenodd" fill="#FFFFFF" width="550.17" height="25.906"/>
		</g>
	</g>
	<rect x="57.154" y="86.713" fill-rule="evenodd" clip-rule="evenodd" fill="#CDCCCC" width="152.661" height="20.156"/>
	<rect x="273.123" y="86.713" fill-rule="evenodd" clip-rule="evenodd" fill="#CDCCCC" width="152.662" height="20.156"/>
	<rect x="489.769" y="86.713" fill-rule="evenodd" clip-rule="evenodd" fill="#CDCCCC" width="152.661" height="20.156"/>
	<rect x="53.029" y="140.012" fill-rule="evenodd" clip-rule="evenodd" fill="#FFDB7A" width="367.277" height="167.202"/>
	<rect x="450.541" y="140.012" fill-rule="evenodd" clip-rule="evenodd" fill="#EF7B58" width="112.548" height="107.003"/>
	<rect x="50.256" y="326.696" fill-rule="evenodd" clip-rule="evenodd" fill="#CDCCCC" width="280.631" height="11.497"/>
	<rect x="103.893" y="348.273" fill-rule="evenodd" clip-rule="evenodd" fill="#CDCCCC" width="280.631" height="11.564"/>
	<rect x="58.507" y="371.336" fill-rule="evenodd" clip-rule="evenodd" fill="#CDCCCC" width="280.632" height="11.565"/>
	<polygon fill-rule="evenodd" clip-rule="evenodd" fill="#FFFFFF" points="529.609,193.514 506.815,207.313 484.021,221.111 
		484.021,193.514 484.021,165.919 506.815,179.717 	"/>
	<rect x="450.541" y="273.125" fill-rule="evenodd" clip-rule="evenodd" fill="#41B59B" width="225.101" height="107.003"/>
	<rect x="563.088" y="140.012" fill-rule="evenodd" clip-rule="evenodd" fill="#FFDB7A" width="112.553" height="107.003"/>
	<path fill-rule="evenodd" clip-rule="evenodd" fill="#363F49" d="M137.306,238.021L116,228.551l24.552-9.469l1.015-5.546
		l-32.197,12.31l-0.945,5.411l27.934,12.311L137.306,238.021z M185.329,231.932l-5.276,30.507h7.576l11.703-67.774h-7.576
		l-5.277,30.504H169.84l5.276-30.504h-7.576l-11.702,67.774h7.577l5.274-30.507H185.329z M212.587,262.439l10.553-60.942h12.444
		l1.218-6.832h-32.466l-1.15,6.832H215.7l-10.552,60.942H212.587z M275.356,207.922l-9.402,54.517h7.169l11.702-67.774h-10.551
		l-20.089,54.109l-1.758-54.109h-10.552l-11.769,67.774h6.561l9.403-54.045l1.893,53.978h7.237L275.356,207.922z M307.756,262.439
		l1.215-6.899h-19.343l10.483-60.875h-7.507l-11.77,67.774H307.756z M331.767,243.567l32.128-12.311l0.947-5.411l-27.867-12.31
		l-0.947,5.546l21.306,9.469l-24.621,9.47L331.767,243.567z"/>
	<path fill-rule="evenodd" clip-rule="evenodd" fill="#FFFFFF" d="M509.858,334.878l-17.042-7.508l19.274-7.507l0.607-4.328
		l-25.161,9.669l-0.607,4.33l22.253,9.739L509.858,334.878z M532.922,300.586l-7.98,53.568h12.513
		c8.388,0,12.987-5.005,14.204-13.255l3.99-26.988c1.286-8.251-1.824-13.325-10.146-13.325H532.922z M531.706,348.746l6.424-42.748
		h6.428c4.329,0,6.02,2.707,5.276,7.576l-4.128,27.596c-0.742,4.87-3.178,7.576-7.508,7.576H531.706z M563.223,300.586l-7.98,53.568
		h5.955l8.048-53.568H563.223z M573.845,300.586l2.027,53.568h8.861l17.991-53.568h-5.477l-15.626,46.602l-1.759-46.602H573.845z
		 M613.413,339.274l25.162-9.739l0.675-4.33L617,315.536l-0.679,4.328l17.045,7.507l-19.277,7.508L613.413,339.274z"/>
</g>
<g>
	<g>
		<rect x="665.637" y="123.762" fill="#313131" width="266.888" height="385.723"/>
		<rect x="665.637" y="91.688" fill="#CDCCCC" width="266.888" height="25.074"/>
		<rect x="665.637" y="116.762" fill="#E6E6E6" width="266.888" height="12.756"/>
		<circle fill="#313131" cx="920.94" cy="104.225" r="3.772"/>
		<circle fill="#313131" cx="906.974" cy="104.225" r="3.771"/>
		<circle fill="#313131" cx="893.007" cy="104.225" r="3.771"/>
		<rect x="674.165" y="119.487" fill="#313131" width="7.308" height="7.306"/>
		<rect x="747.448" y="119.487" fill="#313131" width="7.306" height="7.306"/>
		<rect x="759.446" y="119.487" fill="#313131" width="7.306" height="7.306"/>
		<rect x="692.476" y="119.487" fill="#313131" width="44.586" height="7.306"/>
	</g>
	<text transform="matrix(1 0 0 1 686.5132 161.8179)"><tspan x="0" y="0" fill="#E72C7C" font-family="'Raleway-Light'" font-size="14.3752">&lt;head&gt;</tspan><tspan x="47.754" y="0" fill="#FFFFFF" font-family="'Raleway-Light'" font-size="14.3752"> hello world </tspan><tspan x="128.757" y="0" fill="#E72C7C" font-family="'Raleway-Light'" font-size="14.3752">&lt;/head&gt;</tspan><tspan x="0" y="34.5" fill="#73B735" font-family="'Raleway-Light'" font-size="14.3752">&lt;body&gt;</tspan><tspan x="0" y="51.751" fill="#FFFFFF" font-family="'Raleway-Light'" font-size="14.3752" letter-spacing="39">	</tspan><tspan x="43.423" y="51.751" fill="#F9AF30" font-family="'Raleway-Light'" font-size="14.3752">&lt;nav&gt;</tspan><tspan x="81.489" y="51.751" fill="#FFFFFF" font-family="'Raleway-Light'" font-size="14.3752">menu toggle</tspan><tspan x="166.045" y="51.751" fill="#F9AF30" font-family="'Raleway-Light'" font-size="14.3752">&lt;/nav&gt;</tspan><tspan x="0" y="69.001" fill="#FFFFFF" font-family="'Raleway-Light'" font-size="14.3752" letter-spacing="39">	</tspan><tspan x="43.423" y="69.001" fill="#E72C7C" font-family="'Raleway-Light'" font-size="14.3752">&lt;a</tspan><tspan x="58.431" y="69.001" fill="#FFFFFF" font-family="'Raleway-Light'" font-size="14.3752"> href=”www.sample.com”</tspan><tspan x="221.372" y="69.001" fill="#E72C7C" font-family="'Raleway-Light'" font-size="14.3752">/&gt;</tspan><tspan x="0" y="86.251" fill="#FFFFFF" font-family="'Raleway-Light'" font-size="14.3752" letter-spacing="39">	</tspan><tspan x="43.423" y="86.251" fill="#F9AF30" font-family="'Raleway-Light'" font-size="14.3752">&lt;ul</tspan><tspan x="62.7" y="86.251" fill="#FFFFFF" font-family="'Raleway-Light'" font-size="14.3752"> class=”menu two”</tspan><tspan x="180.92" y="86.251" fill="#F9AF30" font-family="'Raleway-Light'" font-size="14.3752">&gt;</tspan><tspan x="0" y="103.501" fill="#FFFFFF" font-family="'Raleway-Light'" font-size="14.3752" letter-spacing="39">		</tspan><tspan x="86.846" y="103.501" fill="#FFFFFF" font-family="'Raleway-Light'" font-size="14.3752">&lt;li&gt;One class&lt;/li&gt;</tspan><tspan x="0" y="120.751" fill="#FFFFFF" font-family="'Raleway-Light'" font-size="14.3752" letter-spacing="39">		</tspan><tspan x="86.846" y="120.751" fill="#FFFFFF" font-family="'Raleway-Light'" font-size="14.3752">&lt;li&gt;Two class&lt;/li&gt;</tspan><tspan x="0" y="138.002" fill="#FFFFFF" font-family="'Raleway-Light'" font-size="14.3752" letter-spacing="39">		</tspan><tspan x="86.846" y="138.002" fill="#FFFFFF" font-family="'Raleway-Light'" font-size="14.3752">&lt;li&gt;Three class&lt;/li&gt;</tspan><tspan x="0" y="155.252" fill="#FFFFFF" font-family="'Raleway-Light'" font-size="14.3752" letter-spacing="39">	</tspan><tspan x="43.423" y="155.252" fill="#F9AF30" font-family="'Raleway-Light'" font-size="14.3752">&lt;/ul&gt;</tspan><tspan x="0" y="172.502" fill="#E72C7C" font-family="'Raleway-Light'" font-size="14.3752">&lt;a</tspan><tspan x="15.008" y="172.502" fill="#FFFFFF" font-family="'Raleway-Light'" font-size="14.3752"> href=”www.secondweb.com”</tspan><tspan x="206.957" y="172.502" fill="#E72C7C" font-family="'Raleway-Light'" font-size="14.3752">/&gt;</tspan><tspan x="0" y="207.004" fill="#FFFFFF" font-family="'Raleway-Light'" font-size="14.3752" letter-spacing="39">	</tspan><tspan x="43.423" y="207.004" fill="#F9AF30" font-family="'Raleway-Light'" font-size="14.3752">&lt;ul</tspan><tspan x="62.7" y="207.004" fill="#FFFFFF" font-family="'Raleway-Light'" font-size="14.3752"> class=”menu two”</tspan><tspan x="180.92" y="207.004" fill="#F9AF30" font-family="'Raleway-Light'" font-size="14.3752">&gt;</tspan><tspan x="0" y="224.254" fill="#FFFFFF" font-family="'Raleway-Light'" font-size="14.3752" letter-spacing="39">		</tspan><tspan x="86.846" y="224.254" fill="#FFFFFF" font-family="'Raleway-Light'" font-size="14.3752">&lt;li&gt;One class&lt;/li&gt;</tspan><tspan x="0" y="241.504" fill="#FFFFFF" font-family="'Raleway-Light'" font-size="14.3752" letter-spacing="39">		</tspan><tspan x="86.846" y="241.504" fill="#FFFFFF" font-family="'Raleway-Light'" font-size="14.3752">&lt;li&gt;Two class&lt;/li&gt;</tspan><tspan x="0" y="258.754" fill="#FFFFFF" font-family="'Raleway-Light'" font-size="14.3752" letter-spacing="39">		</tspan><tspan x="86.846" y="258.754" fill="#FFFFFF" font-family="'Raleway-Light'" font-size="14.3752">&lt;li&gt;Three class&lt;/li&gt;</tspan><tspan x="0" y="276.004" fill="#FFFFFF" font-family="'Raleway-Light'" font-size="14.3752" letter-spacing="39">	</tspan><tspan x="43.423" y="276.004" fill="#F9AF30" font-family="'Raleway-Light'" font-size="14.3752">&lt;/ul&gt;</tspan><tspan x="0" y="293.254" fill="#12ACE4" font-family="'Raleway-Light'" font-size="14.3752">&lt;p&gt;</tspan><tspan x="23.302" y="293.254" fill="#FFFFFF" font-family="'Raleway-Light'" font-size="14.3752"> Hello world, we need to</tspan><tspan x="0" y="310.506" fill="#FFFFFF" font-family="'Raleway-Light'" font-size="14.3752">talk about programming.</tspan><tspan x="0" y="327.756" fill="#12ACE4" font-family="'Raleway-Light'" font-size="14.3752">&lt;/p&gt;</tspan></text>
</g>
</svg>
